M48
; DRILL file {KiCad 7.0.8} date Sun Oct  8 14:38:00 2023
; FORMAT={-:-/ absolute / metric / decimal}
; #@! TF.CreationDate,2023-10-08T14:38:00-06:00
; #@! TF.GenerationSoftware,Kicad,Pcbnew,7.0.8
; #@! TF.FileFunction,Plated,1,4,PTH
FMAT,2
METRIC
; #@! TA.AperFunction,Plated,PTH,ViaDrill
T1C0.381
; #@! TA.AperFunction,Plated,PTH,ViaDrill
T2C0.508
; #@! TA.AperFunction,Plated,PTH,ComponentDrill
T3C0.800
; #@! TA.AperFunction,Plated,PTH,ViaDrill
T4C0.889
; #@! TA.AperFunction,Plated,PTH,ComponentDrill
T5C1.000
%
G90
G05
T1
X7.366Y-12.319
X7.62Y-13.462
X7.874Y-14.732
X7.899Y-56.083
X8.128Y-16.002
X8.382Y-17.272
X8.636Y-18.542
X8.89Y-19.812
X8.89Y-24.13
X9.144Y-21.082
X9.398Y-22.352
X9.652Y-23.622
X11.1Y-46.355
X14.021Y-50.343
X16.002Y-8.636
X16.129Y-51.232
X17.424Y-41.402
X18.085Y-63.297
X19.304Y-22.606
X19.406Y-69.698
X19.406Y-71.425
X19.558Y-41.91
X20.066Y-22.098
X20.066Y-42.672
X20.803Y-61.9
X20.828Y-23.114
X20.828Y-43.307
X21.082Y-40.894
X21.387Y-49.987
X21.844Y-41.402
X23.368Y-50.673
X23.368Y-51.816
X24.384Y-11.049
X25.4Y-21.59
X25.4Y-22.479
X27.305Y-32.766
X27.305Y-42.926
X27.305Y-45.466
X27.305Y-50.546
X27.305Y-58.166
X28.448Y-79.502
X29.032Y-74.6
X30.531Y-63.068
X31.496Y-25.908
X31.979Y-6.858
X32.258Y-25.4
X33.02Y-24.892
X33.782Y-24.384
X34.544Y-23.876
X35.306Y-23.368
X36.068Y-22.86
X37.262Y-74.6
X39.116Y-43.307
X39.497Y-15.621
X39.751Y-35.306
X39.751Y-40.386
X39.751Y-65.786
X39.751Y-68.326
X40.132Y-16.256
X42.545Y-32.766
X42.545Y-48.006
X42.545Y-50.546
X42.545Y-53.086
X42.545Y-55.626
X42.545Y-58.166
X43.18Y-66.167
X43.18Y-67.056
X43.434Y-38.227
X43.434Y-39.116
X43.942Y-84.303
X43.967Y-82.575
X46.736Y-38.227
X46.736Y-39.116
X47.041Y-60.782
X47.447Y-71.704
X48.514Y-14.986
X49.403Y-46.99
X50.038Y-47.752
X50.419Y-27.432
X50.546Y-66.167
X50.546Y-67.056
X51.054Y-26.67
X51.816Y-28.829
X52.045Y-47.879
X52.578Y-28.194
X52.781Y-64.059
X52.832Y-23.114
X53.416Y-52.07
X54.737Y-18.161
X54.94Y-48.489
X55.296Y-73.457
X55.626Y-33.528
X56.083Y-75.641
X56.642Y-33.528
X57.429Y-71.907
X57.76Y-48.641
X57.912Y-62.586
X58.166Y-28.575
X58.369Y-49.327
X59.03Y-45.212
X59.157Y-70.739
X59.487Y-48.209
X60.325Y-48.895
X60.706Y-50.292
X61.341Y-48.514
X61.341Y-50.927
X64.262Y-51.181
X64.592Y-62.941
X65.51Y-20.552
X68.58Y-73.152
X68.783Y-50.394
X68.961Y-74.168
X72.898Y-21.082
T2
X7.112Y-70.426
X7.366Y-62.298
X13.614Y-63.144
X13.665Y-69.901
X24.257Y-60.706
X32.029Y-83.82
X38.252Y-83.82
X39.878Y-9.652
X40.386Y-11.049
X43.891Y-75.946
X50.14Y-75.286
X53.594Y-39.37
X53.594Y-42.164
X73.889Y-86.944
X78.105Y-74.168
T3
X8.382Y-79.502
X8.382Y-84.582
X13.462Y-79.502
X13.462Y-84.582
T4
X67.767Y-68.986
T5
X4.064Y-1.524
X4.064Y-87.376
X9.688Y-76.269
X11.73Y-37.66
X12.228Y-76.269
X14.27Y-37.66
X25.908Y-32.766
X25.908Y-35.306
X25.908Y-37.846
X25.908Y-40.386
X25.908Y-42.926
X25.908Y-45.466
X25.908Y-48.006
X25.908Y-50.546
X25.908Y-53.086
X25.908Y-55.626
X25.908Y-58.166
X25.908Y-60.706
X25.908Y-63.246
X25.908Y-65.786
X25.908Y-68.326
X33.782Y-2.515
X36.322Y-2.515
X38.862Y-2.515
X41.148Y-32.766
X41.148Y-35.306
X41.148Y-37.846
X41.148Y-40.386
X41.148Y-42.926
X41.148Y-45.466
X41.148Y-48.006
X41.148Y-50.546
X41.148Y-53.086
X41.148Y-55.626
X41.148Y-58.166
X41.148Y-60.706
X41.148Y-63.246
X41.148Y-65.786
X41.148Y-68.326
X41.402Y-2.515
X43.942Y-2.515
X46.482Y-2.515
X49.022Y-2.515
X50.454Y-58.42
X55.454Y-58.42
X63.5Y-73.578
X63.5Y-78.578
X63.5Y-83.185
X63.5Y-85.725
X70.612Y-15.494
X70.612Y-18.034
X71.12Y-48.32
X71.12Y-53.32
X78.232Y-44.963
X78.232Y-47.503
T0
M30
