G04 #@! TF.GenerationSoftware,KiCad,Pcbnew,7.0.8*
G04 #@! TF.CreationDate,2023-10-08T14:36:17-06:00*
G04 #@! TF.ProjectId,metal detector test,6d657461-6c20-4646-9574-6563746f7220,V2*
G04 #@! TF.SameCoordinates,Original*
G04 #@! TF.FileFunction,Copper,L2,Inr*
G04 #@! TF.FilePolarity,Positive*
%FSLAX46Y46*%
G04 Gerber Fmt 4.6, Leading zero omitted, Abs format (unit mm)*
G04 Created by KiCad (PCBNEW 7.0.8) date 2023-10-08 14:36:17*
%MOMM*%
%LPD*%
G01*
G04 APERTURE LIST*
G04 #@! TA.AperFunction,ComponentPad*
%ADD10O,1.600000X1.600000*%
G04 #@! TD*
G04 #@! TA.AperFunction,ComponentPad*
%ADD11C,1.800000*%
G04 #@! TD*
G04 #@! TA.AperFunction,ComponentPad*
%ADD12R,2.000000X2.000000*%
G04 #@! TD*
G04 #@! TA.AperFunction,ComponentPad*
%ADD13C,2.000000*%
G04 #@! TD*
G04 #@! TA.AperFunction,ComponentPad*
%ADD14R,1.700000X1.700000*%
G04 #@! TD*
G04 #@! TA.AperFunction,ComponentPad*
%ADD15O,1.700000X1.700000*%
G04 #@! TD*
G04 #@! TA.AperFunction,ComponentPad*
%ADD16R,1.600000X1.600000*%
G04 #@! TD*
G04 #@! TA.AperFunction,ViaPad*
%ADD17C,0.660400*%
G04 #@! TD*
G04 #@! TA.AperFunction,ViaPad*
%ADD18C,1.016000*%
G04 #@! TD*
G04 #@! TA.AperFunction,ViaPad*
%ADD19C,1.270000*%
G04 #@! TD*
G04 APERTURE END LIST*
D10*
X4064000Y-1524000D03*
X4064000Y-87376000D03*
D11*
X8382000Y-79502000D03*
X13462000Y-79502000D03*
X13462000Y-84582000D03*
X8382000Y-84582000D03*
D12*
X63500000Y-73578323D03*
D13*
X63500000Y-78578323D03*
D14*
X14270000Y-37660500D03*
D15*
X11730000Y-37660500D03*
D14*
X9688000Y-76268500D03*
D15*
X12228000Y-76268500D03*
D12*
X71120000Y-53320077D03*
D13*
X71120000Y-48320077D03*
D14*
X63500000Y-85725000D03*
D15*
X63500000Y-83185000D03*
D16*
X41148000Y-68326000D03*
D10*
X41148000Y-65786000D03*
X41148000Y-63246000D03*
X41148000Y-60706000D03*
X41148000Y-58166000D03*
X41148000Y-55626000D03*
X41148000Y-53086000D03*
X41148000Y-50546000D03*
X41148000Y-48006000D03*
X41148000Y-45466000D03*
X41148000Y-42926000D03*
X41148000Y-40386000D03*
X41148000Y-37846000D03*
X41148000Y-35306000D03*
X41148000Y-32766000D03*
X25908000Y-32766000D03*
X25908000Y-35306000D03*
X25908000Y-37846000D03*
X25908000Y-40386000D03*
X25908000Y-42926000D03*
X25908000Y-45466000D03*
X25908000Y-48006000D03*
X25908000Y-50546000D03*
X25908000Y-53086000D03*
X25908000Y-55626000D03*
X25908000Y-58166000D03*
X25908000Y-60706000D03*
X25908000Y-63246000D03*
X25908000Y-65786000D03*
X25908000Y-68326000D03*
D14*
X70612000Y-18034000D03*
D15*
X70612000Y-15494000D03*
D14*
X78232000Y-47503000D03*
D15*
X78232000Y-44963000D03*
D12*
X55453677Y-58420000D03*
D13*
X50453677Y-58420000D03*
D14*
X33782000Y-2514600D03*
D15*
X36322000Y-2514600D03*
X38862000Y-2514600D03*
X41402000Y-2514600D03*
X43942000Y-2514600D03*
X46482000Y-2514600D03*
X49022000Y-2514600D03*
D17*
X31978600Y-6858000D03*
X24384000Y-11049000D03*
X27305000Y-42926000D03*
X18084800Y-63296800D03*
X20828000Y-43307000D03*
X68783200Y-50393600D03*
X20802600Y-61899800D03*
X43942000Y-84302600D03*
X30530800Y-63068200D03*
X52044600Y-47879000D03*
X50419000Y-27432000D03*
X53416200Y-52070000D03*
D18*
X38252400Y-83820000D03*
D17*
X57759600Y-48641000D03*
X49403000Y-46990000D03*
X47447200Y-71704200D03*
X28448000Y-79502000D03*
X64592200Y-62941200D03*
X39116000Y-43307000D03*
X43180000Y-66167000D03*
X54940200Y-48488600D03*
X19405600Y-71424800D03*
X72898000Y-21082000D03*
X61341000Y-50927000D03*
X17424400Y-41402000D03*
X42545000Y-48006000D03*
X21386800Y-49987200D03*
X19405600Y-69697600D03*
D18*
X13665200Y-69900800D03*
X43891200Y-75946000D03*
D17*
X52832000Y-23114000D03*
X42545000Y-55626000D03*
X61341000Y-48514000D03*
X39751000Y-40386000D03*
X68961000Y-74168000D03*
X19304000Y-22606000D03*
X57912000Y-62585600D03*
X55295800Y-73456800D03*
X39751000Y-65786000D03*
X55626000Y-33528000D03*
D18*
X78105000Y-74168000D03*
D17*
X39497000Y-15621000D03*
X56083200Y-75641200D03*
X46736000Y-38227000D03*
X21844000Y-41402000D03*
X27305000Y-32766000D03*
X25400000Y-22479000D03*
D18*
X50139600Y-75285600D03*
X7112000Y-70426500D03*
D17*
X14020800Y-50342800D03*
X54737000Y-18161000D03*
X47040800Y-60782200D03*
X58166000Y-28575000D03*
X50546000Y-66167000D03*
X7899400Y-56083200D03*
X48514000Y-14986000D03*
X29032200Y-74599800D03*
X27305000Y-50546000D03*
X43434000Y-38227000D03*
X60325000Y-48895000D03*
X16002000Y-8636000D03*
X39751000Y-68326000D03*
X65510500Y-20552500D03*
X59029600Y-45212000D03*
X23368000Y-50673000D03*
X42545000Y-53086000D03*
X51816000Y-28829000D03*
X43967400Y-82575400D03*
X59156600Y-70739000D03*
X19558000Y-41910000D03*
D18*
X7366000Y-62298500D03*
D17*
X27305000Y-58166000D03*
X42545000Y-58166000D03*
X42545000Y-32766000D03*
D18*
X40386000Y-11049000D03*
D17*
X42545000Y-50546000D03*
D18*
X32029400Y-83820000D03*
D17*
X64262000Y-51181000D03*
X37261800Y-74599800D03*
D18*
X73888600Y-86944200D03*
D17*
X52781200Y-64058800D03*
X36068000Y-22860000D03*
X8890000Y-24130000D03*
D18*
X13614400Y-63144400D03*
D17*
X57429400Y-71907400D03*
D18*
X24257000Y-60706000D03*
D17*
X27305000Y-45466000D03*
D18*
X53594000Y-39370000D03*
X53594000Y-42164000D03*
D17*
X16129000Y-51231800D03*
D19*
X67767200Y-68986400D03*
D17*
X39751000Y-35306000D03*
X7366000Y-12319000D03*
X11099800Y-46355000D03*
X52578000Y-28194000D03*
X56642000Y-33528000D03*
X51054000Y-26670000D03*
X50038000Y-47752000D03*
X43180000Y-67056000D03*
X50546000Y-67056000D03*
X40132000Y-16256000D03*
X68580000Y-73152000D03*
X25400000Y-21590000D03*
X20828000Y-23114000D03*
X43434000Y-39116000D03*
X46736000Y-39116000D03*
X8128000Y-16002000D03*
X8382000Y-17272000D03*
X8636000Y-18542000D03*
X8890000Y-19812000D03*
X9144000Y-21082000D03*
X9398000Y-22352000D03*
X35306000Y-23368000D03*
X34544000Y-23876000D03*
X33782000Y-24384000D03*
X33020000Y-24892000D03*
X32258000Y-25400000D03*
X31496000Y-25908000D03*
X60706000Y-50292000D03*
X20066000Y-22098000D03*
X9652000Y-23622000D03*
X58369200Y-49326800D03*
X59486800Y-48209200D03*
X20066000Y-42672000D03*
X21082000Y-40894000D03*
D18*
X39878000Y-9652000D03*
D17*
X23368000Y-51816000D03*
X7620000Y-13462000D03*
X7874000Y-14732000D03*
G04 #@! TA.AperFunction,Conductor*
G36*
X3838408Y-274002D02*
G01*
X3884901Y-327658D01*
X3895005Y-397932D01*
X3865511Y-462512D01*
X3806863Y-500575D01*
X3658698Y-545519D01*
X3475598Y-643389D01*
X3315103Y-775103D01*
X3183389Y-935598D01*
X3085519Y-1118699D01*
X3039623Y-1270000D01*
X3632884Y-1270000D01*
X3604507Y-1314156D01*
X3564000Y-1452111D01*
X3564000Y-1595889D01*
X3604507Y-1733844D01*
X3632884Y-1778000D01*
X3039623Y-1778000D01*
X3085519Y-1929300D01*
X3183389Y-2112401D01*
X3315103Y-2272896D01*
X3475598Y-2404610D01*
X3658699Y-2502480D01*
X3810000Y-2548376D01*
X3810000Y-1957674D01*
X3921685Y-2008680D01*
X4028237Y-2024000D01*
X4099763Y-2024000D01*
X4206315Y-2008680D01*
X4318000Y-1957674D01*
X4318000Y-2548376D01*
X4469300Y-2502480D01*
X4652401Y-2404610D01*
X4812896Y-2272896D01*
X4944610Y-2112401D01*
X5042480Y-1929300D01*
X5088377Y-1778000D01*
X4495116Y-1778000D01*
X4523493Y-1733844D01*
X4564000Y-1595889D01*
X4564000Y-1452111D01*
X4523493Y-1314156D01*
X4495116Y-1270000D01*
X5088376Y-1270000D01*
X5042480Y-1118699D01*
X4944610Y-935598D01*
X4812896Y-775103D01*
X4652401Y-643389D01*
X4469301Y-545519D01*
X4321137Y-500575D01*
X4261756Y-461660D01*
X4232840Y-396818D01*
X4243571Y-326637D01*
X4290541Y-273398D01*
X4357713Y-254000D01*
X82283589Y-254000D01*
X82308170Y-256421D01*
X82334458Y-261649D01*
X82368621Y-268445D01*
X82414037Y-287257D01*
X82454768Y-314472D01*
X82489527Y-349231D01*
X82516741Y-389959D01*
X82535554Y-435378D01*
X82547579Y-495829D01*
X82550000Y-520411D01*
X82550000Y-88379588D01*
X82547579Y-88404170D01*
X82535554Y-88464621D01*
X82516741Y-88510040D01*
X82489530Y-88550765D01*
X82454765Y-88585530D01*
X82414040Y-88612741D01*
X82368622Y-88631554D01*
X82330376Y-88639162D01*
X82308169Y-88643579D01*
X82283589Y-88646000D01*
X4357713Y-88646000D01*
X4289592Y-88625998D01*
X4243099Y-88572342D01*
X4232995Y-88502068D01*
X4262489Y-88437488D01*
X4321137Y-88399425D01*
X4469301Y-88354480D01*
X4652401Y-88256610D01*
X4812896Y-88124896D01*
X4944610Y-87964401D01*
X5042480Y-87781300D01*
X5088377Y-87630000D01*
X4495116Y-87630000D01*
X4523493Y-87585844D01*
X4564000Y-87447889D01*
X4564000Y-87304111D01*
X4523493Y-87166156D01*
X4495116Y-87122000D01*
X5088376Y-87122000D01*
X5042480Y-86970699D01*
X4944610Y-86787598D01*
X4812896Y-86627103D01*
X4652401Y-86495389D01*
X4469301Y-86397519D01*
X4469299Y-86397518D01*
X4318000Y-86351621D01*
X4318000Y-86942325D01*
X4206315Y-86891320D01*
X4099763Y-86876000D01*
X4028237Y-86876000D01*
X3921685Y-86891320D01*
X3810000Y-86942325D01*
X3810000Y-86351622D01*
X3809999Y-86351621D01*
X3658700Y-86397518D01*
X3658698Y-86397519D01*
X3475598Y-86495389D01*
X3315103Y-86627103D01*
X3183389Y-86787598D01*
X3085519Y-86970699D01*
X3039623Y-87122000D01*
X3632884Y-87122000D01*
X3604507Y-87166156D01*
X3564000Y-87304111D01*
X3564000Y-87447889D01*
X3604507Y-87585844D01*
X3632884Y-87630000D01*
X3039623Y-87630000D01*
X3085519Y-87781300D01*
X3183389Y-87964401D01*
X3315103Y-88124896D01*
X3475598Y-88256610D01*
X3658698Y-88354480D01*
X3806863Y-88399425D01*
X3866244Y-88438340D01*
X3895160Y-88503182D01*
X3884429Y-88573363D01*
X3837459Y-88626602D01*
X3770287Y-88646000D01*
X520411Y-88646000D01*
X495829Y-88643579D01*
X435378Y-88631554D01*
X389959Y-88612741D01*
X349231Y-88585527D01*
X314472Y-88550768D01*
X287257Y-88510037D01*
X268445Y-88464619D01*
X256421Y-88404168D01*
X254000Y-88379588D01*
X254000Y-84582004D01*
X7222554Y-84582004D01*
X7242295Y-84795044D01*
X7242295Y-84795047D01*
X7242296Y-84795048D01*
X7300849Y-85000840D01*
X7396219Y-85192370D01*
X7396220Y-85192371D01*
X7396221Y-85192373D01*
X7525155Y-85363110D01*
X7525158Y-85363112D01*
X7525159Y-85363114D01*
X7639012Y-85466904D01*
X7683278Y-85507258D01*
X7683279Y-85507259D01*
X7865178Y-85619886D01*
X7865181Y-85619887D01*
X7865190Y-85619893D01*
X8064698Y-85697183D01*
X8064703Y-85697185D01*
X8275020Y-85736500D01*
X8275022Y-85736500D01*
X8488978Y-85736500D01*
X8488980Y-85736500D01*
X8699297Y-85697185D01*
X8898810Y-85619893D01*
X9080722Y-85507258D01*
X9238841Y-85363114D01*
X9367781Y-85192370D01*
X9463151Y-85000840D01*
X9521704Y-84795048D01*
X9533717Y-84665407D01*
X9541446Y-84582004D01*
X12302554Y-84582004D01*
X12322295Y-84795044D01*
X12322295Y-84795047D01*
X12322296Y-84795048D01*
X12380849Y-85000840D01*
X12476219Y-85192370D01*
X12476220Y-85192371D01*
X12476221Y-85192373D01*
X12605155Y-85363110D01*
X12605158Y-85363112D01*
X12605159Y-85363114D01*
X12719012Y-85466904D01*
X12763278Y-85507258D01*
X12763279Y-85507259D01*
X12945178Y-85619886D01*
X12945181Y-85619887D01*
X12945190Y-85619893D01*
X13144698Y-85697183D01*
X13144703Y-85697185D01*
X13355020Y-85736500D01*
X13355022Y-85736500D01*
X13568978Y-85736500D01*
X13568980Y-85736500D01*
X13779297Y-85697185D01*
X13857004Y-85667081D01*
X17667766Y-85667081D01*
X17697968Y-85941565D01*
X17697969Y-85941570D01*
X17767813Y-86208729D01*
X17875812Y-86462871D01*
X17875813Y-86462872D01*
X18019666Y-86698584D01*
X18196305Y-86910839D01*
X18401967Y-87095112D01*
X18632268Y-87247478D01*
X18632277Y-87247482D01*
X18632280Y-87247484D01*
X18882296Y-87364687D01*
X18882298Y-87364687D01*
X18882299Y-87364688D01*
X19146732Y-87444244D01*
X19146735Y-87444244D01*
X19146737Y-87444245D01*
X19419926Y-87484450D01*
X19419930Y-87484450D01*
X19626945Y-87484450D01*
X19695763Y-87479413D01*
X19833404Y-87469339D01*
X20102938Y-87409298D01*
X20360858Y-87310652D01*
X20601666Y-87175504D01*
X20820231Y-87006734D01*
X21011893Y-86807939D01*
X21172568Y-86583357D01*
X21217796Y-86495389D01*
X21298831Y-86337773D01*
X21298832Y-86337771D01*
X21357028Y-86167184D01*
X21387992Y-86076422D01*
X21414143Y-85934844D01*
X21438148Y-85804883D01*
X21438149Y-85804873D01*
X21438441Y-85796889D01*
X21448234Y-85528919D01*
X21418032Y-85254435D01*
X21348187Y-84987273D01*
X21289842Y-84849977D01*
X21240187Y-84733128D01*
X21228197Y-84713482D01*
X57681500Y-84713482D01*
X57716563Y-84946111D01*
X57720692Y-84973506D01*
X57720693Y-84973514D01*
X57743492Y-85047425D01*
X57788203Y-85192373D01*
X57798204Y-85224793D01*
X57912299Y-85461712D01*
X57912303Y-85461719D01*
X58052317Y-85667081D01*
X58060430Y-85678980D01*
X58060435Y-85678985D01*
X58239285Y-85871742D01*
X58239289Y-85871745D01*
X58239290Y-85871746D01*
X58444883Y-86035701D01*
X58444886Y-86035703D01*
X58672618Y-86167184D01*
X58672622Y-86167186D01*
X58864246Y-86242392D01*
X58917402Y-86263254D01*
X59173772Y-86321769D01*
X59326150Y-86333188D01*
X59370343Y-86336500D01*
X59370346Y-86336500D01*
X59501657Y-86336500D01*
X59542768Y-86333418D01*
X59698228Y-86321769D01*
X59954598Y-86263254D01*
X60163802Y-86181148D01*
X60199377Y-86167186D01*
X60199381Y-86167184D01*
X60199380Y-86167184D01*
X60199384Y-86167183D01*
X60427117Y-86035701D01*
X60632710Y-85871746D01*
X60811570Y-85678980D01*
X60953368Y-85471000D01*
X62396000Y-85471000D01*
X63068884Y-85471000D01*
X63040507Y-85515156D01*
X63000000Y-85653111D01*
X63000000Y-85796889D01*
X63040507Y-85934844D01*
X63068884Y-85979000D01*
X62396001Y-85979000D01*
X62396001Y-86600022D01*
X62410737Y-86674105D01*
X62410737Y-86674107D01*
X62466875Y-86758124D01*
X62550893Y-86814262D01*
X62550894Y-86814263D01*
X62624980Y-86828999D01*
X63246000Y-86828999D01*
X63246000Y-86158674D01*
X63357685Y-86209680D01*
X63464237Y-86225000D01*
X63535763Y-86225000D01*
X63642315Y-86209680D01*
X63754000Y-86158674D01*
X63754000Y-86828999D01*
X64375014Y-86828999D01*
X64375022Y-86828998D01*
X64449105Y-86814262D01*
X64449107Y-86814262D01*
X64533124Y-86758124D01*
X64589262Y-86674106D01*
X64589263Y-86674105D01*
X64603999Y-86600022D01*
X64604000Y-86600015D01*
X64604000Y-85979000D01*
X63931116Y-85979000D01*
X63959493Y-85934844D01*
X64000000Y-85796889D01*
X64000000Y-85653111D01*
X63959493Y-85515156D01*
X63931116Y-85471000D01*
X64603999Y-85471000D01*
X64603999Y-85256205D01*
X71269732Y-85256205D01*
X71279768Y-85466893D01*
X71279769Y-85466904D01*
X71329498Y-85671886D01*
X71329498Y-85671888D01*
X71329499Y-85671890D01*
X71417124Y-85863762D01*
X71539478Y-86035584D01*
X71692138Y-86181145D01*
X71692140Y-86181146D01*
X71692142Y-86181148D01*
X71760378Y-86225000D01*
X71869587Y-86295184D01*
X72065411Y-86373580D01*
X72272533Y-86413500D01*
X72272537Y-86413500D01*
X72430613Y-86413500D01*
X72430630Y-86413499D01*
X72587969Y-86398474D01*
X72587969Y-86398473D01*
X72587979Y-86398473D01*
X72790368Y-86339047D01*
X72795309Y-86336500D01*
X72800454Y-86333846D01*
X72977854Y-86242391D01*
X73143659Y-86112000D01*
X73281792Y-85952587D01*
X73387259Y-85769913D01*
X73456248Y-85570580D01*
X73465352Y-85507258D01*
X73486267Y-85361794D01*
X73483326Y-85300048D01*
X73476231Y-85151098D01*
X73426501Y-84946110D01*
X73338876Y-84754238D01*
X73216522Y-84582416D01*
X73216080Y-84581995D01*
X73136373Y-84505994D01*
X73063862Y-84436855D01*
X73063859Y-84436853D01*
X73063857Y-84436851D01*
X72886413Y-84322816D01*
X72690589Y-84244420D01*
X72690586Y-84244419D01*
X72690585Y-84244419D01*
X72483471Y-84204500D01*
X72483467Y-84204500D01*
X72325387Y-84204500D01*
X72325369Y-84204500D01*
X72168030Y-84219525D01*
X72168015Y-84219528D01*
X71965629Y-84278953D01*
X71778148Y-84375607D01*
X71778141Y-84375611D01*
X71612347Y-84505994D01*
X71612334Y-84506006D01*
X71474212Y-84665407D01*
X71474206Y-84665415D01*
X71368743Y-84848083D01*
X71368739Y-84848092D01*
X71299753Y-85047417D01*
X71299750Y-85047425D01*
X71269732Y-85256205D01*
X64603999Y-85256205D01*
X64603999Y-84849986D01*
X64603998Y-84849977D01*
X64589262Y-84775894D01*
X64589262Y-84775892D01*
X64533124Y-84691875D01*
X64449106Y-84635737D01*
X64449105Y-84635736D01*
X64375022Y-84621000D01*
X63754000Y-84621000D01*
X63754000Y-85291325D01*
X63642315Y-85240320D01*
X63535763Y-85225000D01*
X63464237Y-85225000D01*
X63357685Y-85240320D01*
X63246000Y-85291325D01*
X63246000Y-84621000D01*
X62624986Y-84621000D01*
X62624976Y-84621001D01*
X62550894Y-84635737D01*
X62550892Y-84635737D01*
X62466875Y-84691875D01*
X62410737Y-84775893D01*
X62410736Y-84775894D01*
X62396000Y-84849977D01*
X62396000Y-85471000D01*
X60953368Y-85471000D01*
X60959702Y-85461710D01*
X61073798Y-85224788D01*
X61151308Y-84973508D01*
X61190500Y-84713482D01*
X61190500Y-84450518D01*
X61151308Y-84190492D01*
X61150930Y-84189268D01*
X61141873Y-84159907D01*
X61073798Y-83939212D01*
X60959702Y-83702290D01*
X60959700Y-83702287D01*
X60959696Y-83702280D01*
X60811574Y-83485026D01*
X60811570Y-83485020D01*
X60764626Y-83434426D01*
X60632714Y-83292257D01*
X60599550Y-83265809D01*
X60498223Y-83185004D01*
X62390768Y-83185004D01*
X62409654Y-83388819D01*
X62453839Y-83544113D01*
X62465672Y-83585701D01*
X62556912Y-83768935D01*
X62556913Y-83768936D01*
X62680266Y-83932284D01*
X62831536Y-84070185D01*
X63005566Y-84177940D01*
X63005568Y-84177940D01*
X63005573Y-84177944D01*
X63196444Y-84251888D01*
X63397653Y-84289500D01*
X63397655Y-84289500D01*
X63602345Y-84289500D01*
X63602347Y-84289500D01*
X63803556Y-84251888D01*
X63994427Y-84177944D01*
X64168462Y-84070186D01*
X64319732Y-83932285D01*
X64443088Y-83768935D01*
X64534328Y-83585701D01*
X64590345Y-83388821D01*
X64609232Y-83185000D01*
X64590345Y-82981179D01*
X64534328Y-82784299D01*
X64443088Y-82601065D01*
X64402538Y-82547368D01*
X64319733Y-82437715D01*
X64168463Y-82299814D01*
X63994433Y-82192059D01*
X63994428Y-82192057D01*
X63994427Y-82192056D01*
X63803559Y-82118113D01*
X63803560Y-82118113D01*
X63803557Y-82118112D01*
X63803556Y-82118112D01*
X63602347Y-82080500D01*
X63397653Y-82080500D01*
X63196444Y-82118112D01*
X63196439Y-82118113D01*
X63005577Y-82192054D01*
X63005566Y-82192059D01*
X62831536Y-82299814D01*
X62680266Y-82437715D01*
X62556913Y-82601063D01*
X62465671Y-82784301D01*
X62409654Y-82981180D01*
X62390768Y-83184995D01*
X62390768Y-83185004D01*
X60498223Y-83185004D01*
X60427117Y-83128299D01*
X60427112Y-83128296D01*
X60427113Y-83128296D01*
X60199381Y-82996815D01*
X60199377Y-82996813D01*
X59954602Y-82900747D01*
X59954599Y-82900746D01*
X59698230Y-82842231D01*
X59501657Y-82827500D01*
X59501654Y-82827500D01*
X59370346Y-82827500D01*
X59370343Y-82827500D01*
X59173769Y-82842231D01*
X58917400Y-82900746D01*
X58917397Y-82900747D01*
X58672622Y-82996813D01*
X58672618Y-82996815D01*
X58444886Y-83128296D01*
X58239285Y-83292257D01*
X58060435Y-83485014D01*
X58060425Y-83485026D01*
X57912303Y-83702280D01*
X57912299Y-83702287D01*
X57798204Y-83939206D01*
X57720693Y-84190485D01*
X57720692Y-84190491D01*
X57720692Y-84190492D01*
X57681500Y-84450518D01*
X57681500Y-84713482D01*
X21228197Y-84713482D01*
X21228194Y-84713477D01*
X21096334Y-84497416D01*
X20919695Y-84285161D01*
X20714033Y-84100888D01*
X20483732Y-83948522D01*
X20483724Y-83948518D01*
X20483719Y-83948515D01*
X20233703Y-83831312D01*
X19969262Y-83751754D01*
X19696073Y-83711550D01*
X19696070Y-83711550D01*
X19489057Y-83711550D01*
X19489055Y-83711550D01*
X19282599Y-83726660D01*
X19013058Y-83786703D01*
X19013056Y-83786704D01*
X18755141Y-83885348D01*
X18514340Y-84020492D01*
X18514336Y-84020494D01*
X18295767Y-84189267D01*
X18295766Y-84189268D01*
X18104108Y-84388059D01*
X18104103Y-84388065D01*
X17943434Y-84612639D01*
X17943427Y-84612649D01*
X17817168Y-84858226D01*
X17817167Y-84858228D01*
X17728009Y-85119572D01*
X17728006Y-85119585D01*
X17677851Y-85391116D01*
X17677850Y-85391126D01*
X17667766Y-85667081D01*
X13857004Y-85667081D01*
X13978810Y-85619893D01*
X14160722Y-85507258D01*
X14318841Y-85363114D01*
X14447781Y-85192370D01*
X14543151Y-85000840D01*
X14601704Y-84795048D01*
X14613717Y-84665407D01*
X14621446Y-84582004D01*
X14621446Y-84581995D01*
X14603475Y-84388061D01*
X14601704Y-84368952D01*
X14543151Y-84163160D01*
X14447781Y-83971630D01*
X14341818Y-83831312D01*
X14318844Y-83800889D01*
X14264945Y-83751754D01*
X14160722Y-83656742D01*
X14160721Y-83656741D01*
X14160720Y-83656740D01*
X13978821Y-83544113D01*
X13978814Y-83544109D01*
X13978810Y-83544107D01*
X13978805Y-83544105D01*
X13779301Y-83466816D01*
X13779302Y-83466816D01*
X13779297Y-83466815D01*
X13568980Y-83427500D01*
X13355020Y-83427500D01*
X13196313Y-83457167D01*
X13144697Y-83466816D01*
X12945194Y-83544105D01*
X12945178Y-83544113D01*
X12763279Y-83656740D01*
X12763278Y-83656741D01*
X12605155Y-83800889D01*
X12476221Y-83971626D01*
X12380849Y-84163160D01*
X12380847Y-84163165D01*
X12322295Y-84368955D01*
X12302554Y-84581995D01*
X12302554Y-84582004D01*
X9541446Y-84582004D01*
X9541446Y-84581995D01*
X9523475Y-84388061D01*
X9521704Y-84368952D01*
X9463151Y-84163160D01*
X9367781Y-83971630D01*
X9261818Y-83831312D01*
X9238844Y-83800889D01*
X9184945Y-83751754D01*
X9080722Y-83656742D01*
X9080721Y-83656741D01*
X9080720Y-83656740D01*
X8898821Y-83544113D01*
X8898814Y-83544109D01*
X8898810Y-83544107D01*
X8898805Y-83544105D01*
X8699301Y-83466816D01*
X8699302Y-83466816D01*
X8699297Y-83466815D01*
X8488980Y-83427500D01*
X8275020Y-83427500D01*
X8116313Y-83457167D01*
X8064697Y-83466816D01*
X7865194Y-83544105D01*
X7865178Y-83544113D01*
X7683279Y-83656740D01*
X7683278Y-83656741D01*
X7525155Y-83800889D01*
X7396221Y-83971626D01*
X7300849Y-84163160D01*
X7300847Y-84163165D01*
X7242295Y-84368955D01*
X7222554Y-84581995D01*
X7222554Y-84582004D01*
X254000Y-84582004D01*
X254000Y-79502004D01*
X7222554Y-79502004D01*
X7242295Y-79715044D01*
X7242295Y-79715047D01*
X7242296Y-79715048D01*
X7300849Y-79920840D01*
X7396219Y-80112370D01*
X7396220Y-80112371D01*
X7396221Y-80112373D01*
X7525155Y-80283110D01*
X7683278Y-80427258D01*
X7683279Y-80427259D01*
X7865178Y-80539886D01*
X7865181Y-80539887D01*
X7865190Y-80539893D01*
X8064698Y-80617183D01*
X8064703Y-80617185D01*
X8275020Y-80656500D01*
X8275022Y-80656500D01*
X8488978Y-80656500D01*
X8488980Y-80656500D01*
X8699297Y-80617185D01*
X8898810Y-80539893D01*
X9080722Y-80427258D01*
X9238841Y-80283114D01*
X9367781Y-80112370D01*
X9463151Y-79920840D01*
X9521704Y-79715048D01*
X9537647Y-79542997D01*
X9541446Y-79502004D01*
X12302554Y-79502004D01*
X12322295Y-79715044D01*
X12322295Y-79715047D01*
X12322296Y-79715048D01*
X12380849Y-79920840D01*
X12476219Y-80112370D01*
X12476220Y-80112371D01*
X12476221Y-80112373D01*
X12605155Y-80283110D01*
X12763278Y-80427258D01*
X12763279Y-80427259D01*
X12945178Y-80539886D01*
X12945181Y-80539887D01*
X12945190Y-80539893D01*
X13144698Y-80617183D01*
X13144703Y-80617185D01*
X13355020Y-80656500D01*
X13355022Y-80656500D01*
X13568978Y-80656500D01*
X13568980Y-80656500D01*
X13779297Y-80617185D01*
X13978810Y-80539893D01*
X14160722Y-80427258D01*
X14318841Y-80283114D01*
X14447781Y-80112370D01*
X14543151Y-79920840D01*
X14601704Y-79715048D01*
X14617647Y-79542997D01*
X14621446Y-79502004D01*
X14621446Y-79501995D01*
X14601704Y-79288955D01*
X14601704Y-79288952D01*
X14543151Y-79083160D01*
X14447781Y-78891630D01*
X14426736Y-78863762D01*
X14318844Y-78720889D01*
X14265092Y-78671888D01*
X14162456Y-78578323D01*
X62240708Y-78578323D01*
X62248893Y-78671886D01*
X62259839Y-78796996D01*
X62316652Y-79009023D01*
X62316654Y-79009029D01*
X62409421Y-79207969D01*
X62470489Y-79295184D01*
X62535326Y-79387780D01*
X62690543Y-79542997D01*
X62870354Y-79668902D01*
X63069297Y-79761670D01*
X63281326Y-79818484D01*
X63500000Y-79837615D01*
X63718674Y-79818484D01*
X63930703Y-79761670D01*
X64129646Y-79668902D01*
X64309457Y-79542997D01*
X64464674Y-79387780D01*
X64590579Y-79207969D01*
X64683347Y-79009026D01*
X64740161Y-78796997D01*
X64759292Y-78578323D01*
X64740161Y-78359649D01*
X64712443Y-78256205D01*
X71269732Y-78256205D01*
X71279768Y-78466893D01*
X71279769Y-78466904D01*
X71329498Y-78671886D01*
X71329498Y-78671888D01*
X71329499Y-78671890D01*
X71417124Y-78863762D01*
X71539478Y-79035584D01*
X71692138Y-79181145D01*
X71692140Y-79181146D01*
X71692142Y-79181148D01*
X71733877Y-79207969D01*
X71869587Y-79295184D01*
X72065411Y-79373580D01*
X72272533Y-79413500D01*
X72272537Y-79413500D01*
X72430613Y-79413500D01*
X72430630Y-79413499D01*
X72587969Y-79398474D01*
X72587969Y-79398473D01*
X72587979Y-79398473D01*
X72790368Y-79339047D01*
X72977854Y-79242391D01*
X73143659Y-79112000D01*
X73281792Y-78952587D01*
X73387259Y-78769913D01*
X73456248Y-78570580D01*
X73471556Y-78464113D01*
X73486267Y-78361794D01*
X73485586Y-78347500D01*
X73476231Y-78151098D01*
X73426501Y-77946110D01*
X73338876Y-77754238D01*
X73216522Y-77582416D01*
X73063862Y-77436855D01*
X73063859Y-77436853D01*
X73063857Y-77436851D01*
X72886413Y-77322816D01*
X72690589Y-77244420D01*
X72690586Y-77244419D01*
X72690585Y-77244419D01*
X72483471Y-77204500D01*
X72483467Y-77204500D01*
X72325387Y-77204500D01*
X72325369Y-77204500D01*
X72168030Y-77219525D01*
X72168015Y-77219528D01*
X71965629Y-77278953D01*
X71778148Y-77375607D01*
X71778141Y-77375611D01*
X71612347Y-77505994D01*
X71612334Y-77506006D01*
X71474212Y-77665407D01*
X71474206Y-77665415D01*
X71368743Y-77848083D01*
X71368739Y-77848092D01*
X71299753Y-78047417D01*
X71299750Y-78047425D01*
X71269732Y-78256205D01*
X64712443Y-78256205D01*
X64683347Y-78147620D01*
X64590579Y-77948677D01*
X64464674Y-77768866D01*
X64309457Y-77613649D01*
X64129646Y-77487744D01*
X63930706Y-77394977D01*
X63930700Y-77394975D01*
X63793582Y-77358234D01*
X63718674Y-77338162D01*
X63500000Y-77319031D01*
X63281326Y-77338162D01*
X63069299Y-77394975D01*
X63069293Y-77394977D01*
X62870353Y-77487744D01*
X62690546Y-77613646D01*
X62690540Y-77613651D01*
X62535328Y-77768863D01*
X62535323Y-77768869D01*
X62409421Y-77948676D01*
X62316654Y-78147616D01*
X62316652Y-78147622D01*
X62263094Y-78347500D01*
X62259839Y-78359649D01*
X62240708Y-78578323D01*
X14162456Y-78578323D01*
X14160722Y-78576742D01*
X14160721Y-78576741D01*
X14160720Y-78576740D01*
X13978821Y-78464113D01*
X13978814Y-78464109D01*
X13978810Y-78464107D01*
X13978805Y-78464105D01*
X13779301Y-78386816D01*
X13779302Y-78386816D01*
X13779297Y-78386815D01*
X13568980Y-78347500D01*
X13355020Y-78347500D01*
X13196313Y-78377167D01*
X13144697Y-78386816D01*
X12945194Y-78464105D01*
X12945178Y-78464113D01*
X12763279Y-78576740D01*
X12763278Y-78576741D01*
X12605155Y-78720889D01*
X12476221Y-78891626D01*
X12380849Y-79083160D01*
X12380847Y-79083165D01*
X12322295Y-79288955D01*
X12302554Y-79501995D01*
X12302554Y-79502004D01*
X9541446Y-79502004D01*
X9541446Y-79501995D01*
X9521704Y-79288955D01*
X9521704Y-79288952D01*
X9463151Y-79083160D01*
X9367781Y-78891630D01*
X9346736Y-78863762D01*
X9238844Y-78720889D01*
X9185092Y-78671888D01*
X9080722Y-78576742D01*
X9080721Y-78576741D01*
X9080720Y-78576740D01*
X8898821Y-78464113D01*
X8898814Y-78464109D01*
X8898810Y-78464107D01*
X8898805Y-78464105D01*
X8699301Y-78386816D01*
X8699302Y-78386816D01*
X8699297Y-78386815D01*
X8488980Y-78347500D01*
X8275020Y-78347500D01*
X8116313Y-78377167D01*
X8064697Y-78386816D01*
X7865194Y-78464105D01*
X7865178Y-78464113D01*
X7683279Y-78576740D01*
X7683278Y-78576741D01*
X7525155Y-78720889D01*
X7396221Y-78891626D01*
X7300849Y-79083160D01*
X7300847Y-79083165D01*
X7242295Y-79288955D01*
X7222554Y-79501995D01*
X7222554Y-79502004D01*
X254000Y-79502004D01*
X254000Y-76458482D01*
X4087500Y-76458482D01*
X4126692Y-76718506D01*
X4126693Y-76718514D01*
X4204204Y-76969793D01*
X4318299Y-77206712D01*
X4318303Y-77206719D01*
X4446655Y-77394976D01*
X4466430Y-77423980D01*
X4478376Y-77436855D01*
X4645285Y-77616742D01*
X4645289Y-77616745D01*
X4645290Y-77616746D01*
X4850883Y-77780701D01*
X4850886Y-77780703D01*
X5078618Y-77912184D01*
X5078622Y-77912186D01*
X5309899Y-78002954D01*
X5323402Y-78008254D01*
X5579772Y-78066769D01*
X5732150Y-78078188D01*
X5776343Y-78081500D01*
X5776346Y-78081500D01*
X5907657Y-78081500D01*
X5948768Y-78078418D01*
X6104228Y-78066769D01*
X6360598Y-78008254D01*
X6518931Y-77946113D01*
X6605377Y-77912186D01*
X6605381Y-77912184D01*
X6605380Y-77912184D01*
X6605384Y-77912183D01*
X6833117Y-77780701D01*
X7038710Y-77616746D01*
X7041587Y-77613646D01*
X7141461Y-77506006D01*
X7217570Y-77423980D01*
X7365702Y-77206710D01*
X7396112Y-77143563D01*
X8583500Y-77143563D01*
X8583501Y-77143573D01*
X8598265Y-77217800D01*
X8654516Y-77301984D01*
X8738697Y-77358233D01*
X8738699Y-77358234D01*
X8812933Y-77373000D01*
X10563066Y-77372999D01*
X10563069Y-77372998D01*
X10563073Y-77372998D01*
X10612326Y-77363201D01*
X10637301Y-77358234D01*
X10721484Y-77301984D01*
X10777734Y-77217801D01*
X10792500Y-77143567D01*
X10792499Y-76014499D01*
X11152450Y-76014499D01*
X11152451Y-76014500D01*
X11796884Y-76014500D01*
X11768507Y-76058656D01*
X11728000Y-76196611D01*
X11728000Y-76340389D01*
X11768507Y-76478344D01*
X11796884Y-76522500D01*
X11152451Y-76522500D01*
X11194138Y-76669014D01*
X11194140Y-76669019D01*
X11285340Y-76852172D01*
X11408637Y-77015446D01*
X11559838Y-77153284D01*
X11733796Y-77260993D01*
X11733803Y-77260996D01*
X11924582Y-77334905D01*
X11973999Y-77344142D01*
X11974000Y-77344142D01*
X11974000Y-76702174D01*
X12085685Y-76753180D01*
X12192237Y-76768500D01*
X12263763Y-76768500D01*
X12370315Y-76753180D01*
X12482000Y-76702174D01*
X12482000Y-77344142D01*
X12531417Y-77334905D01*
X12531418Y-77334905D01*
X12722196Y-77260996D01*
X12722203Y-77260993D01*
X12896161Y-77153284D01*
X13047362Y-77015446D01*
X13170659Y-76852172D01*
X13261859Y-76669019D01*
X13261861Y-76669014D01*
X13303549Y-76522500D01*
X12659116Y-76522500D01*
X12687493Y-76478344D01*
X12728000Y-76340389D01*
X12728000Y-76196611D01*
X12687493Y-76058656D01*
X12659116Y-76014500D01*
X13303549Y-76014500D01*
X13303549Y-76014499D01*
X13261861Y-75867985D01*
X13261859Y-75867980D01*
X13170659Y-75684827D01*
X13047362Y-75521553D01*
X12896161Y-75383715D01*
X12722203Y-75276006D01*
X12722196Y-75276003D01*
X12531424Y-75202096D01*
X12482000Y-75192857D01*
X12482000Y-75834825D01*
X12370315Y-75783820D01*
X12263763Y-75768500D01*
X12192237Y-75768500D01*
X12085685Y-75783820D01*
X11974000Y-75834825D01*
X11974000Y-75192857D01*
X11924575Y-75202096D01*
X11733803Y-75276003D01*
X11733796Y-75276006D01*
X11559838Y-75383715D01*
X11408637Y-75521553D01*
X11285340Y-75684827D01*
X11194140Y-75867980D01*
X11194138Y-75867985D01*
X11152450Y-76014499D01*
X10792499Y-76014499D01*
X10792499Y-75393434D01*
X10792498Y-75393430D01*
X10792498Y-75393426D01*
X10777734Y-75319199D01*
X10721483Y-75235015D01*
X10637302Y-75178766D01*
X10563067Y-75164000D01*
X8812936Y-75164000D01*
X8812926Y-75164001D01*
X8738699Y-75178765D01*
X8654515Y-75235016D01*
X8598266Y-75319197D01*
X8583500Y-75393430D01*
X8583500Y-77143563D01*
X7396112Y-77143563D01*
X7479798Y-76969788D01*
X7557308Y-76718508D01*
X7596500Y-76458482D01*
X7596500Y-76195518D01*
X7557308Y-75935492D01*
X7479798Y-75684212D01*
X7365702Y-75447290D01*
X7365700Y-75447287D01*
X7365696Y-75447280D01*
X7220976Y-75235016D01*
X7217570Y-75230020D01*
X7170013Y-75178766D01*
X7038714Y-75037257D01*
X7005550Y-75010809D01*
X6833117Y-74873299D01*
X6833112Y-74873296D01*
X6833113Y-74873296D01*
X6605381Y-74741815D01*
X6605377Y-74741813D01*
X6360602Y-74645747D01*
X6360599Y-74645746D01*
X6175009Y-74603386D01*
X62245500Y-74603386D01*
X62245501Y-74603396D01*
X62260265Y-74677623D01*
X62316516Y-74761807D01*
X62400697Y-74818056D01*
X62400699Y-74818057D01*
X62474933Y-74832823D01*
X64525066Y-74832822D01*
X64525069Y-74832821D01*
X64525073Y-74832821D01*
X64574326Y-74823024D01*
X64599301Y-74818057D01*
X64683484Y-74761807D01*
X64739734Y-74677624D01*
X64754500Y-74603390D01*
X64754499Y-73152000D01*
X67990255Y-73152000D01*
X68010349Y-73304635D01*
X68010350Y-73304637D01*
X68069266Y-73446873D01*
X68162987Y-73569013D01*
X68285127Y-73662734D01*
X68427363Y-73721650D01*
X68580000Y-73741745D01*
X68732637Y-73721650D01*
X68874873Y-73662734D01*
X68997013Y-73569013D01*
X69090734Y-73446873D01*
X69149650Y-73304637D01*
X69169745Y-73152000D01*
X69149650Y-72999363D01*
X69090734Y-72857128D01*
X68997013Y-72734987D01*
X68874873Y-72641266D01*
X68854162Y-72632687D01*
X68732635Y-72582349D01*
X68580000Y-72562255D01*
X68427364Y-72582349D01*
X68285129Y-72641265D01*
X68285121Y-72641270D01*
X68162986Y-72734986D01*
X68069270Y-72857121D01*
X68069265Y-72857129D01*
X68010349Y-72999364D01*
X67990255Y-73151999D01*
X67990255Y-73152000D01*
X64754499Y-73152000D01*
X64754499Y-72553257D01*
X64754498Y-72553253D01*
X64754498Y-72553249D01*
X64739734Y-72479022D01*
X64683483Y-72394838D01*
X64599302Y-72338589D01*
X64525067Y-72323823D01*
X62474936Y-72323823D01*
X62474926Y-72323824D01*
X62400699Y-72338588D01*
X62316515Y-72394839D01*
X62260266Y-72479020D01*
X62245500Y-72553253D01*
X62245500Y-74603386D01*
X6175009Y-74603386D01*
X6104230Y-74587231D01*
X5907657Y-74572500D01*
X5907654Y-74572500D01*
X5776346Y-74572500D01*
X5776343Y-74572500D01*
X5579769Y-74587231D01*
X5323400Y-74645746D01*
X5323397Y-74645747D01*
X5078622Y-74741813D01*
X5078618Y-74741815D01*
X4850886Y-74873296D01*
X4645285Y-75037257D01*
X4466435Y-75230014D01*
X4466425Y-75230026D01*
X4318303Y-75447280D01*
X4318299Y-75447287D01*
X4204204Y-75684206D01*
X4126693Y-75935485D01*
X4126692Y-75935491D01*
X4126692Y-75935492D01*
X4087500Y-76195518D01*
X4087500Y-76458482D01*
X254000Y-76458482D01*
X254000Y-70935081D01*
X74817766Y-70935081D01*
X74847968Y-71209565D01*
X74847969Y-71209570D01*
X74917813Y-71476729D01*
X75025812Y-71730871D01*
X75025813Y-71730872D01*
X75169666Y-71966584D01*
X75346305Y-72178839D01*
X75551967Y-72363112D01*
X75782268Y-72515478D01*
X75782277Y-72515482D01*
X75782280Y-72515484D01*
X76032296Y-72632687D01*
X76032298Y-72632687D01*
X76032299Y-72632688D01*
X76296732Y-72712244D01*
X76296735Y-72712244D01*
X76296737Y-72712245D01*
X76569926Y-72752450D01*
X76569930Y-72752450D01*
X76776945Y-72752450D01*
X76845763Y-72747413D01*
X76983404Y-72737339D01*
X77252938Y-72677298D01*
X77510858Y-72578652D01*
X77751666Y-72443504D01*
X77970231Y-72274734D01*
X78161893Y-72075939D01*
X78322568Y-71851357D01*
X78384514Y-71730872D01*
X78448831Y-71605773D01*
X78448832Y-71605771D01*
X78537990Y-71344427D01*
X78537992Y-71344422D01*
X78588149Y-71072875D01*
X78598234Y-70796919D01*
X78568032Y-70522435D01*
X78498187Y-70255273D01*
X78390187Y-70001128D01*
X78246334Y-69765416D01*
X78069695Y-69553161D01*
X77864033Y-69368888D01*
X77633732Y-69216522D01*
X77633724Y-69216518D01*
X77633719Y-69216515D01*
X77383703Y-69099312D01*
X77119262Y-69019754D01*
X76846073Y-68979550D01*
X76846070Y-68979550D01*
X76639057Y-68979550D01*
X76639055Y-68979550D01*
X76432599Y-68994660D01*
X76163058Y-69054703D01*
X76163056Y-69054704D01*
X75905141Y-69153348D01*
X75664340Y-69288492D01*
X75664336Y-69288494D01*
X75445767Y-69457267D01*
X75445766Y-69457268D01*
X75254108Y-69656059D01*
X75254103Y-69656065D01*
X75093434Y-69880639D01*
X75093427Y-69880649D01*
X74967168Y-70126226D01*
X74967167Y-70126228D01*
X74878009Y-70387572D01*
X74878006Y-70387585D01*
X74827851Y-70659116D01*
X74827850Y-70659126D01*
X74817766Y-70935081D01*
X254000Y-70935081D01*
X254000Y-68326003D01*
X24848398Y-68326003D01*
X24868756Y-68532711D01*
X24929055Y-68731492D01*
X25026974Y-68914686D01*
X25158747Y-69075252D01*
X25319313Y-69207024D01*
X25319313Y-69207025D01*
X25319317Y-69207027D01*
X25502508Y-69304945D01*
X25701282Y-69365242D01*
X25701286Y-69365242D01*
X25701288Y-69365243D01*
X25907997Y-69385602D01*
X25908000Y-69385602D01*
X25908003Y-69385602D01*
X26114711Y-69365243D01*
X26114712Y-69365242D01*
X26114718Y-69365242D01*
X26313492Y-69304945D01*
X26496683Y-69207027D01*
X26496684Y-69207025D01*
X26496686Y-69207025D01*
X26496686Y-69207024D01*
X26564875Y-69151063D01*
X40093500Y-69151063D01*
X40093501Y-69151073D01*
X40108265Y-69225300D01*
X40164516Y-69309484D01*
X40248697Y-69365733D01*
X40248699Y-69365734D01*
X40322933Y-69380500D01*
X41973066Y-69380499D01*
X41973069Y-69380498D01*
X41973073Y-69380498D01*
X42031453Y-69368886D01*
X42047301Y-69365734D01*
X42131484Y-69309484D01*
X42187734Y-69225301D01*
X42202500Y-69151067D01*
X42202499Y-67500934D01*
X42202498Y-67500930D01*
X42202498Y-67500926D01*
X42187734Y-67426699D01*
X42187733Y-67426697D01*
X42131484Y-67342516D01*
X42131483Y-67342515D01*
X42047302Y-67286266D01*
X41973067Y-67271500D01*
X40322936Y-67271500D01*
X40322926Y-67271501D01*
X40248699Y-67286265D01*
X40164515Y-67342516D01*
X40108266Y-67426697D01*
X40093500Y-67500930D01*
X40093500Y-69151063D01*
X26564875Y-69151063D01*
X26657252Y-69075252D01*
X26789027Y-68914683D01*
X26886945Y-68731492D01*
X26947242Y-68532718D01*
X26967602Y-68326000D01*
X26947242Y-68119282D01*
X26886945Y-67920508D01*
X26789027Y-67737317D01*
X26789025Y-67737313D01*
X26657252Y-67576747D01*
X26496686Y-67444975D01*
X26496686Y-67444974D01*
X26313492Y-67347055D01*
X26298529Y-67342516D01*
X26114718Y-67286758D01*
X26114717Y-67286757D01*
X26114711Y-67286756D01*
X25908003Y-67266398D01*
X25907997Y-67266398D01*
X25701288Y-67286756D01*
X25502507Y-67347055D01*
X25319313Y-67444974D01*
X25319313Y-67444975D01*
X25158747Y-67576747D01*
X25026975Y-67737313D01*
X25026974Y-67737313D01*
X24929055Y-67920507D01*
X24868756Y-68119288D01*
X24848398Y-68325996D01*
X24848398Y-68326003D01*
X254000Y-68326003D01*
X254000Y-67056000D01*
X42590255Y-67056000D01*
X42610349Y-67208635D01*
X42667685Y-67347055D01*
X42669266Y-67350873D01*
X42762987Y-67473013D01*
X42885127Y-67566734D01*
X43027363Y-67625650D01*
X43180000Y-67645745D01*
X43332637Y-67625650D01*
X43474873Y-67566734D01*
X43597013Y-67473013D01*
X43690734Y-67350873D01*
X43749650Y-67208637D01*
X43769745Y-67056000D01*
X49956255Y-67056000D01*
X49976349Y-67208635D01*
X50033685Y-67347055D01*
X50035266Y-67350873D01*
X50128987Y-67473013D01*
X50251127Y-67566734D01*
X50393363Y-67625650D01*
X50546000Y-67645745D01*
X50698637Y-67625650D01*
X50840873Y-67566734D01*
X50963013Y-67473013D01*
X51056734Y-67350873D01*
X51115650Y-67208637D01*
X51135745Y-67056000D01*
X51115650Y-66903363D01*
X51056734Y-66761128D01*
X50963013Y-66638987D01*
X50840873Y-66545266D01*
X50698637Y-66486350D01*
X50698635Y-66486349D01*
X50546000Y-66466255D01*
X50393364Y-66486349D01*
X50251129Y-66545265D01*
X50251121Y-66545270D01*
X50128986Y-66638986D01*
X50035270Y-66761121D01*
X50035265Y-66761129D01*
X49976349Y-66903364D01*
X49956255Y-67055999D01*
X49956255Y-67056000D01*
X43769745Y-67056000D01*
X43749650Y-66903363D01*
X43690734Y-66761128D01*
X43597013Y-66638987D01*
X43474873Y-66545266D01*
X43332637Y-66486350D01*
X43332635Y-66486349D01*
X43180000Y-66466255D01*
X43027364Y-66486349D01*
X42885129Y-66545265D01*
X42885121Y-66545270D01*
X42762986Y-66638986D01*
X42669270Y-66761121D01*
X42669265Y-66761129D01*
X42610349Y-66903364D01*
X42590255Y-67055999D01*
X42590255Y-67056000D01*
X254000Y-67056000D01*
X254000Y-66040000D01*
X24883623Y-66040000D01*
X24929519Y-66191300D01*
X25027389Y-66374401D01*
X25159103Y-66534896D01*
X25319598Y-66666610D01*
X25502699Y-66764480D01*
X25654000Y-66810376D01*
X25654000Y-66219674D01*
X25765685Y-66270680D01*
X25872237Y-66286000D01*
X25943763Y-66286000D01*
X26050315Y-66270680D01*
X26162000Y-66219674D01*
X26162000Y-66810376D01*
X26313300Y-66764480D01*
X26496401Y-66666610D01*
X26656896Y-66534896D01*
X26788610Y-66374401D01*
X26886480Y-66191300D01*
X26932377Y-66040000D01*
X26339116Y-66040000D01*
X26367493Y-65995844D01*
X26408000Y-65857889D01*
X26408000Y-65786003D01*
X40088398Y-65786003D01*
X40108756Y-65992711D01*
X40169055Y-66191492D01*
X40266974Y-66374686D01*
X40398747Y-66535252D01*
X40559313Y-66667024D01*
X40559313Y-66667025D01*
X40559317Y-66667027D01*
X40742508Y-66764945D01*
X40941282Y-66825242D01*
X40941286Y-66825242D01*
X40941288Y-66825243D01*
X41147997Y-66845602D01*
X41148000Y-66845602D01*
X41148003Y-66845602D01*
X41354711Y-66825243D01*
X41354712Y-66825242D01*
X41354718Y-66825242D01*
X41553492Y-66764945D01*
X41736683Y-66667027D01*
X41736684Y-66667025D01*
X41736686Y-66667025D01*
X41736686Y-66667024D01*
X41897252Y-66535252D01*
X42029027Y-66374683D01*
X42126945Y-66191492D01*
X42187242Y-65992718D01*
X42207602Y-65786000D01*
X42187242Y-65579282D01*
X42126945Y-65380508D01*
X42029027Y-65197317D01*
X42029025Y-65197313D01*
X41897252Y-65036747D01*
X41736686Y-64904975D01*
X41736686Y-64904974D01*
X41553492Y-64807055D01*
X41354711Y-64746756D01*
X41148003Y-64726398D01*
X41147997Y-64726398D01*
X40941288Y-64746756D01*
X40742507Y-64807055D01*
X40559313Y-64904974D01*
X40559313Y-64904975D01*
X40398747Y-65036747D01*
X40266975Y-65197313D01*
X40266974Y-65197313D01*
X40169055Y-65380507D01*
X40108756Y-65579288D01*
X40088398Y-65785996D01*
X40088398Y-65786003D01*
X26408000Y-65786003D01*
X26408000Y-65714111D01*
X26367493Y-65576156D01*
X26339116Y-65532000D01*
X26932376Y-65532000D01*
X26886480Y-65380699D01*
X26788610Y-65197598D01*
X26656896Y-65037103D01*
X26496401Y-64905389D01*
X26313301Y-64807519D01*
X26313299Y-64807518D01*
X26162000Y-64761621D01*
X26162000Y-65352325D01*
X26050315Y-65301320D01*
X25943763Y-65286000D01*
X25872237Y-65286000D01*
X25765685Y-65301320D01*
X25654000Y-65352325D01*
X25654000Y-64761622D01*
X25653999Y-64761621D01*
X25502700Y-64807518D01*
X25502698Y-64807519D01*
X25319598Y-64905389D01*
X25159103Y-65037103D01*
X25027389Y-65197598D01*
X24929519Y-65380699D01*
X24883623Y-65532000D01*
X25476884Y-65532000D01*
X25448507Y-65576156D01*
X25408000Y-65714111D01*
X25408000Y-65857889D01*
X25448507Y-65995844D01*
X25476884Y-66040000D01*
X24883623Y-66040000D01*
X254000Y-66040000D01*
X254000Y-63246003D01*
X24848398Y-63246003D01*
X24868756Y-63452711D01*
X24929055Y-63651492D01*
X25026974Y-63834686D01*
X25158747Y-63995252D01*
X25319313Y-64127024D01*
X25319313Y-64127025D01*
X25319317Y-64127027D01*
X25502508Y-64224945D01*
X25701282Y-64285242D01*
X25701286Y-64285242D01*
X25701288Y-64285243D01*
X25907997Y-64305602D01*
X25908000Y-64305602D01*
X25908003Y-64305602D01*
X26114711Y-64285243D01*
X26114712Y-64285242D01*
X26114718Y-64285242D01*
X26313492Y-64224945D01*
X26496683Y-64127027D01*
X26496684Y-64127025D01*
X26496686Y-64127025D01*
X26496686Y-64127024D01*
X26657252Y-63995252D01*
X26789027Y-63834683D01*
X26886945Y-63651492D01*
X26947242Y-63452718D01*
X26967602Y-63246003D01*
X40088398Y-63246003D01*
X40108756Y-63452711D01*
X40169055Y-63651492D01*
X40266974Y-63834686D01*
X40398747Y-63995252D01*
X40559313Y-64127024D01*
X40559313Y-64127025D01*
X40559317Y-64127027D01*
X40742508Y-64224945D01*
X40941282Y-64285242D01*
X40941286Y-64285242D01*
X40941288Y-64285243D01*
X41147997Y-64305602D01*
X41148000Y-64305602D01*
X41148003Y-64305602D01*
X41354711Y-64285243D01*
X41354712Y-64285242D01*
X41354718Y-64285242D01*
X41553492Y-64224945D01*
X41736683Y-64127027D01*
X41736684Y-64127025D01*
X41736686Y-64127025D01*
X41736686Y-64127024D01*
X41897252Y-63995252D01*
X42029027Y-63834683D01*
X42126945Y-63651492D01*
X42187242Y-63452718D01*
X42207602Y-63246000D01*
X42187242Y-63039282D01*
X42126945Y-62840508D01*
X42029027Y-62657317D01*
X42029025Y-62657313D01*
X41897252Y-62496747D01*
X41736686Y-62364975D01*
X41736686Y-62364974D01*
X41553492Y-62267055D01*
X41354711Y-62206756D01*
X41148003Y-62186398D01*
X41147997Y-62186398D01*
X40941288Y-62206756D01*
X40742507Y-62267055D01*
X40559313Y-62364974D01*
X40559313Y-62364975D01*
X40398747Y-62496747D01*
X40266975Y-62657313D01*
X40266974Y-62657313D01*
X40169055Y-62840507D01*
X40108756Y-63039288D01*
X40088398Y-63245996D01*
X40088398Y-63246003D01*
X26967602Y-63246003D01*
X26967602Y-63246000D01*
X26947242Y-63039282D01*
X26886945Y-62840508D01*
X26789027Y-62657317D01*
X26789025Y-62657313D01*
X26657252Y-62496747D01*
X26496686Y-62364975D01*
X26496686Y-62364974D01*
X26313492Y-62267055D01*
X26114711Y-62206756D01*
X25908003Y-62186398D01*
X25907997Y-62186398D01*
X25701288Y-62206756D01*
X25502507Y-62267055D01*
X25319313Y-62364974D01*
X25319313Y-62364975D01*
X25158747Y-62496747D01*
X25026975Y-62657313D01*
X25026974Y-62657313D01*
X24929055Y-62840507D01*
X24868756Y-63039288D01*
X24848398Y-63245996D01*
X24848398Y-63246003D01*
X254000Y-63246003D01*
X254000Y-60706003D01*
X24848398Y-60706003D01*
X24868756Y-60912711D01*
X24929055Y-61111492D01*
X25026974Y-61294686D01*
X25158747Y-61455252D01*
X25319313Y-61587024D01*
X25319313Y-61587025D01*
X25319317Y-61587027D01*
X25502508Y-61684945D01*
X25701282Y-61745242D01*
X25701286Y-61745242D01*
X25701288Y-61745243D01*
X25907997Y-61765602D01*
X25908000Y-61765602D01*
X25908003Y-61765602D01*
X26114711Y-61745243D01*
X26114712Y-61745242D01*
X26114718Y-61745242D01*
X26313492Y-61684945D01*
X26496683Y-61587027D01*
X26496684Y-61587025D01*
X26496686Y-61587025D01*
X26496686Y-61587024D01*
X26657252Y-61455252D01*
X26789027Y-61294683D01*
X26886945Y-61111492D01*
X26932899Y-60960000D01*
X40123623Y-60960000D01*
X40169519Y-61111300D01*
X40267389Y-61294401D01*
X40399103Y-61454896D01*
X40559598Y-61586610D01*
X40742699Y-61684480D01*
X40894000Y-61730376D01*
X40894000Y-61139674D01*
X41005685Y-61190680D01*
X41112237Y-61206000D01*
X41183763Y-61206000D01*
X41290315Y-61190680D01*
X41402000Y-61139674D01*
X41402000Y-61730376D01*
X41553300Y-61684480D01*
X41736401Y-61586610D01*
X41896896Y-61454896D01*
X42028610Y-61294401D01*
X42126480Y-61111300D01*
X42172377Y-60960000D01*
X41579116Y-60960000D01*
X41607493Y-60915844D01*
X41648000Y-60777889D01*
X41648000Y-60634111D01*
X41607493Y-60496156D01*
X41579116Y-60452000D01*
X42172376Y-60452000D01*
X42126480Y-60300699D01*
X42028610Y-60117598D01*
X41896896Y-59957103D01*
X41736401Y-59825389D01*
X41553301Y-59727519D01*
X41553299Y-59727518D01*
X41402000Y-59681621D01*
X41402000Y-60272325D01*
X41290315Y-60221320D01*
X41183763Y-60206000D01*
X41112237Y-60206000D01*
X41005685Y-60221320D01*
X40894000Y-60272325D01*
X40894000Y-59681622D01*
X40893999Y-59681621D01*
X40742700Y-59727518D01*
X40742698Y-59727519D01*
X40559598Y-59825389D01*
X40399103Y-59957103D01*
X40267389Y-60117598D01*
X40169519Y-60300699D01*
X40123623Y-60452000D01*
X40716884Y-60452000D01*
X40688507Y-60496156D01*
X40648000Y-60634111D01*
X40648000Y-60777889D01*
X40688507Y-60915844D01*
X40716884Y-60960000D01*
X40123623Y-60960000D01*
X26932899Y-60960000D01*
X26947242Y-60912718D01*
X26967602Y-60706000D01*
X26947242Y-60499282D01*
X26886945Y-60300508D01*
X26789027Y-60117317D01*
X26789025Y-60117313D01*
X26657252Y-59956747D01*
X26496686Y-59824975D01*
X26496686Y-59824974D01*
X26313492Y-59727055D01*
X26140240Y-59674500D01*
X26114718Y-59666758D01*
X26114717Y-59666757D01*
X26114711Y-59666756D01*
X25908003Y-59646398D01*
X25907997Y-59646398D01*
X25701288Y-59666756D01*
X25502507Y-59727055D01*
X25319313Y-59824974D01*
X25319313Y-59824975D01*
X25158747Y-59956747D01*
X25026975Y-60117313D01*
X25026974Y-60117313D01*
X24929055Y-60300507D01*
X24868756Y-60499288D01*
X24848398Y-60705996D01*
X24848398Y-60706003D01*
X254000Y-60706003D01*
X254000Y-58166003D01*
X24848398Y-58166003D01*
X24868756Y-58372711D01*
X24868757Y-58372717D01*
X24868758Y-58372718D01*
X24883101Y-58420000D01*
X24929055Y-58571492D01*
X25026974Y-58754686D01*
X25158747Y-58915252D01*
X25319313Y-59047024D01*
X25319313Y-59047025D01*
X25323753Y-59049398D01*
X25502508Y-59144945D01*
X25701282Y-59205242D01*
X25701286Y-59205242D01*
X25701288Y-59205243D01*
X25907997Y-59225602D01*
X25908000Y-59225602D01*
X25908003Y-59225602D01*
X26114711Y-59205243D01*
X26114712Y-59205242D01*
X26114718Y-59205242D01*
X26313492Y-59144945D01*
X26496683Y-59047027D01*
X26496684Y-59047025D01*
X26496686Y-59047025D01*
X26496686Y-59047024D01*
X26657252Y-58915252D01*
X26789027Y-58754683D01*
X26886945Y-58571492D01*
X26947242Y-58372718D01*
X26967602Y-58166003D01*
X40088398Y-58166003D01*
X40108756Y-58372711D01*
X40108757Y-58372717D01*
X40108758Y-58372718D01*
X40123101Y-58420000D01*
X40169055Y-58571492D01*
X40266974Y-58754686D01*
X40398747Y-58915252D01*
X40559313Y-59047024D01*
X40559313Y-59047025D01*
X40563753Y-59049398D01*
X40742508Y-59144945D01*
X40941282Y-59205242D01*
X40941286Y-59205242D01*
X40941288Y-59205243D01*
X41147997Y-59225602D01*
X41148000Y-59225602D01*
X41148003Y-59225602D01*
X41354711Y-59205243D01*
X41354712Y-59205242D01*
X41354718Y-59205242D01*
X41553492Y-59144945D01*
X41736683Y-59047027D01*
X41736684Y-59047025D01*
X41736686Y-59047025D01*
X41736686Y-59047024D01*
X41897252Y-58915252D01*
X42029027Y-58754683D01*
X42126945Y-58571492D01*
X42172899Y-58420000D01*
X49194887Y-58420000D01*
X49214011Y-58638590D01*
X49270800Y-58850529D01*
X49270802Y-58850534D01*
X49363534Y-59049398D01*
X49405348Y-59109115D01*
X49405349Y-59109115D01*
X49969315Y-58545149D01*
X49994184Y-58629844D01*
X50071916Y-58750798D01*
X50180577Y-58844952D01*
X50311362Y-58904680D01*
X50326089Y-58906797D01*
X49764560Y-59468325D01*
X49764560Y-59468327D01*
X49824277Y-59510141D01*
X49824282Y-59510144D01*
X50023142Y-59602874D01*
X50023147Y-59602876D01*
X50235086Y-59659665D01*
X50453677Y-59678789D01*
X50672267Y-59659665D01*
X50884206Y-59602876D01*
X50884211Y-59602874D01*
X51083068Y-59510145D01*
X51142792Y-59468325D01*
X51142792Y-59468324D01*
X51119531Y-59445063D01*
X54199177Y-59445063D01*
X54199178Y-59445073D01*
X54213942Y-59519300D01*
X54270193Y-59603484D01*
X54354374Y-59659733D01*
X54354376Y-59659734D01*
X54428610Y-59674500D01*
X56478743Y-59674499D01*
X56478746Y-59674498D01*
X56478750Y-59674498D01*
X56528003Y-59664701D01*
X56552978Y-59659734D01*
X56637161Y-59603484D01*
X56693411Y-59519301D01*
X56708177Y-59445067D01*
X56708176Y-57394934D01*
X56708175Y-57394930D01*
X56708175Y-57394926D01*
X56693411Y-57320699D01*
X56637568Y-57237125D01*
X56637161Y-57236516D01*
X56637160Y-57236515D01*
X56552979Y-57180266D01*
X56478744Y-57165500D01*
X54428613Y-57165500D01*
X54428603Y-57165501D01*
X54354376Y-57180265D01*
X54270192Y-57236516D01*
X54213943Y-57320697D01*
X54199177Y-57394930D01*
X54199177Y-59445063D01*
X51119531Y-59445063D01*
X50581265Y-58906797D01*
X50595992Y-58904680D01*
X50726777Y-58844952D01*
X50835438Y-58750798D01*
X50913170Y-58629844D01*
X50938037Y-58545151D01*
X51502001Y-59109115D01*
X51502002Y-59109115D01*
X51543822Y-59049391D01*
X51636551Y-58850534D01*
X51636553Y-58850529D01*
X51693342Y-58638590D01*
X51712466Y-58420000D01*
X51693342Y-58201409D01*
X51636553Y-57989470D01*
X51636551Y-57989465D01*
X51543821Y-57790605D01*
X51543818Y-57790600D01*
X51502004Y-57730883D01*
X51502002Y-57730883D01*
X50938037Y-58294848D01*
X50913170Y-58210156D01*
X50835438Y-58089202D01*
X50726777Y-57995048D01*
X50595992Y-57935320D01*
X50581264Y-57933202D01*
X51142792Y-57371672D01*
X51142792Y-57371671D01*
X51083075Y-57329857D01*
X51083076Y-57329857D01*
X50884211Y-57237125D01*
X50884206Y-57237123D01*
X50672267Y-57180334D01*
X50453677Y-57161210D01*
X50235086Y-57180334D01*
X50023147Y-57237123D01*
X50023142Y-57237125D01*
X49824282Y-57329855D01*
X49764559Y-57371673D01*
X50326088Y-57933202D01*
X50311362Y-57935320D01*
X50180577Y-57995048D01*
X50071916Y-58089202D01*
X49994184Y-58210156D01*
X49969316Y-58294848D01*
X49405350Y-57730882D01*
X49363532Y-57790605D01*
X49270802Y-57989465D01*
X49270800Y-57989470D01*
X49214011Y-58201409D01*
X49194887Y-58420000D01*
X42172899Y-58420000D01*
X42187242Y-58372718D01*
X42207602Y-58166000D01*
X42190765Y-57995048D01*
X42187243Y-57959288D01*
X42187242Y-57959286D01*
X42187242Y-57959282D01*
X42126945Y-57760508D01*
X42029027Y-57577317D01*
X42029025Y-57577313D01*
X41897252Y-57416747D01*
X41736686Y-57284975D01*
X41736686Y-57284974D01*
X41553492Y-57187055D01*
X41531336Y-57180334D01*
X41354718Y-57126758D01*
X41354717Y-57126757D01*
X41354711Y-57126756D01*
X41148003Y-57106398D01*
X41147997Y-57106398D01*
X40941288Y-57126756D01*
X40742507Y-57187055D01*
X40559313Y-57284974D01*
X40559313Y-57284975D01*
X40398747Y-57416747D01*
X40266975Y-57577313D01*
X40266974Y-57577313D01*
X40169055Y-57760507D01*
X40108756Y-57959288D01*
X40088398Y-58165996D01*
X40088398Y-58166003D01*
X26967602Y-58166003D01*
X26967602Y-58166000D01*
X26950765Y-57995048D01*
X26947243Y-57959288D01*
X26947242Y-57959286D01*
X26947242Y-57959282D01*
X26886945Y-57760508D01*
X26789027Y-57577317D01*
X26789025Y-57577313D01*
X26657252Y-57416747D01*
X26496686Y-57284975D01*
X26496686Y-57284974D01*
X26313492Y-57187055D01*
X26291336Y-57180334D01*
X26114718Y-57126758D01*
X26114717Y-57126757D01*
X26114711Y-57126756D01*
X25908003Y-57106398D01*
X25907997Y-57106398D01*
X25701288Y-57126756D01*
X25502507Y-57187055D01*
X25319313Y-57284974D01*
X25319313Y-57284975D01*
X25158747Y-57416747D01*
X25026975Y-57577313D01*
X25026974Y-57577313D01*
X24929055Y-57760507D01*
X24868756Y-57959288D01*
X24848398Y-58165996D01*
X24848398Y-58166003D01*
X254000Y-58166003D01*
X254000Y-55626003D01*
X24848398Y-55626003D01*
X24868756Y-55832711D01*
X24929055Y-56031492D01*
X25026974Y-56214686D01*
X25158747Y-56375252D01*
X25319313Y-56507024D01*
X25319313Y-56507025D01*
X25319317Y-56507027D01*
X25502508Y-56604945D01*
X25701282Y-56665242D01*
X25701286Y-56665242D01*
X25701288Y-56665243D01*
X25907997Y-56685602D01*
X25908000Y-56685602D01*
X25908003Y-56685602D01*
X26114711Y-56665243D01*
X26114712Y-56665242D01*
X26114718Y-56665242D01*
X26313492Y-56604945D01*
X26496683Y-56507027D01*
X26496684Y-56507025D01*
X26496686Y-56507025D01*
X26496686Y-56507024D01*
X26657252Y-56375252D01*
X26789027Y-56214683D01*
X26886945Y-56031492D01*
X26947242Y-55832718D01*
X26967602Y-55626003D01*
X40088398Y-55626003D01*
X40108756Y-55832711D01*
X40169055Y-56031492D01*
X40266974Y-56214686D01*
X40398747Y-56375252D01*
X40559313Y-56507024D01*
X40559313Y-56507025D01*
X40559317Y-56507027D01*
X40742508Y-56604945D01*
X40941282Y-56665242D01*
X40941286Y-56665242D01*
X40941288Y-56665243D01*
X41147997Y-56685602D01*
X41148000Y-56685602D01*
X41148003Y-56685602D01*
X41354711Y-56665243D01*
X41354712Y-56665242D01*
X41354718Y-56665242D01*
X41553492Y-56604945D01*
X41736683Y-56507027D01*
X41736684Y-56507025D01*
X41736686Y-56507025D01*
X41736686Y-56507024D01*
X41897252Y-56375252D01*
X42029027Y-56214683D01*
X42126945Y-56031492D01*
X42187242Y-55832718D01*
X42207602Y-55626000D01*
X42187242Y-55419282D01*
X42126945Y-55220508D01*
X42029027Y-55037317D01*
X42029025Y-55037313D01*
X41897252Y-54876747D01*
X41736686Y-54744975D01*
X41736686Y-54744974D01*
X41553492Y-54647055D01*
X41354711Y-54586756D01*
X41148003Y-54566398D01*
X41147997Y-54566398D01*
X40941288Y-54586756D01*
X40742507Y-54647055D01*
X40559313Y-54744974D01*
X40559313Y-54744975D01*
X40398747Y-54876747D01*
X40266975Y-55037313D01*
X40266974Y-55037313D01*
X40169055Y-55220507D01*
X40108756Y-55419288D01*
X40088398Y-55625996D01*
X40088398Y-55626003D01*
X26967602Y-55626003D01*
X26967602Y-55626000D01*
X26947242Y-55419282D01*
X26886945Y-55220508D01*
X26789027Y-55037317D01*
X26789025Y-55037313D01*
X26657252Y-54876747D01*
X26496686Y-54744975D01*
X26496686Y-54744974D01*
X26313492Y-54647055D01*
X26114711Y-54586756D01*
X25908003Y-54566398D01*
X25907997Y-54566398D01*
X25701288Y-54586756D01*
X25502507Y-54647055D01*
X25319313Y-54744974D01*
X25319313Y-54744975D01*
X25158747Y-54876747D01*
X25026975Y-55037313D01*
X25026974Y-55037313D01*
X24929055Y-55220507D01*
X24868756Y-55419288D01*
X24848398Y-55625996D01*
X24848398Y-55626003D01*
X254000Y-55626003D01*
X254000Y-54345140D01*
X69865500Y-54345140D01*
X69865501Y-54345150D01*
X69880265Y-54419377D01*
X69936516Y-54503561D01*
X70020697Y-54559810D01*
X70020699Y-54559811D01*
X70094933Y-54574577D01*
X72145066Y-54574576D01*
X72145069Y-54574575D01*
X72145073Y-54574575D01*
X72194326Y-54564778D01*
X72219301Y-54559811D01*
X72303484Y-54503561D01*
X72359734Y-54419378D01*
X72374500Y-54345144D01*
X72374499Y-53090482D01*
X76350500Y-53090482D01*
X76380981Y-53292711D01*
X76389692Y-53350506D01*
X76389693Y-53350514D01*
X76467204Y-53601793D01*
X76581299Y-53838712D01*
X76581303Y-53838719D01*
X76729425Y-54055973D01*
X76729430Y-54055980D01*
X76768549Y-54098141D01*
X76908285Y-54248742D01*
X76908289Y-54248745D01*
X76908290Y-54248746D01*
X77113883Y-54412701D01*
X77113886Y-54412703D01*
X77341618Y-54544184D01*
X77341622Y-54544186D01*
X77572899Y-54634954D01*
X77586402Y-54640254D01*
X77842772Y-54698769D01*
X77995150Y-54710188D01*
X78039343Y-54713500D01*
X78039346Y-54713500D01*
X78170657Y-54713500D01*
X78211768Y-54710418D01*
X78367228Y-54698769D01*
X78623598Y-54640254D01*
X78811781Y-54566398D01*
X78868377Y-54544186D01*
X78868381Y-54544184D01*
X78868380Y-54544184D01*
X78868384Y-54544183D01*
X79096117Y-54412701D01*
X79301710Y-54248746D01*
X79480570Y-54055980D01*
X79628702Y-53838710D01*
X79742798Y-53601788D01*
X79820308Y-53350508D01*
X79859500Y-53090482D01*
X79859500Y-52827518D01*
X79820308Y-52567492D01*
X79742798Y-52316212D01*
X79628702Y-52079290D01*
X79628700Y-52079287D01*
X79628696Y-52079280D01*
X79480574Y-51862026D01*
X79480570Y-51862020D01*
X79433626Y-51811426D01*
X79301714Y-51669257D01*
X79221893Y-51605602D01*
X79096117Y-51505299D01*
X79096112Y-51505296D01*
X79096113Y-51505296D01*
X78868381Y-51373815D01*
X78868377Y-51373813D01*
X78623602Y-51277747D01*
X78623599Y-51277746D01*
X78367230Y-51219231D01*
X78170657Y-51204500D01*
X78170654Y-51204500D01*
X78039346Y-51204500D01*
X78039343Y-51204500D01*
X77842769Y-51219231D01*
X77586400Y-51277746D01*
X77586397Y-51277747D01*
X77341622Y-51373813D01*
X77341618Y-51373815D01*
X77113886Y-51505296D01*
X76908285Y-51669257D01*
X76729435Y-51862014D01*
X76729425Y-51862026D01*
X76581303Y-52079280D01*
X76581299Y-52079287D01*
X76467204Y-52316206D01*
X76389693Y-52567485D01*
X76389692Y-52567491D01*
X76389692Y-52567492D01*
X76350500Y-52827518D01*
X76350500Y-53090482D01*
X72374499Y-53090482D01*
X72374499Y-52295011D01*
X72374498Y-52295007D01*
X72374498Y-52295003D01*
X72359734Y-52220776D01*
X72303483Y-52136592D01*
X72219302Y-52080343D01*
X72145067Y-52065577D01*
X70094936Y-52065577D01*
X70094926Y-52065578D01*
X70020699Y-52080342D01*
X69936515Y-52136593D01*
X69880266Y-52220774D01*
X69865500Y-52295007D01*
X69865500Y-54345140D01*
X254000Y-54345140D01*
X254000Y-53086003D01*
X24848398Y-53086003D01*
X24868756Y-53292711D01*
X24929055Y-53491492D01*
X25026974Y-53674686D01*
X25158747Y-53835252D01*
X25319313Y-53967024D01*
X25319313Y-53967025D01*
X25319317Y-53967027D01*
X25502508Y-54064945D01*
X25701282Y-54125242D01*
X25701286Y-54125242D01*
X25701288Y-54125243D01*
X25907997Y-54145602D01*
X25908000Y-54145602D01*
X25908003Y-54145602D01*
X26114711Y-54125243D01*
X26114712Y-54125242D01*
X26114718Y-54125242D01*
X26313492Y-54064945D01*
X26496683Y-53967027D01*
X26496684Y-53967025D01*
X26496686Y-53967025D01*
X26496686Y-53967024D01*
X26657252Y-53835252D01*
X26789027Y-53674683D01*
X26886945Y-53491492D01*
X26947242Y-53292718D01*
X26967602Y-53086003D01*
X40088398Y-53086003D01*
X40108756Y-53292711D01*
X40169055Y-53491492D01*
X40266974Y-53674686D01*
X40398747Y-53835252D01*
X40559313Y-53967024D01*
X40559313Y-53967025D01*
X40559317Y-53967027D01*
X40742508Y-54064945D01*
X40941282Y-54125242D01*
X40941286Y-54125242D01*
X40941288Y-54125243D01*
X41147997Y-54145602D01*
X41148000Y-54145602D01*
X41148003Y-54145602D01*
X41354711Y-54125243D01*
X41354712Y-54125242D01*
X41354718Y-54125242D01*
X41553492Y-54064945D01*
X41736683Y-53967027D01*
X41736684Y-53967025D01*
X41736686Y-53967025D01*
X41736686Y-53967024D01*
X41897252Y-53835252D01*
X42029027Y-53674683D01*
X42126945Y-53491492D01*
X42187242Y-53292718D01*
X42207602Y-53086000D01*
X42187242Y-52879282D01*
X42126945Y-52680508D01*
X42029027Y-52497317D01*
X42029025Y-52497313D01*
X41897252Y-52336747D01*
X41736686Y-52204975D01*
X41736686Y-52204974D01*
X41553492Y-52107055D01*
X41461962Y-52079290D01*
X41354718Y-52046758D01*
X41354717Y-52046757D01*
X41354711Y-52046756D01*
X41148003Y-52026398D01*
X41147997Y-52026398D01*
X40941288Y-52046756D01*
X40742507Y-52107055D01*
X40559313Y-52204974D01*
X40559313Y-52204975D01*
X40398747Y-52336747D01*
X40266975Y-52497313D01*
X40266974Y-52497313D01*
X40169055Y-52680507D01*
X40108756Y-52879288D01*
X40088398Y-53085996D01*
X40088398Y-53086003D01*
X26967602Y-53086003D01*
X26967602Y-53086000D01*
X26947242Y-52879282D01*
X26886945Y-52680508D01*
X26789027Y-52497317D01*
X26789025Y-52497313D01*
X26657252Y-52336747D01*
X26496686Y-52204975D01*
X26496686Y-52204974D01*
X26313492Y-52107055D01*
X26221962Y-52079290D01*
X26114718Y-52046758D01*
X26114717Y-52046757D01*
X26114711Y-52046756D01*
X25908003Y-52026398D01*
X25907997Y-52026398D01*
X25701288Y-52046756D01*
X25502507Y-52107055D01*
X25319313Y-52204974D01*
X25319313Y-52204975D01*
X25158747Y-52336747D01*
X25026975Y-52497313D01*
X25026974Y-52497313D01*
X24929055Y-52680507D01*
X24868756Y-52879288D01*
X24848398Y-53085996D01*
X24848398Y-53086003D01*
X254000Y-53086003D01*
X254000Y-51816000D01*
X22778255Y-51816000D01*
X22798349Y-51968635D01*
X22855685Y-52107055D01*
X22857266Y-52110873D01*
X22950987Y-52233013D01*
X23073127Y-52326734D01*
X23215363Y-52385650D01*
X23368000Y-52405745D01*
X23520637Y-52385650D01*
X23662873Y-52326734D01*
X23785013Y-52233013D01*
X23878734Y-52110873D01*
X23937650Y-51968637D01*
X23957745Y-51816000D01*
X23937650Y-51663363D01*
X23878734Y-51521128D01*
X23785013Y-51398987D01*
X23662873Y-51305266D01*
X23596437Y-51277747D01*
X23520635Y-51246349D01*
X23368000Y-51226255D01*
X23215364Y-51246349D01*
X23073129Y-51305265D01*
X23073121Y-51305270D01*
X22950986Y-51398986D01*
X22857270Y-51521121D01*
X22857265Y-51521129D01*
X22798349Y-51663364D01*
X22778255Y-51815999D01*
X22778255Y-51816000D01*
X254000Y-51816000D01*
X254000Y-50546003D01*
X24848398Y-50546003D01*
X24868756Y-50752711D01*
X24868757Y-50752717D01*
X24868758Y-50752718D01*
X24883930Y-50802734D01*
X24929055Y-50951492D01*
X25026974Y-51134686D01*
X25158747Y-51295252D01*
X25319313Y-51427024D01*
X25319313Y-51427025D01*
X25319317Y-51427027D01*
X25502508Y-51524945D01*
X25701282Y-51585242D01*
X25701286Y-51585242D01*
X25701288Y-51585243D01*
X25907997Y-51605602D01*
X25908000Y-51605602D01*
X25908003Y-51605602D01*
X26114711Y-51585243D01*
X26114712Y-51585242D01*
X26114718Y-51585242D01*
X26313492Y-51524945D01*
X26496683Y-51427027D01*
X26496684Y-51427025D01*
X26496686Y-51427025D01*
X26496686Y-51427024D01*
X26657252Y-51295252D01*
X26789027Y-51134683D01*
X26886945Y-50951492D01*
X26947242Y-50752718D01*
X26963577Y-50586874D01*
X26967602Y-50546003D01*
X40088398Y-50546003D01*
X40108756Y-50752711D01*
X40108757Y-50752717D01*
X40108758Y-50752718D01*
X40123930Y-50802734D01*
X40169055Y-50951492D01*
X40266974Y-51134686D01*
X40398747Y-51295252D01*
X40559313Y-51427024D01*
X40559313Y-51427025D01*
X40559317Y-51427027D01*
X40742508Y-51524945D01*
X40941282Y-51585242D01*
X40941286Y-51585242D01*
X40941288Y-51585243D01*
X41147997Y-51605602D01*
X41148000Y-51605602D01*
X41148003Y-51605602D01*
X41354711Y-51585243D01*
X41354712Y-51585242D01*
X41354718Y-51585242D01*
X41553492Y-51524945D01*
X41736683Y-51427027D01*
X41736684Y-51427025D01*
X41736686Y-51427025D01*
X41736686Y-51427024D01*
X41897252Y-51295252D01*
X42029027Y-51134683D01*
X42126945Y-50951492D01*
X42187242Y-50752718D01*
X42203577Y-50586874D01*
X42207602Y-50546003D01*
X42207602Y-50545996D01*
X42187243Y-50339288D01*
X42187242Y-50339286D01*
X42187242Y-50339282D01*
X42172899Y-50292000D01*
X60116255Y-50292000D01*
X60136349Y-50444635D01*
X60136350Y-50444637D01*
X60195266Y-50586873D01*
X60288987Y-50709013D01*
X60411127Y-50802734D01*
X60553363Y-50861650D01*
X60706000Y-50881745D01*
X60858637Y-50861650D01*
X61000873Y-50802734D01*
X61123013Y-50709013D01*
X61216734Y-50586873D01*
X61275650Y-50444637D01*
X61295745Y-50292000D01*
X61275650Y-50139363D01*
X61216734Y-49997128D01*
X61123013Y-49874987D01*
X61000873Y-49781266D01*
X60910454Y-49743813D01*
X60858635Y-49722349D01*
X60706000Y-49702255D01*
X60553364Y-49722349D01*
X60411129Y-49781265D01*
X60411121Y-49781270D01*
X60288986Y-49874986D01*
X60195270Y-49997121D01*
X60195265Y-49997129D01*
X60136349Y-50139364D01*
X60116255Y-50291999D01*
X60116255Y-50292000D01*
X42172899Y-50292000D01*
X42126945Y-50140508D01*
X42029027Y-49957317D01*
X42029025Y-49957313D01*
X41897252Y-49796747D01*
X41736686Y-49664975D01*
X41736686Y-49664974D01*
X41553492Y-49567055D01*
X41354711Y-49506756D01*
X41148003Y-49486398D01*
X41147997Y-49486398D01*
X40941288Y-49506756D01*
X40742507Y-49567055D01*
X40559313Y-49664974D01*
X40559313Y-49664975D01*
X40398747Y-49796747D01*
X40266975Y-49957313D01*
X40266974Y-49957313D01*
X40169055Y-50140507D01*
X40108756Y-50339288D01*
X40088398Y-50545996D01*
X40088398Y-50546003D01*
X26967602Y-50546003D01*
X26967602Y-50545996D01*
X26947243Y-50339288D01*
X26947242Y-50339286D01*
X26947242Y-50339282D01*
X26886945Y-50140508D01*
X26789027Y-49957317D01*
X26789025Y-49957313D01*
X26657252Y-49796747D01*
X26496686Y-49664975D01*
X26496686Y-49664974D01*
X26313492Y-49567055D01*
X26114711Y-49506756D01*
X25908003Y-49486398D01*
X25907997Y-49486398D01*
X25701288Y-49506756D01*
X25502507Y-49567055D01*
X25319313Y-49664974D01*
X25319313Y-49664975D01*
X25158747Y-49796747D01*
X25026975Y-49957313D01*
X25026974Y-49957313D01*
X24929055Y-50140507D01*
X24868756Y-50339288D01*
X24848398Y-50545996D01*
X24848398Y-50546003D01*
X254000Y-50546003D01*
X254000Y-49326800D01*
X57779455Y-49326800D01*
X57799549Y-49479435D01*
X57835843Y-49567055D01*
X57858466Y-49621673D01*
X57952187Y-49743813D01*
X58074327Y-49837534D01*
X58216563Y-49896450D01*
X58369200Y-49916545D01*
X58521837Y-49896450D01*
X58664073Y-49837534D01*
X58786213Y-49743813D01*
X58879934Y-49621673D01*
X58938850Y-49479437D01*
X58958945Y-49326800D01*
X58938850Y-49174163D01*
X58879934Y-49031928D01*
X58786213Y-48909787D01*
X58664073Y-48816066D01*
X58622740Y-48798945D01*
X58521835Y-48757149D01*
X58369200Y-48737055D01*
X58216564Y-48757149D01*
X58074329Y-48816065D01*
X58074321Y-48816070D01*
X57952186Y-48909786D01*
X57858470Y-49031921D01*
X57858465Y-49031929D01*
X57799549Y-49174164D01*
X57779455Y-49326799D01*
X57779455Y-49326800D01*
X254000Y-49326800D01*
X254000Y-48006003D01*
X24848398Y-48006003D01*
X24868756Y-48212711D01*
X24868757Y-48212717D01*
X24868758Y-48212718D01*
X24918915Y-48378066D01*
X24929055Y-48411492D01*
X25026974Y-48594686D01*
X25158747Y-48755252D01*
X25319313Y-48887024D01*
X25319313Y-48887025D01*
X25319317Y-48887027D01*
X25502508Y-48984945D01*
X25701282Y-49045242D01*
X25701286Y-49045242D01*
X25701288Y-49045243D01*
X25907997Y-49065602D01*
X25908000Y-49065602D01*
X25908003Y-49065602D01*
X26114711Y-49045243D01*
X26114712Y-49045242D01*
X26114718Y-49045242D01*
X26313492Y-48984945D01*
X26496683Y-48887027D01*
X26496684Y-48887025D01*
X26496686Y-48887025D01*
X26496686Y-48887024D01*
X26657252Y-48755252D01*
X26789027Y-48594683D01*
X26886945Y-48411492D01*
X26947242Y-48212718D01*
X26947589Y-48209200D01*
X26967602Y-48006003D01*
X40088398Y-48006003D01*
X40108756Y-48212711D01*
X40108757Y-48212717D01*
X40108758Y-48212718D01*
X40158915Y-48378066D01*
X40169055Y-48411492D01*
X40266974Y-48594686D01*
X40398747Y-48755252D01*
X40559313Y-48887024D01*
X40559313Y-48887025D01*
X40559317Y-48887027D01*
X40742508Y-48984945D01*
X40941282Y-49045242D01*
X40941286Y-49045242D01*
X40941288Y-49045243D01*
X41147997Y-49065602D01*
X41148000Y-49065602D01*
X41148003Y-49065602D01*
X41354711Y-49045243D01*
X41354712Y-49045242D01*
X41354718Y-49045242D01*
X41553492Y-48984945D01*
X41736683Y-48887027D01*
X41736684Y-48887025D01*
X41736686Y-48887025D01*
X41736686Y-48887024D01*
X41897252Y-48755252D01*
X42029027Y-48594683D01*
X42126945Y-48411492D01*
X42187242Y-48212718D01*
X42187589Y-48209200D01*
X42207602Y-48006003D01*
X42207602Y-48005996D01*
X42187243Y-47799288D01*
X42187242Y-47799286D01*
X42187242Y-47799282D01*
X42172899Y-47752000D01*
X49448255Y-47752000D01*
X49468349Y-47904635D01*
X49472365Y-47914329D01*
X49527266Y-48046873D01*
X49620987Y-48169013D01*
X49743127Y-48262734D01*
X49885363Y-48321650D01*
X50038000Y-48341745D01*
X50190637Y-48321650D01*
X50332873Y-48262734D01*
X50402640Y-48209200D01*
X58897055Y-48209200D01*
X58917149Y-48361835D01*
X58923874Y-48378069D01*
X58976066Y-48504073D01*
X59069787Y-48626213D01*
X59191927Y-48719934D01*
X59334163Y-48778850D01*
X59486800Y-48798945D01*
X59639437Y-48778850D01*
X59781673Y-48719934D01*
X59903813Y-48626213D01*
X59997534Y-48504073D01*
X60056450Y-48361837D01*
X60061948Y-48320077D01*
X69860708Y-48320077D01*
X69879839Y-48538750D01*
X69936652Y-48750777D01*
X69936654Y-48750783D01*
X70029421Y-48949723D01*
X70086981Y-49031928D01*
X70155326Y-49129534D01*
X70310543Y-49284751D01*
X70490354Y-49410656D01*
X70689297Y-49503424D01*
X70901326Y-49560238D01*
X71120000Y-49579369D01*
X71338674Y-49560238D01*
X71550703Y-49503424D01*
X71749646Y-49410656D01*
X71929457Y-49284751D01*
X72084674Y-49129534D01*
X72210579Y-48949723D01*
X72303347Y-48750780D01*
X72360161Y-48538751D01*
X72374219Y-48378063D01*
X77127500Y-48378063D01*
X77127501Y-48378073D01*
X77142265Y-48452300D01*
X77198516Y-48536484D01*
X77282697Y-48592733D01*
X77282699Y-48592734D01*
X77356933Y-48607500D01*
X79107066Y-48607499D01*
X79107069Y-48607498D01*
X79107073Y-48607498D01*
X79156326Y-48597701D01*
X79181301Y-48592734D01*
X79265484Y-48536484D01*
X79321734Y-48452301D01*
X79336500Y-48378067D01*
X79336499Y-46627934D01*
X79336498Y-46627930D01*
X79336498Y-46627926D01*
X79321734Y-46553699D01*
X79289356Y-46505243D01*
X79265484Y-46469516D01*
X79265483Y-46469515D01*
X79181302Y-46413266D01*
X79107067Y-46398500D01*
X77356936Y-46398500D01*
X77356926Y-46398501D01*
X77282699Y-46413265D01*
X77198515Y-46469516D01*
X77142266Y-46553697D01*
X77127500Y-46627930D01*
X77127500Y-48378063D01*
X72374219Y-48378063D01*
X72379292Y-48320077D01*
X72360161Y-48101403D01*
X72303347Y-47889374D01*
X72210579Y-47690431D01*
X72084674Y-47510620D01*
X71929457Y-47355403D01*
X71900298Y-47334986D01*
X71749646Y-47229498D01*
X71550706Y-47136731D01*
X71550700Y-47136729D01*
X71461091Y-47112718D01*
X71338674Y-47079916D01*
X71120000Y-47060785D01*
X70901326Y-47079916D01*
X70689299Y-47136729D01*
X70689293Y-47136731D01*
X70490353Y-47229498D01*
X70310546Y-47355400D01*
X70310540Y-47355405D01*
X70155328Y-47510617D01*
X70155323Y-47510623D01*
X70029421Y-47690430D01*
X69936654Y-47889370D01*
X69936652Y-47889376D01*
X69879839Y-48101403D01*
X69860708Y-48320077D01*
X60061948Y-48320077D01*
X60076545Y-48209200D01*
X60056450Y-48056563D01*
X59997534Y-47914328D01*
X59903813Y-47792187D01*
X59781673Y-47698466D01*
X59762273Y-47690430D01*
X59639435Y-47639549D01*
X59486800Y-47619455D01*
X59334164Y-47639549D01*
X59191929Y-47698465D01*
X59191921Y-47698470D01*
X59069786Y-47792186D01*
X58976070Y-47914321D01*
X58976065Y-47914329D01*
X58917149Y-48056564D01*
X58897055Y-48209199D01*
X58897055Y-48209200D01*
X50402640Y-48209200D01*
X50455013Y-48169013D01*
X50548734Y-48046873D01*
X50607650Y-47904637D01*
X50627745Y-47752000D01*
X50607650Y-47599363D01*
X50548734Y-47457128D01*
X50455013Y-47334987D01*
X50332873Y-47241266D01*
X50304463Y-47229498D01*
X50190635Y-47182349D01*
X50038000Y-47162255D01*
X49885364Y-47182349D01*
X49743129Y-47241265D01*
X49743121Y-47241270D01*
X49620986Y-47334986D01*
X49527270Y-47457121D01*
X49527265Y-47457129D01*
X49468349Y-47599364D01*
X49448255Y-47751999D01*
X49448255Y-47752000D01*
X42172899Y-47752000D01*
X42126945Y-47600508D01*
X42029027Y-47417317D01*
X42029025Y-47417313D01*
X41897252Y-47256747D01*
X41736686Y-47124975D01*
X41736686Y-47124974D01*
X41553492Y-47027055D01*
X41354711Y-46966756D01*
X41148003Y-46946398D01*
X41147997Y-46946398D01*
X40941288Y-46966756D01*
X40742507Y-47027055D01*
X40559313Y-47124974D01*
X40559313Y-47124975D01*
X40398747Y-47256747D01*
X40266975Y-47417313D01*
X40266974Y-47417313D01*
X40169055Y-47600507D01*
X40108756Y-47799288D01*
X40088398Y-48005996D01*
X40088398Y-48006003D01*
X26967602Y-48006003D01*
X26967602Y-48005996D01*
X26947243Y-47799288D01*
X26947242Y-47799286D01*
X26947242Y-47799282D01*
X26886945Y-47600508D01*
X26789027Y-47417317D01*
X26789025Y-47417313D01*
X26657252Y-47256747D01*
X26496686Y-47124975D01*
X26496686Y-47124974D01*
X26313492Y-47027055D01*
X26114711Y-46966756D01*
X25908003Y-46946398D01*
X25907997Y-46946398D01*
X25701288Y-46966756D01*
X25502507Y-47027055D01*
X25319313Y-47124974D01*
X25319313Y-47124975D01*
X25158747Y-47256747D01*
X25026975Y-47417313D01*
X25026974Y-47417313D01*
X24929055Y-47600507D01*
X24868756Y-47799288D01*
X24848398Y-48005996D01*
X24848398Y-48006003D01*
X254000Y-48006003D01*
X254000Y-45466003D01*
X24848398Y-45466003D01*
X24868756Y-45672711D01*
X24929055Y-45871492D01*
X25026974Y-46054686D01*
X25158747Y-46215252D01*
X25319313Y-46347024D01*
X25319313Y-46347025D01*
X25319317Y-46347027D01*
X25502508Y-46444945D01*
X25701282Y-46505242D01*
X25701286Y-46505242D01*
X25701288Y-46505243D01*
X25907997Y-46525602D01*
X25908000Y-46525602D01*
X25908003Y-46525602D01*
X26114711Y-46505243D01*
X26114712Y-46505242D01*
X26114718Y-46505242D01*
X26313492Y-46444945D01*
X26496683Y-46347027D01*
X26496684Y-46347025D01*
X26496686Y-46347025D01*
X26496686Y-46347024D01*
X26657252Y-46215252D01*
X26789027Y-46054683D01*
X26886945Y-45871492D01*
X26947242Y-45672718D01*
X26959657Y-45546672D01*
X26967602Y-45466003D01*
X40088398Y-45466003D01*
X40108756Y-45672711D01*
X40169055Y-45871492D01*
X40266974Y-46054686D01*
X40398747Y-46215252D01*
X40559313Y-46347024D01*
X40559313Y-46347025D01*
X40559317Y-46347027D01*
X40742508Y-46444945D01*
X40941282Y-46505242D01*
X40941286Y-46505242D01*
X40941288Y-46505243D01*
X41147997Y-46525602D01*
X41148000Y-46525602D01*
X41148003Y-46525602D01*
X41354711Y-46505243D01*
X41354712Y-46505242D01*
X41354718Y-46505242D01*
X41553492Y-46444945D01*
X41736683Y-46347027D01*
X41736684Y-46347025D01*
X41736686Y-46347025D01*
X41736686Y-46347024D01*
X41897252Y-46215252D01*
X42029027Y-46054683D01*
X42126945Y-45871492D01*
X42187242Y-45672718D01*
X42199657Y-45546672D01*
X42207602Y-45466003D01*
X42207602Y-45465996D01*
X42187243Y-45259288D01*
X42187242Y-45259286D01*
X42187242Y-45259282D01*
X42126945Y-45060508D01*
X42029027Y-44877317D01*
X42029025Y-44877313D01*
X41897252Y-44716747D01*
X41887811Y-44708999D01*
X77156450Y-44708999D01*
X77156451Y-44709000D01*
X77800884Y-44709000D01*
X77772507Y-44753156D01*
X77732000Y-44891111D01*
X77732000Y-45034889D01*
X77772507Y-45172844D01*
X77800884Y-45217000D01*
X77156451Y-45217000D01*
X77198138Y-45363514D01*
X77198140Y-45363519D01*
X77289340Y-45546672D01*
X77412637Y-45709946D01*
X77563838Y-45847784D01*
X77737796Y-45955493D01*
X77737803Y-45955496D01*
X77928582Y-46029405D01*
X77977999Y-46038642D01*
X77978000Y-46038642D01*
X77978000Y-45396674D01*
X78089685Y-45447680D01*
X78196237Y-45463000D01*
X78267763Y-45463000D01*
X78374315Y-45447680D01*
X78486000Y-45396674D01*
X78486000Y-46038642D01*
X78535417Y-46029405D01*
X78535418Y-46029405D01*
X78726196Y-45955496D01*
X78726203Y-45955493D01*
X78900161Y-45847784D01*
X79051362Y-45709946D01*
X79174659Y-45546672D01*
X79265859Y-45363519D01*
X79265861Y-45363514D01*
X79307549Y-45217000D01*
X78663116Y-45217000D01*
X78691493Y-45172844D01*
X78732000Y-45034889D01*
X78732000Y-44891111D01*
X78691493Y-44753156D01*
X78663116Y-44709000D01*
X79307549Y-44709000D01*
X79307549Y-44708999D01*
X79265861Y-44562485D01*
X79265859Y-44562480D01*
X79174659Y-44379327D01*
X79051362Y-44216053D01*
X78900161Y-44078215D01*
X78726203Y-43970506D01*
X78726196Y-43970503D01*
X78535424Y-43896596D01*
X78486000Y-43887357D01*
X78486000Y-44529325D01*
X78374315Y-44478320D01*
X78267763Y-44463000D01*
X78196237Y-44463000D01*
X78089685Y-44478320D01*
X77978000Y-44529325D01*
X77978000Y-43887357D01*
X77928575Y-43896596D01*
X77737803Y-43970503D01*
X77737796Y-43970506D01*
X77563838Y-44078215D01*
X77412637Y-44216053D01*
X77289340Y-44379327D01*
X77198140Y-44562480D01*
X77198138Y-44562485D01*
X77156450Y-44708999D01*
X41887811Y-44708999D01*
X41736686Y-44584975D01*
X41736686Y-44584974D01*
X41553492Y-44487055D01*
X41354711Y-44426756D01*
X41148003Y-44406398D01*
X41147997Y-44406398D01*
X40941288Y-44426756D01*
X40742507Y-44487055D01*
X40559313Y-44584974D01*
X40559313Y-44584975D01*
X40398747Y-44716747D01*
X40266975Y-44877313D01*
X40266974Y-44877313D01*
X40169055Y-45060507D01*
X40108756Y-45259288D01*
X40088398Y-45465996D01*
X40088398Y-45466003D01*
X26967602Y-45466003D01*
X26967602Y-45465996D01*
X26947243Y-45259288D01*
X26947242Y-45259286D01*
X26947242Y-45259282D01*
X26886945Y-45060508D01*
X26789027Y-44877317D01*
X26789025Y-44877313D01*
X26657252Y-44716747D01*
X26496686Y-44584975D01*
X26496686Y-44584974D01*
X26313492Y-44487055D01*
X26114711Y-44426756D01*
X25908003Y-44406398D01*
X25907997Y-44406398D01*
X25701288Y-44426756D01*
X25502507Y-44487055D01*
X25319313Y-44584974D01*
X25319313Y-44584975D01*
X25158747Y-44716747D01*
X25026975Y-44877313D01*
X25026974Y-44877313D01*
X24929055Y-45060507D01*
X24868756Y-45259288D01*
X24848398Y-45465996D01*
X24848398Y-45466003D01*
X254000Y-45466003D01*
X254000Y-42327190D01*
X6371180Y-42327190D01*
X6400849Y-42571532D01*
X6400849Y-42571533D01*
X6469326Y-42807943D01*
X6469327Y-42807948D01*
X6574847Y-43030327D01*
X6714666Y-43232891D01*
X6714671Y-43232898D01*
X6714673Y-43232900D01*
X6885180Y-43410417D01*
X6885183Y-43410419D01*
X6885187Y-43410423D01*
X6988844Y-43488315D01*
X7081956Y-43558284D01*
X7081958Y-43558285D01*
X7081960Y-43558287D01*
X7299900Y-43672671D01*
X7299903Y-43672672D01*
X7533376Y-43750617D01*
X7676853Y-43773933D01*
X7776317Y-43790098D01*
X7776319Y-43790098D01*
X7776330Y-43790100D01*
X7776334Y-43790100D01*
X7960845Y-43790100D01*
X8042575Y-43783501D01*
X8144743Y-43775254D01*
X8383731Y-43716349D01*
X8610176Y-43619870D01*
X8818211Y-43488316D01*
X9002450Y-43325094D01*
X9158121Y-43134432D01*
X9281191Y-42921268D01*
X9368474Y-42691122D01*
X9372378Y-42672000D01*
X19476255Y-42672000D01*
X19496349Y-42824635D01*
X19536377Y-42921270D01*
X19555266Y-42966873D01*
X19648987Y-43089013D01*
X19771127Y-43182734D01*
X19913363Y-43241650D01*
X20066000Y-43261745D01*
X20218637Y-43241650D01*
X20360873Y-43182734D01*
X20483013Y-43089013D01*
X20576734Y-42966873D01*
X20593663Y-42926003D01*
X24848398Y-42926003D01*
X24868756Y-43132711D01*
X24868757Y-43132717D01*
X24868758Y-43132718D01*
X24883930Y-43182734D01*
X24929055Y-43331492D01*
X25026974Y-43514686D01*
X25158747Y-43675252D01*
X25319313Y-43807024D01*
X25319313Y-43807025D01*
X25319317Y-43807027D01*
X25502508Y-43904945D01*
X25701282Y-43965242D01*
X25701286Y-43965242D01*
X25701288Y-43965243D01*
X25907997Y-43985602D01*
X25908000Y-43985602D01*
X25908003Y-43985602D01*
X26114711Y-43965243D01*
X26114712Y-43965242D01*
X26114718Y-43965242D01*
X26313492Y-43904945D01*
X26496683Y-43807027D01*
X26496684Y-43807025D01*
X26496686Y-43807025D01*
X26496686Y-43807024D01*
X26657252Y-43675252D01*
X26789027Y-43514683D01*
X26886945Y-43331492D01*
X26947242Y-43132718D01*
X26957327Y-43030330D01*
X26967602Y-42926003D01*
X40088398Y-42926003D01*
X40108756Y-43132711D01*
X40108757Y-43132717D01*
X40108758Y-43132718D01*
X40123930Y-43182734D01*
X40169055Y-43331492D01*
X40266974Y-43514686D01*
X40398747Y-43675252D01*
X40559313Y-43807024D01*
X40559313Y-43807025D01*
X40559317Y-43807027D01*
X40742508Y-43904945D01*
X40941282Y-43965242D01*
X40941286Y-43965242D01*
X40941288Y-43965243D01*
X41147997Y-43985602D01*
X41148000Y-43985602D01*
X41148003Y-43985602D01*
X41354711Y-43965243D01*
X41354712Y-43965242D01*
X41354718Y-43965242D01*
X41553492Y-43904945D01*
X41736683Y-43807027D01*
X41736684Y-43807025D01*
X41736686Y-43807025D01*
X41736686Y-43807024D01*
X41897252Y-43675252D01*
X42029027Y-43514683D01*
X42126945Y-43331492D01*
X42187242Y-43132718D01*
X42197327Y-43030330D01*
X42207602Y-42926003D01*
X42207602Y-42925996D01*
X42187243Y-42719288D01*
X42187242Y-42719286D01*
X42187242Y-42719282D01*
X42126945Y-42520508D01*
X42029027Y-42337317D01*
X42029025Y-42337313D01*
X42020717Y-42327190D01*
X73376380Y-42327190D01*
X73406049Y-42571532D01*
X73406049Y-42571533D01*
X73474526Y-42807943D01*
X73474527Y-42807948D01*
X73580047Y-43030327D01*
X73719866Y-43232891D01*
X73719871Y-43232898D01*
X73719873Y-43232900D01*
X73890380Y-43410417D01*
X73890383Y-43410419D01*
X73890387Y-43410423D01*
X73994044Y-43488315D01*
X74087156Y-43558284D01*
X74087158Y-43558285D01*
X74087160Y-43558287D01*
X74305100Y-43672671D01*
X74305103Y-43672672D01*
X74538576Y-43750617D01*
X74682053Y-43773933D01*
X74781517Y-43790098D01*
X74781519Y-43790098D01*
X74781530Y-43790100D01*
X74781534Y-43790100D01*
X74966045Y-43790100D01*
X75047775Y-43783501D01*
X75149943Y-43775254D01*
X75388931Y-43716349D01*
X75615376Y-43619870D01*
X75823411Y-43488316D01*
X76007650Y-43325094D01*
X76163321Y-43134432D01*
X76286391Y-42921268D01*
X76373674Y-42691122D01*
X76422909Y-42449956D01*
X76432820Y-42204015D01*
X76403151Y-41959669D01*
X76334673Y-41723256D01*
X76334672Y-41723251D01*
X76229152Y-41500872D01*
X76089333Y-41298308D01*
X76089325Y-41298298D01*
X76059286Y-41267024D01*
X75918820Y-41120783D01*
X75918815Y-41120779D01*
X75918812Y-41120776D01*
X75722041Y-40972914D01*
X75722039Y-40972912D01*
X75504099Y-40858528D01*
X75504096Y-40858527D01*
X75270621Y-40780582D01*
X75270622Y-40780582D01*
X75027682Y-40741101D01*
X75027672Y-40741100D01*
X75027670Y-40741100D01*
X74843159Y-40741100D01*
X74843155Y-40741100D01*
X74659261Y-40755945D01*
X74420267Y-40814851D01*
X74193825Y-40911329D01*
X73985788Y-41042884D01*
X73801549Y-41206106D01*
X73801546Y-41206110D01*
X73645882Y-41396763D01*
X73522813Y-41609924D01*
X73522810Y-41609929D01*
X73435527Y-41840074D01*
X73435526Y-41840076D01*
X73435526Y-41840078D01*
X73411111Y-41959669D01*
X73386291Y-42081244D01*
X73376380Y-42327183D01*
X73376380Y-42327190D01*
X42020717Y-42327190D01*
X41897252Y-42176747D01*
X41736686Y-42044975D01*
X41736686Y-42044974D01*
X41553492Y-41947055D01*
X41354711Y-41886756D01*
X41148003Y-41866398D01*
X41147997Y-41866398D01*
X40941288Y-41886756D01*
X40742507Y-41947055D01*
X40559313Y-42044974D01*
X40559313Y-42044975D01*
X40398747Y-42176747D01*
X40266975Y-42337313D01*
X40266974Y-42337313D01*
X40169055Y-42520507D01*
X40108756Y-42719288D01*
X40088398Y-42925996D01*
X40088398Y-42926003D01*
X26967602Y-42926003D01*
X26967602Y-42925996D01*
X26947243Y-42719288D01*
X26947242Y-42719286D01*
X26947242Y-42719282D01*
X26886945Y-42520508D01*
X26789027Y-42337317D01*
X26789025Y-42337313D01*
X26657252Y-42176747D01*
X26496686Y-42044975D01*
X26496686Y-42044974D01*
X26313492Y-41947055D01*
X26114711Y-41886756D01*
X25908003Y-41866398D01*
X25907997Y-41866398D01*
X25701288Y-41886756D01*
X25502507Y-41947055D01*
X25319313Y-42044974D01*
X25319313Y-42044975D01*
X25158747Y-42176747D01*
X25026975Y-42337313D01*
X25026974Y-42337313D01*
X24929055Y-42520507D01*
X24868756Y-42719288D01*
X24848398Y-42925996D01*
X24848398Y-42926003D01*
X20593663Y-42926003D01*
X20635650Y-42824637D01*
X20655745Y-42672000D01*
X20635650Y-42519363D01*
X20576734Y-42377128D01*
X20483013Y-42254987D01*
X20360873Y-42161266D01*
X20218637Y-42102350D01*
X20218635Y-42102349D01*
X20066000Y-42082255D01*
X19913364Y-42102349D01*
X19771129Y-42161265D01*
X19771121Y-42161270D01*
X19648986Y-42254986D01*
X19555270Y-42377121D01*
X19555265Y-42377129D01*
X19496349Y-42519364D01*
X19476255Y-42671999D01*
X19476255Y-42672000D01*
X9372378Y-42672000D01*
X9417709Y-42449956D01*
X9427620Y-42204015D01*
X9397951Y-41959669D01*
X9329473Y-41723256D01*
X9329472Y-41723251D01*
X9223952Y-41500872D01*
X9084133Y-41298308D01*
X9084125Y-41298298D01*
X9054086Y-41267024D01*
X8913620Y-41120783D01*
X8913615Y-41120779D01*
X8913612Y-41120776D01*
X8716841Y-40972914D01*
X8716839Y-40972912D01*
X8566485Y-40894000D01*
X20492255Y-40894000D01*
X20512349Y-41046635D01*
X20512350Y-41046637D01*
X20571266Y-41188873D01*
X20664987Y-41311013D01*
X20787127Y-41404734D01*
X20929363Y-41463650D01*
X21082000Y-41483745D01*
X21234637Y-41463650D01*
X21376873Y-41404734D01*
X21499013Y-41311013D01*
X21592734Y-41188873D01*
X21651650Y-41046637D01*
X21671745Y-40894000D01*
X21651650Y-40741363D01*
X21592734Y-40599128D01*
X21499013Y-40476987D01*
X21380440Y-40386003D01*
X24848398Y-40386003D01*
X24868756Y-40592711D01*
X24868757Y-40592717D01*
X24868758Y-40592718D01*
X24870703Y-40599129D01*
X24929055Y-40791492D01*
X25026974Y-40974686D01*
X25158747Y-41135252D01*
X25319313Y-41267024D01*
X25319313Y-41267025D01*
X25319317Y-41267027D01*
X25502508Y-41364945D01*
X25701282Y-41425242D01*
X25701286Y-41425242D01*
X25701288Y-41425243D01*
X25907997Y-41445602D01*
X25908000Y-41445602D01*
X25908003Y-41445602D01*
X26114711Y-41425243D01*
X26114712Y-41425242D01*
X26114718Y-41425242D01*
X26313492Y-41364945D01*
X26496683Y-41267027D01*
X26496684Y-41267025D01*
X26496686Y-41267025D01*
X26496686Y-41267024D01*
X26657252Y-41135252D01*
X26789027Y-40974683D01*
X26886945Y-40791492D01*
X26947242Y-40592718D01*
X26967602Y-40386003D01*
X40088398Y-40386003D01*
X40108756Y-40592711D01*
X40108757Y-40592717D01*
X40108758Y-40592718D01*
X40110703Y-40599129D01*
X40169055Y-40791492D01*
X40266974Y-40974686D01*
X40398747Y-41135252D01*
X40559313Y-41267024D01*
X40559313Y-41267025D01*
X40559317Y-41267027D01*
X40742508Y-41364945D01*
X40941282Y-41425242D01*
X40941286Y-41425242D01*
X40941288Y-41425243D01*
X41147997Y-41445602D01*
X41148000Y-41445602D01*
X41148003Y-41445602D01*
X41354711Y-41425243D01*
X41354712Y-41425242D01*
X41354718Y-41425242D01*
X41553492Y-41364945D01*
X41736683Y-41267027D01*
X41736684Y-41267025D01*
X41736686Y-41267025D01*
X41736686Y-41267024D01*
X41897252Y-41135252D01*
X42029027Y-40974683D01*
X42126945Y-40791492D01*
X42187242Y-40592718D01*
X42207602Y-40386000D01*
X42207602Y-40385996D01*
X42187243Y-40179288D01*
X42187242Y-40179286D01*
X42187242Y-40179282D01*
X42126945Y-39980508D01*
X42029027Y-39797317D01*
X42029025Y-39797313D01*
X41897252Y-39636747D01*
X41736686Y-39504975D01*
X41736686Y-39504974D01*
X41553492Y-39407055D01*
X41354711Y-39346756D01*
X41148003Y-39326398D01*
X41147997Y-39326398D01*
X40941288Y-39346756D01*
X40742507Y-39407055D01*
X40559313Y-39504974D01*
X40559313Y-39504975D01*
X40398747Y-39636747D01*
X40266975Y-39797313D01*
X40266974Y-39797313D01*
X40169055Y-39980507D01*
X40108756Y-40179288D01*
X40088398Y-40385996D01*
X40088398Y-40386003D01*
X26967602Y-40386003D01*
X26967602Y-40386000D01*
X26967602Y-40385996D01*
X26947243Y-40179288D01*
X26947242Y-40179286D01*
X26947242Y-40179282D01*
X26886945Y-39980508D01*
X26789027Y-39797317D01*
X26789025Y-39797313D01*
X26657252Y-39636747D01*
X26496686Y-39504975D01*
X26496686Y-39504974D01*
X26313492Y-39407055D01*
X26114711Y-39346756D01*
X25908003Y-39326398D01*
X25907997Y-39326398D01*
X25701288Y-39346756D01*
X25502507Y-39407055D01*
X25319313Y-39504974D01*
X25319313Y-39504975D01*
X25158747Y-39636747D01*
X25026975Y-39797313D01*
X25026974Y-39797313D01*
X24929055Y-39980507D01*
X24868756Y-40179288D01*
X24848398Y-40385996D01*
X24848398Y-40386003D01*
X21380440Y-40386003D01*
X21376873Y-40383266D01*
X21234637Y-40324350D01*
X21234635Y-40324349D01*
X21082000Y-40304255D01*
X20929364Y-40324349D01*
X20787129Y-40383265D01*
X20787121Y-40383270D01*
X20664986Y-40476986D01*
X20571270Y-40599121D01*
X20571265Y-40599129D01*
X20512349Y-40741364D01*
X20492255Y-40893999D01*
X20492255Y-40894000D01*
X8566485Y-40894000D01*
X8498899Y-40858528D01*
X8498896Y-40858527D01*
X8265421Y-40780582D01*
X8265422Y-40780582D01*
X8022482Y-40741101D01*
X8022472Y-40741100D01*
X8022470Y-40741100D01*
X7837959Y-40741100D01*
X7837955Y-40741100D01*
X7654061Y-40755945D01*
X7415067Y-40814851D01*
X7188625Y-40911329D01*
X6980588Y-41042884D01*
X6796349Y-41206106D01*
X6796346Y-41206110D01*
X6640682Y-41396763D01*
X6517613Y-41609924D01*
X6517610Y-41609929D01*
X6430327Y-41840074D01*
X6430326Y-41840076D01*
X6430326Y-41840078D01*
X6405911Y-41959669D01*
X6381091Y-42081244D01*
X6371180Y-42327183D01*
X6371180Y-42327190D01*
X254000Y-42327190D01*
X254000Y-39116000D01*
X42844255Y-39116000D01*
X42864349Y-39268635D01*
X42921685Y-39407055D01*
X42923266Y-39410873D01*
X43016987Y-39533013D01*
X43139127Y-39626734D01*
X43281363Y-39685650D01*
X43434000Y-39705745D01*
X43586637Y-39685650D01*
X43728873Y-39626734D01*
X43851013Y-39533013D01*
X43944734Y-39410873D01*
X44003650Y-39268637D01*
X44023745Y-39116000D01*
X46146255Y-39116000D01*
X46166349Y-39268635D01*
X46223685Y-39407055D01*
X46225266Y-39410873D01*
X46318987Y-39533013D01*
X46441127Y-39626734D01*
X46583363Y-39685650D01*
X46736000Y-39705745D01*
X46888637Y-39685650D01*
X47030873Y-39626734D01*
X47153013Y-39533013D01*
X47246734Y-39410873D01*
X47305650Y-39268637D01*
X47325745Y-39116000D01*
X47305650Y-38963363D01*
X47246734Y-38821128D01*
X47153013Y-38698987D01*
X47030873Y-38605266D01*
X46888637Y-38546350D01*
X46888635Y-38546349D01*
X46736000Y-38526255D01*
X46583364Y-38546349D01*
X46441129Y-38605265D01*
X46441121Y-38605270D01*
X46318986Y-38698986D01*
X46225270Y-38821121D01*
X46225265Y-38821129D01*
X46166349Y-38963364D01*
X46146255Y-39115999D01*
X46146255Y-39116000D01*
X44023745Y-39116000D01*
X44003650Y-38963363D01*
X43944734Y-38821128D01*
X43851013Y-38698987D01*
X43728873Y-38605266D01*
X43586637Y-38546350D01*
X43586635Y-38546349D01*
X43434000Y-38526255D01*
X43281364Y-38546349D01*
X43139129Y-38605265D01*
X43139121Y-38605270D01*
X43016986Y-38698986D01*
X42923270Y-38821121D01*
X42923265Y-38821129D01*
X42864349Y-38963364D01*
X42844255Y-39115999D01*
X42844255Y-39116000D01*
X254000Y-39116000D01*
X254000Y-37660504D01*
X10620768Y-37660504D01*
X10639654Y-37864319D01*
X10639655Y-37864321D01*
X10695672Y-38061201D01*
X10786912Y-38244435D01*
X10786913Y-38244436D01*
X10910266Y-38407784D01*
X11061536Y-38545685D01*
X11235566Y-38653440D01*
X11235568Y-38653440D01*
X11235573Y-38653444D01*
X11426444Y-38727388D01*
X11627653Y-38765000D01*
X11627655Y-38765000D01*
X11832345Y-38765000D01*
X11832347Y-38765000D01*
X12033556Y-38727388D01*
X12224427Y-38653444D01*
X12398462Y-38545686D01*
X12409566Y-38535563D01*
X13165500Y-38535563D01*
X13165501Y-38535573D01*
X13180265Y-38609800D01*
X13236516Y-38693984D01*
X13320697Y-38750233D01*
X13320699Y-38750234D01*
X13394933Y-38765000D01*
X15145066Y-38764999D01*
X15145069Y-38764998D01*
X15145073Y-38764998D01*
X15194326Y-38755201D01*
X15219301Y-38750234D01*
X15303484Y-38693984D01*
X15359734Y-38609801D01*
X15374500Y-38535567D01*
X15374500Y-37846003D01*
X24848398Y-37846003D01*
X24868756Y-38052711D01*
X24929055Y-38251492D01*
X25026974Y-38434686D01*
X25158747Y-38595252D01*
X25319313Y-38727024D01*
X25319313Y-38727025D01*
X25319992Y-38727388D01*
X25502508Y-38824945D01*
X25701282Y-38885242D01*
X25701286Y-38885242D01*
X25701288Y-38885243D01*
X25907997Y-38905602D01*
X25908000Y-38905602D01*
X25908003Y-38905602D01*
X26114711Y-38885243D01*
X26114712Y-38885242D01*
X26114718Y-38885242D01*
X26313492Y-38824945D01*
X26496683Y-38727027D01*
X26496684Y-38727025D01*
X26496686Y-38727025D01*
X26496686Y-38727024D01*
X26657252Y-38595252D01*
X26789027Y-38434683D01*
X26886945Y-38251492D01*
X26947242Y-38052718D01*
X26967602Y-37846003D01*
X40088398Y-37846003D01*
X40108756Y-38052711D01*
X40169055Y-38251492D01*
X40266974Y-38434686D01*
X40398747Y-38595252D01*
X40559313Y-38727024D01*
X40559313Y-38727025D01*
X40559992Y-38727388D01*
X40742508Y-38824945D01*
X40941282Y-38885242D01*
X40941286Y-38885242D01*
X40941288Y-38885243D01*
X41147997Y-38905602D01*
X41148000Y-38905602D01*
X41148003Y-38905602D01*
X41354711Y-38885243D01*
X41354712Y-38885242D01*
X41354718Y-38885242D01*
X41553492Y-38824945D01*
X41736683Y-38727027D01*
X41736684Y-38727025D01*
X41736686Y-38727025D01*
X41736686Y-38727024D01*
X41897252Y-38595252D01*
X42029027Y-38434683D01*
X42126945Y-38251492D01*
X42187242Y-38052718D01*
X42207602Y-37846000D01*
X42207602Y-37845996D01*
X42187243Y-37639288D01*
X42187242Y-37639286D01*
X42187242Y-37639282D01*
X42126945Y-37440508D01*
X42029027Y-37257317D01*
X42029025Y-37257313D01*
X41897252Y-37096747D01*
X41736686Y-36964975D01*
X41736686Y-36964974D01*
X41553492Y-36867055D01*
X41354711Y-36806756D01*
X41148003Y-36786398D01*
X41147997Y-36786398D01*
X40941288Y-36806756D01*
X40742507Y-36867055D01*
X40559313Y-36964974D01*
X40559313Y-36964975D01*
X40398747Y-37096747D01*
X40266975Y-37257313D01*
X40266974Y-37257313D01*
X40169055Y-37440507D01*
X40108756Y-37639288D01*
X40088398Y-37845996D01*
X40088398Y-37846003D01*
X26967602Y-37846003D01*
X26967602Y-37846000D01*
X26967602Y-37845996D01*
X26947243Y-37639288D01*
X26947242Y-37639286D01*
X26947242Y-37639282D01*
X26886945Y-37440508D01*
X26789027Y-37257317D01*
X26789025Y-37257313D01*
X26657252Y-37096747D01*
X26496686Y-36964975D01*
X26496686Y-36964974D01*
X26313492Y-36867055D01*
X26114711Y-36806756D01*
X25908003Y-36786398D01*
X25907997Y-36786398D01*
X25701288Y-36806756D01*
X25502507Y-36867055D01*
X25319313Y-36964974D01*
X25319313Y-36964975D01*
X25158747Y-37096747D01*
X25026975Y-37257313D01*
X25026974Y-37257313D01*
X24929055Y-37440507D01*
X24868756Y-37639288D01*
X24848398Y-37845996D01*
X24848398Y-37846003D01*
X15374500Y-37846003D01*
X15374499Y-36785434D01*
X15374498Y-36785430D01*
X15374498Y-36785426D01*
X15359734Y-36711199D01*
X15303483Y-36627015D01*
X15219302Y-36570766D01*
X15145067Y-36556000D01*
X13394936Y-36556000D01*
X13394926Y-36556001D01*
X13320699Y-36570765D01*
X13236515Y-36627016D01*
X13180266Y-36711197D01*
X13165500Y-36785430D01*
X13165500Y-38535563D01*
X12409566Y-38535563D01*
X12549732Y-38407785D01*
X12673088Y-38244435D01*
X12764328Y-38061201D01*
X12820345Y-37864321D01*
X12839232Y-37660500D01*
X12837266Y-37639288D01*
X12820345Y-37456680D01*
X12815744Y-37440508D01*
X12764328Y-37259799D01*
X12673088Y-37076565D01*
X12632538Y-37022868D01*
X12549733Y-36913215D01*
X12398463Y-36775314D01*
X12224433Y-36667559D01*
X12224428Y-36667557D01*
X12224427Y-36667556D01*
X12224422Y-36667554D01*
X12033559Y-36593613D01*
X12033560Y-36593613D01*
X12033557Y-36593612D01*
X12033556Y-36593612D01*
X11832347Y-36556000D01*
X11627653Y-36556000D01*
X11426444Y-36593612D01*
X11426439Y-36593613D01*
X11235577Y-36667554D01*
X11235566Y-36667559D01*
X11061536Y-36775314D01*
X10910266Y-36913215D01*
X10786913Y-37076563D01*
X10695671Y-37259801D01*
X10639654Y-37456680D01*
X10620768Y-37660495D01*
X10620768Y-37660504D01*
X254000Y-37660504D01*
X254000Y-34167482D01*
X11199500Y-34167482D01*
X11238692Y-34427506D01*
X11238693Y-34427514D01*
X11316204Y-34678793D01*
X11430299Y-34915712D01*
X11430303Y-34915719D01*
X11555455Y-35099282D01*
X11578430Y-35132980D01*
X11578435Y-35132985D01*
X11757285Y-35325742D01*
X11757289Y-35325745D01*
X11757290Y-35325746D01*
X11962883Y-35489701D01*
X11962886Y-35489703D01*
X12190618Y-35621184D01*
X12190622Y-35621186D01*
X12420721Y-35711492D01*
X12435402Y-35717254D01*
X12691772Y-35775769D01*
X12844150Y-35787188D01*
X12888343Y-35790500D01*
X12888346Y-35790500D01*
X13019657Y-35790500D01*
X13060768Y-35787418D01*
X13216228Y-35775769D01*
X13472598Y-35717254D01*
X13626787Y-35656739D01*
X13717377Y-35621186D01*
X13717381Y-35621184D01*
X13717380Y-35621184D01*
X13717384Y-35621183D01*
X13945117Y-35489701D01*
X14150710Y-35325746D01*
X14169029Y-35306003D01*
X24848398Y-35306003D01*
X24868756Y-35512711D01*
X24929055Y-35711492D01*
X25026974Y-35894686D01*
X25158747Y-36055252D01*
X25319313Y-36187024D01*
X25319313Y-36187025D01*
X25319317Y-36187027D01*
X25502508Y-36284945D01*
X25701282Y-36345242D01*
X25701286Y-36345242D01*
X25701288Y-36345243D01*
X25907997Y-36365602D01*
X25908000Y-36365602D01*
X25908003Y-36365602D01*
X26114711Y-36345243D01*
X26114712Y-36345242D01*
X26114718Y-36345242D01*
X26313492Y-36284945D01*
X26496683Y-36187027D01*
X26496684Y-36187025D01*
X26496686Y-36187025D01*
X26496686Y-36187024D01*
X26657252Y-36055252D01*
X26789027Y-35894683D01*
X26886945Y-35711492D01*
X26947242Y-35512718D01*
X26967602Y-35306003D01*
X40088398Y-35306003D01*
X40108756Y-35512711D01*
X40169055Y-35711492D01*
X40266974Y-35894686D01*
X40398747Y-36055252D01*
X40559313Y-36187024D01*
X40559313Y-36187025D01*
X40559317Y-36187027D01*
X40742508Y-36284945D01*
X40941282Y-36345242D01*
X40941286Y-36345242D01*
X40941288Y-36345243D01*
X41147997Y-36365602D01*
X41148000Y-36365602D01*
X41148003Y-36365602D01*
X41354711Y-36345243D01*
X41354712Y-36345242D01*
X41354718Y-36345242D01*
X41553492Y-36284945D01*
X41736683Y-36187027D01*
X41736684Y-36187025D01*
X41736686Y-36187025D01*
X41736686Y-36187024D01*
X41897252Y-36055252D01*
X42029027Y-35894683D01*
X42126945Y-35711492D01*
X42187242Y-35512718D01*
X42207602Y-35306000D01*
X42207602Y-35305996D01*
X42187243Y-35099288D01*
X42187242Y-35099286D01*
X42187242Y-35099282D01*
X42126945Y-34900508D01*
X42029027Y-34717317D01*
X42029025Y-34717313D01*
X41897252Y-34556747D01*
X41736686Y-34424975D01*
X41736686Y-34424974D01*
X41553492Y-34327055D01*
X41354711Y-34266756D01*
X41148003Y-34246398D01*
X41147997Y-34246398D01*
X40941288Y-34266756D01*
X40742507Y-34327055D01*
X40559313Y-34424974D01*
X40559313Y-34424975D01*
X40398747Y-34556747D01*
X40266975Y-34717313D01*
X40266974Y-34717313D01*
X40169055Y-34900507D01*
X40108756Y-35099288D01*
X40088398Y-35305996D01*
X40088398Y-35306003D01*
X26967602Y-35306003D01*
X26967602Y-35306000D01*
X26967602Y-35305996D01*
X26947243Y-35099288D01*
X26947242Y-35099286D01*
X26947242Y-35099282D01*
X26886945Y-34900508D01*
X26789027Y-34717317D01*
X26789025Y-34717313D01*
X26657252Y-34556747D01*
X26496686Y-34424975D01*
X26496686Y-34424974D01*
X26313492Y-34327055D01*
X26114711Y-34266756D01*
X25908003Y-34246398D01*
X25907997Y-34246398D01*
X25701288Y-34266756D01*
X25502507Y-34327055D01*
X25319313Y-34424974D01*
X25319313Y-34424975D01*
X25158747Y-34556747D01*
X25026975Y-34717313D01*
X25026974Y-34717313D01*
X24929055Y-34900507D01*
X24868756Y-35099288D01*
X24848398Y-35305996D01*
X24848398Y-35306003D01*
X14169029Y-35306003D01*
X14329570Y-35132980D01*
X14477702Y-34915710D01*
X14591798Y-34678788D01*
X14669308Y-34427508D01*
X14708500Y-34167482D01*
X14708500Y-33904518D01*
X14669308Y-33644492D01*
X14591798Y-33393212D01*
X14477702Y-33156290D01*
X14477700Y-33156287D01*
X14477696Y-33156280D01*
X14329574Y-32939026D01*
X14329570Y-32939020D01*
X14282626Y-32888426D01*
X14169035Y-32766003D01*
X24848398Y-32766003D01*
X24868756Y-32972711D01*
X24929055Y-33171492D01*
X25026974Y-33354686D01*
X25158747Y-33515252D01*
X25319313Y-33647024D01*
X25319313Y-33647025D01*
X25319317Y-33647027D01*
X25502508Y-33744945D01*
X25701282Y-33805242D01*
X25701286Y-33805242D01*
X25701288Y-33805243D01*
X25907997Y-33825602D01*
X25908000Y-33825602D01*
X25908003Y-33825602D01*
X26114711Y-33805243D01*
X26114712Y-33805242D01*
X26114718Y-33805242D01*
X26313492Y-33744945D01*
X26496683Y-33647027D01*
X26496684Y-33647025D01*
X26496686Y-33647025D01*
X26496686Y-33647024D01*
X26657252Y-33515252D01*
X26789027Y-33354683D01*
X26886945Y-33171492D01*
X26947242Y-32972718D01*
X26948658Y-32958349D01*
X26967602Y-32766003D01*
X40088398Y-32766003D01*
X40108756Y-32972711D01*
X40169055Y-33171492D01*
X40266974Y-33354686D01*
X40398747Y-33515252D01*
X40559313Y-33647024D01*
X40559313Y-33647025D01*
X40559317Y-33647027D01*
X40742508Y-33744945D01*
X40941282Y-33805242D01*
X40941286Y-33805242D01*
X40941288Y-33805243D01*
X41147997Y-33825602D01*
X41148000Y-33825602D01*
X41148003Y-33825602D01*
X41354711Y-33805243D01*
X41354712Y-33805242D01*
X41354718Y-33805242D01*
X41553492Y-33744945D01*
X41736683Y-33647027D01*
X41736684Y-33647025D01*
X41736686Y-33647025D01*
X41736686Y-33647024D01*
X41881718Y-33528000D01*
X56052255Y-33528000D01*
X56072349Y-33680635D01*
X56072350Y-33680637D01*
X56131266Y-33822873D01*
X56224987Y-33945013D01*
X56347127Y-34038734D01*
X56489363Y-34097650D01*
X56642000Y-34117745D01*
X56794637Y-34097650D01*
X56936873Y-34038734D01*
X57059013Y-33945013D01*
X57152734Y-33822873D01*
X57211650Y-33680637D01*
X57231745Y-33528000D01*
X57211650Y-33375363D01*
X57152734Y-33233128D01*
X57059013Y-33110987D01*
X56936873Y-33017266D01*
X56829325Y-32972718D01*
X56794635Y-32958349D01*
X56642000Y-32938255D01*
X56489364Y-32958349D01*
X56347129Y-33017265D01*
X56347121Y-33017270D01*
X56224986Y-33110986D01*
X56131270Y-33233121D01*
X56131265Y-33233129D01*
X56072349Y-33375364D01*
X56052255Y-33527999D01*
X56052255Y-33528000D01*
X41881718Y-33528000D01*
X41897252Y-33515252D01*
X42029027Y-33354683D01*
X42126945Y-33171492D01*
X42187242Y-32972718D01*
X42188658Y-32958349D01*
X42207602Y-32766003D01*
X42207602Y-32765996D01*
X42187243Y-32559288D01*
X42187242Y-32559286D01*
X42187242Y-32559282D01*
X42126945Y-32360508D01*
X42029027Y-32177317D01*
X42029025Y-32177313D01*
X41897252Y-32016747D01*
X41736686Y-31884975D01*
X41736686Y-31884974D01*
X41553492Y-31787055D01*
X41354711Y-31726756D01*
X41148003Y-31706398D01*
X41147997Y-31706398D01*
X40941288Y-31726756D01*
X40742507Y-31787055D01*
X40559313Y-31884974D01*
X40559313Y-31884975D01*
X40398747Y-32016747D01*
X40266975Y-32177313D01*
X40266974Y-32177313D01*
X40169055Y-32360507D01*
X40108756Y-32559288D01*
X40088398Y-32765996D01*
X40088398Y-32766003D01*
X26967602Y-32766003D01*
X26967602Y-32765996D01*
X26947243Y-32559288D01*
X26947242Y-32559286D01*
X26947242Y-32559282D01*
X26886945Y-32360508D01*
X26789027Y-32177317D01*
X26789025Y-32177313D01*
X26657252Y-32016747D01*
X26496686Y-31884975D01*
X26496686Y-31884974D01*
X26313492Y-31787055D01*
X26114711Y-31726756D01*
X25908003Y-31706398D01*
X25907997Y-31706398D01*
X25701288Y-31726756D01*
X25502507Y-31787055D01*
X25319313Y-31884974D01*
X25319313Y-31884975D01*
X25158747Y-32016747D01*
X25026975Y-32177313D01*
X25026974Y-32177313D01*
X24929055Y-32360507D01*
X24868756Y-32559288D01*
X24848398Y-32765996D01*
X24848398Y-32766003D01*
X14169035Y-32766003D01*
X14150714Y-32746257D01*
X14117550Y-32719809D01*
X13945117Y-32582299D01*
X13945112Y-32582296D01*
X13945113Y-32582296D01*
X13717381Y-32450815D01*
X13717377Y-32450813D01*
X13472602Y-32354747D01*
X13472599Y-32354746D01*
X13216230Y-32296231D01*
X13019657Y-32281500D01*
X13019654Y-32281500D01*
X12888346Y-32281500D01*
X12888343Y-32281500D01*
X12691769Y-32296231D01*
X12435400Y-32354746D01*
X12435397Y-32354747D01*
X12190622Y-32450813D01*
X12190618Y-32450815D01*
X11962886Y-32582296D01*
X11757285Y-32746257D01*
X11578435Y-32939014D01*
X11578425Y-32939026D01*
X11430303Y-33156280D01*
X11430299Y-33156287D01*
X11316204Y-33393206D01*
X11238693Y-33644485D01*
X11238692Y-33644491D01*
X11238692Y-33644492D01*
X11199500Y-33904518D01*
X11199500Y-34167482D01*
X254000Y-34167482D01*
X254000Y-28194000D01*
X51988255Y-28194000D01*
X52008349Y-28346635D01*
X52008350Y-28346637D01*
X52067266Y-28488873D01*
X52160987Y-28611013D01*
X52283127Y-28704734D01*
X52425363Y-28763650D01*
X52578000Y-28783745D01*
X52730637Y-28763650D01*
X52872873Y-28704734D01*
X52995013Y-28611013D01*
X53088734Y-28488873D01*
X53147650Y-28346637D01*
X53167745Y-28194000D01*
X53147650Y-28041363D01*
X53088734Y-27899128D01*
X52995013Y-27776987D01*
X52872873Y-27683266D01*
X52730637Y-27624350D01*
X52730635Y-27624349D01*
X52578000Y-27604255D01*
X52425364Y-27624349D01*
X52283129Y-27683265D01*
X52283121Y-27683270D01*
X52160986Y-27776986D01*
X52067270Y-27899121D01*
X52067265Y-27899129D01*
X52008349Y-28041364D01*
X51988255Y-28193999D01*
X51988255Y-28194000D01*
X254000Y-28194000D01*
X254000Y-26670000D01*
X50464255Y-26670000D01*
X50484349Y-26822635D01*
X50484350Y-26822637D01*
X50543266Y-26964873D01*
X50636987Y-27087013D01*
X50759127Y-27180734D01*
X50901363Y-27239650D01*
X51054000Y-27259745D01*
X51206637Y-27239650D01*
X51348873Y-27180734D01*
X51471013Y-27087013D01*
X51564734Y-26964873D01*
X51623650Y-26822637D01*
X51643745Y-26670000D01*
X51623650Y-26517363D01*
X51564734Y-26375128D01*
X51471013Y-26252987D01*
X51348873Y-26159266D01*
X51206637Y-26100350D01*
X51206635Y-26100349D01*
X51054000Y-26080255D01*
X50901364Y-26100349D01*
X50759129Y-26159265D01*
X50759121Y-26159270D01*
X50636986Y-26252986D01*
X50543270Y-26375121D01*
X50543265Y-26375129D01*
X50484349Y-26517364D01*
X50464255Y-26669999D01*
X50464255Y-26670000D01*
X254000Y-26670000D01*
X254000Y-25908000D01*
X30906255Y-25908000D01*
X30926349Y-26060635D01*
X30942800Y-26100350D01*
X30985266Y-26202873D01*
X31078987Y-26325013D01*
X31201127Y-26418734D01*
X31343363Y-26477650D01*
X31496000Y-26497745D01*
X31648637Y-26477650D01*
X31790873Y-26418734D01*
X31913013Y-26325013D01*
X32006734Y-26202873D01*
X32065650Y-26060637D01*
X32065650Y-26060633D01*
X32066443Y-26058720D01*
X32110991Y-26003439D01*
X32178354Y-25981018D01*
X32199287Y-25982015D01*
X32258000Y-25989745D01*
X32410637Y-25969650D01*
X32552873Y-25910734D01*
X32675013Y-25817013D01*
X32768734Y-25694873D01*
X32827650Y-25552637D01*
X32827650Y-25552633D01*
X32828443Y-25550720D01*
X32872991Y-25495439D01*
X32940354Y-25473018D01*
X32961287Y-25474015D01*
X33020000Y-25481745D01*
X33172637Y-25461650D01*
X33314873Y-25402734D01*
X33437013Y-25309013D01*
X33530734Y-25186873D01*
X33589650Y-25044637D01*
X33589650Y-25044633D01*
X33590443Y-25042720D01*
X33634991Y-24987439D01*
X33702354Y-24965018D01*
X33723287Y-24966015D01*
X33782000Y-24973745D01*
X33934637Y-24953650D01*
X34076873Y-24894734D01*
X34199013Y-24801013D01*
X34292734Y-24678873D01*
X34351650Y-24536637D01*
X34351650Y-24536633D01*
X34352443Y-24534720D01*
X34396991Y-24479439D01*
X34464354Y-24457018D01*
X34485287Y-24458015D01*
X34544000Y-24465745D01*
X34696637Y-24445650D01*
X34838873Y-24386734D01*
X34961013Y-24293013D01*
X35054734Y-24170873D01*
X35113650Y-24028637D01*
X35113650Y-24028633D01*
X35114443Y-24026720D01*
X35158991Y-23971439D01*
X35226354Y-23949018D01*
X35247287Y-23950015D01*
X35306000Y-23957745D01*
X35458637Y-23937650D01*
X35600873Y-23878734D01*
X35723013Y-23785013D01*
X35816734Y-23662873D01*
X35875650Y-23520637D01*
X35895745Y-23368000D01*
X35886000Y-23293983D01*
X35875650Y-23215364D01*
X35847398Y-23147156D01*
X35816734Y-23073128D01*
X35723013Y-22950987D01*
X35600873Y-22857266D01*
X35541250Y-22832569D01*
X35458635Y-22798349D01*
X35306000Y-22778255D01*
X35153364Y-22798349D01*
X35011129Y-22857265D01*
X35011121Y-22857270D01*
X34888986Y-22950986D01*
X34795270Y-23073121D01*
X34795263Y-23073133D01*
X34735555Y-23217280D01*
X34691007Y-23272561D01*
X34623643Y-23294981D01*
X34602701Y-23293983D01*
X34544000Y-23286255D01*
X34391364Y-23306349D01*
X34249129Y-23365265D01*
X34249121Y-23365270D01*
X34126986Y-23458986D01*
X34033270Y-23581121D01*
X34033263Y-23581133D01*
X33973555Y-23725280D01*
X33929007Y-23780561D01*
X33861643Y-23802981D01*
X33840701Y-23801983D01*
X33782000Y-23794255D01*
X33629364Y-23814349D01*
X33487129Y-23873265D01*
X33487121Y-23873270D01*
X33364986Y-23966986D01*
X33271270Y-24089121D01*
X33271263Y-24089133D01*
X33211555Y-24233280D01*
X33167007Y-24288561D01*
X33099643Y-24310981D01*
X33078701Y-24309983D01*
X33020000Y-24302255D01*
X32867364Y-24322349D01*
X32725129Y-24381265D01*
X32725121Y-24381270D01*
X32602986Y-24474986D01*
X32509270Y-24597121D01*
X32509263Y-24597133D01*
X32449555Y-24741280D01*
X32405007Y-24796561D01*
X32337643Y-24818981D01*
X32316701Y-24817983D01*
X32258000Y-24810255D01*
X32105364Y-24830349D01*
X31963129Y-24889265D01*
X31963121Y-24889270D01*
X31840986Y-24982986D01*
X31747270Y-25105121D01*
X31747263Y-25105133D01*
X31687555Y-25249280D01*
X31643007Y-25304561D01*
X31575643Y-25326981D01*
X31554701Y-25325983D01*
X31496000Y-25318255D01*
X31343364Y-25338349D01*
X31201129Y-25397265D01*
X31201121Y-25397270D01*
X31078986Y-25490986D01*
X30985270Y-25613121D01*
X30985265Y-25613129D01*
X30926349Y-25755364D01*
X30906255Y-25907999D01*
X30906255Y-25908000D01*
X254000Y-25908000D01*
X254000Y-13462000D01*
X7030255Y-13462000D01*
X7050349Y-13614635D01*
X7050350Y-13614637D01*
X7109266Y-13756873D01*
X7202987Y-13879013D01*
X7325127Y-13972734D01*
X7467363Y-14031650D01*
X7472089Y-14032272D01*
X7537015Y-14060989D01*
X7576111Y-14120252D01*
X7576960Y-14191244D01*
X7539294Y-14251425D01*
X7532353Y-14257156D01*
X7456986Y-14314987D01*
X7363270Y-14437121D01*
X7363265Y-14437129D01*
X7304349Y-14579364D01*
X7284255Y-14731999D01*
X7284255Y-14732000D01*
X7304349Y-14884635D01*
X7362172Y-15024231D01*
X7363266Y-15026873D01*
X7456987Y-15149013D01*
X7579127Y-15242734D01*
X7721363Y-15301650D01*
X7726089Y-15302272D01*
X7791015Y-15330989D01*
X7830111Y-15390252D01*
X7830960Y-15461244D01*
X7793294Y-15521425D01*
X7786353Y-15527156D01*
X7710986Y-15584987D01*
X7617270Y-15707121D01*
X7617265Y-15707129D01*
X7558349Y-15849364D01*
X7538255Y-16001999D01*
X7538255Y-16002000D01*
X7558349Y-16154635D01*
X7558350Y-16154637D01*
X7617266Y-16296873D01*
X7710987Y-16419013D01*
X7833127Y-16512734D01*
X7975363Y-16571650D01*
X7980089Y-16572272D01*
X8045015Y-16600989D01*
X8084111Y-16660252D01*
X8084960Y-16731244D01*
X8047294Y-16791425D01*
X8040353Y-16797156D01*
X7964986Y-16854987D01*
X7871270Y-16977121D01*
X7871265Y-16977129D01*
X7812349Y-17119364D01*
X7792255Y-17271999D01*
X7792255Y-17272000D01*
X7812349Y-17424635D01*
X7812350Y-17424637D01*
X7871266Y-17566873D01*
X7964987Y-17689013D01*
X8087127Y-17782734D01*
X8229363Y-17841650D01*
X8234089Y-17842272D01*
X8299015Y-17870989D01*
X8338111Y-17930252D01*
X8338960Y-18001244D01*
X8301294Y-18061425D01*
X8294353Y-18067156D01*
X8218986Y-18124987D01*
X8125270Y-18247121D01*
X8125265Y-18247129D01*
X8066349Y-18389364D01*
X8046255Y-18541999D01*
X8046255Y-18542000D01*
X8066349Y-18694635D01*
X8066350Y-18694637D01*
X8125266Y-18836873D01*
X8218987Y-18959013D01*
X8341127Y-19052734D01*
X8483363Y-19111650D01*
X8488089Y-19112272D01*
X8553015Y-19140989D01*
X8592111Y-19200252D01*
X8592960Y-19271244D01*
X8555294Y-19331425D01*
X8548353Y-19337156D01*
X8472986Y-19394987D01*
X8379270Y-19517121D01*
X8379265Y-19517129D01*
X8320349Y-19659364D01*
X8300255Y-19811999D01*
X8300255Y-19812000D01*
X8320349Y-19964635D01*
X8320350Y-19964637D01*
X8379266Y-20106873D01*
X8472987Y-20229013D01*
X8595127Y-20322734D01*
X8737363Y-20381650D01*
X8742089Y-20382272D01*
X8807015Y-20410989D01*
X8846111Y-20470252D01*
X8846960Y-20541244D01*
X8809294Y-20601425D01*
X8802353Y-20607156D01*
X8726986Y-20664987D01*
X8633270Y-20787121D01*
X8633265Y-20787129D01*
X8574349Y-20929364D01*
X8554255Y-21081999D01*
X8554255Y-21082000D01*
X8574349Y-21234635D01*
X8599407Y-21295129D01*
X8633266Y-21376873D01*
X8726987Y-21499013D01*
X8849127Y-21592734D01*
X8991363Y-21651650D01*
X8996089Y-21652272D01*
X9061015Y-21680989D01*
X9100111Y-21740252D01*
X9100960Y-21811244D01*
X9063294Y-21871425D01*
X9056353Y-21877156D01*
X8980986Y-21934987D01*
X8887270Y-22057121D01*
X8887265Y-22057129D01*
X8828349Y-22199364D01*
X8808255Y-22351999D01*
X8808255Y-22352000D01*
X8828349Y-22504635D01*
X8871468Y-22608732D01*
X8887266Y-22646873D01*
X8980987Y-22769013D01*
X9103127Y-22862734D01*
X9245363Y-22921650D01*
X9250089Y-22922272D01*
X9315015Y-22950989D01*
X9354111Y-23010252D01*
X9354960Y-23081244D01*
X9317294Y-23141425D01*
X9310353Y-23147156D01*
X9234986Y-23204987D01*
X9141270Y-23327121D01*
X9141265Y-23327129D01*
X9082349Y-23469364D01*
X9062255Y-23621999D01*
X9062255Y-23622000D01*
X9082349Y-23774635D01*
X9125468Y-23878732D01*
X9141266Y-23916873D01*
X9234987Y-24039013D01*
X9357127Y-24132734D01*
X9499363Y-24191650D01*
X9652000Y-24211745D01*
X9804637Y-24191650D01*
X9946873Y-24132734D01*
X10069013Y-24039013D01*
X10162734Y-23916873D01*
X10221650Y-23774637D01*
X10241745Y-23622000D01*
X10221650Y-23469363D01*
X10162734Y-23327128D01*
X10069013Y-23204987D01*
X9946873Y-23111266D01*
X9874394Y-23081244D01*
X9804635Y-23052349D01*
X9800518Y-23051807D01*
X9799903Y-23051726D01*
X9734977Y-23023004D01*
X9695886Y-22963739D01*
X9695041Y-22892747D01*
X9732712Y-22832569D01*
X9739641Y-22826847D01*
X9815013Y-22769013D01*
X9908734Y-22646873D01*
X9967650Y-22504637D01*
X9987745Y-22352000D01*
X9967650Y-22199363D01*
X9925664Y-22098000D01*
X19476255Y-22098000D01*
X19496349Y-22250635D01*
X19543801Y-22365193D01*
X19555266Y-22392873D01*
X19648987Y-22515013D01*
X19771127Y-22608734D01*
X19913363Y-22667650D01*
X20066000Y-22687745D01*
X20172947Y-22673665D01*
X20243095Y-22684604D01*
X20296194Y-22731732D01*
X20315384Y-22800086D01*
X20305802Y-22846805D01*
X20258349Y-22961364D01*
X20238255Y-23113999D01*
X20238255Y-23114000D01*
X20258349Y-23266635D01*
X20283407Y-23327129D01*
X20317266Y-23408873D01*
X20410987Y-23531013D01*
X20533127Y-23624734D01*
X20675363Y-23683650D01*
X20828000Y-23703745D01*
X20980637Y-23683650D01*
X21122873Y-23624734D01*
X21245013Y-23531013D01*
X21338734Y-23408873D01*
X21397650Y-23266637D01*
X21417745Y-23114000D01*
X21397650Y-22961363D01*
X21338734Y-22819128D01*
X21245013Y-22696987D01*
X21122873Y-22603266D01*
X20980637Y-22544350D01*
X20980635Y-22544349D01*
X20828000Y-22524255D01*
X20827998Y-22524255D01*
X20721052Y-22538334D01*
X20650904Y-22527394D01*
X20597805Y-22480266D01*
X20578616Y-22411912D01*
X20588196Y-22365199D01*
X20635650Y-22250637D01*
X20655745Y-22098000D01*
X20635650Y-21945363D01*
X20576734Y-21803128D01*
X20483013Y-21680987D01*
X20364436Y-21590000D01*
X24810255Y-21590000D01*
X24830349Y-21742635D01*
X24886070Y-21877156D01*
X24889266Y-21884873D01*
X24982987Y-22007013D01*
X25105127Y-22100734D01*
X25247363Y-22159650D01*
X25400000Y-22179745D01*
X25552637Y-22159650D01*
X25694873Y-22100734D01*
X25817013Y-22007013D01*
X25910734Y-21884873D01*
X25969650Y-21742637D01*
X25989745Y-21590000D01*
X25969650Y-21437363D01*
X25910734Y-21295128D01*
X25817013Y-21172987D01*
X25694873Y-21079266D01*
X25552637Y-21020350D01*
X25552635Y-21020349D01*
X25400000Y-21000255D01*
X25247364Y-21020349D01*
X25105129Y-21079265D01*
X25105121Y-21079270D01*
X24982986Y-21172986D01*
X24889270Y-21295121D01*
X24889265Y-21295129D01*
X24830349Y-21437364D01*
X24810255Y-21589999D01*
X24810255Y-21590000D01*
X20364436Y-21590000D01*
X20360873Y-21587266D01*
X20301250Y-21562569D01*
X20218635Y-21528349D01*
X20066000Y-21508255D01*
X19913364Y-21528349D01*
X19771129Y-21587265D01*
X19771121Y-21587270D01*
X19648986Y-21680986D01*
X19555270Y-21803121D01*
X19555265Y-21803129D01*
X19496349Y-21945364D01*
X19476255Y-22097999D01*
X19476255Y-22098000D01*
X9925664Y-22098000D01*
X9908734Y-22057128D01*
X9815013Y-21934987D01*
X9692873Y-21841266D01*
X9620394Y-21811244D01*
X9550635Y-21782349D01*
X9546518Y-21781807D01*
X9545903Y-21781726D01*
X9480977Y-21753004D01*
X9441886Y-21693739D01*
X9441041Y-21622747D01*
X9478712Y-21562569D01*
X9485641Y-21556847D01*
X9561013Y-21499013D01*
X9654734Y-21376873D01*
X9713650Y-21234637D01*
X9733745Y-21082000D01*
X9713650Y-20929363D01*
X9654734Y-20787128D01*
X9561013Y-20664987D01*
X9438873Y-20571266D01*
X9366394Y-20541244D01*
X9296635Y-20512349D01*
X9292518Y-20511807D01*
X9291903Y-20511726D01*
X9226977Y-20483004D01*
X9187886Y-20423739D01*
X9187041Y-20352747D01*
X9224712Y-20292569D01*
X9231641Y-20286847D01*
X9307013Y-20229013D01*
X9400734Y-20106873D01*
X9459650Y-19964637D01*
X9479745Y-19812000D01*
X9459650Y-19659363D01*
X9400734Y-19517128D01*
X9307013Y-19394987D01*
X9184873Y-19301266D01*
X9112394Y-19271244D01*
X9042635Y-19242349D01*
X9038518Y-19241807D01*
X9037903Y-19241726D01*
X8972977Y-19213004D01*
X8933886Y-19153739D01*
X8933041Y-19082747D01*
X8970712Y-19022569D01*
X8977641Y-19016847D01*
X9053013Y-18959013D01*
X9091341Y-18909063D01*
X69507500Y-18909063D01*
X69507501Y-18909073D01*
X69522265Y-18983300D01*
X69578516Y-19067484D01*
X69662697Y-19123733D01*
X69662699Y-19123734D01*
X69736933Y-19138500D01*
X71487066Y-19138499D01*
X71487069Y-19138498D01*
X71487073Y-19138498D01*
X71536326Y-19128701D01*
X71561301Y-19123734D01*
X71645484Y-19067484D01*
X71701734Y-18983301D01*
X71716500Y-18909067D01*
X71716499Y-17158934D01*
X71716498Y-17158930D01*
X71716498Y-17158926D01*
X71701734Y-17084699D01*
X71645483Y-17000515D01*
X71561302Y-16944266D01*
X71487067Y-16929500D01*
X69736936Y-16929500D01*
X69736926Y-16929501D01*
X69662699Y-16944265D01*
X69578515Y-17000516D01*
X69522266Y-17084697D01*
X69507500Y-17158930D01*
X69507500Y-18909063D01*
X9091341Y-18909063D01*
X9146734Y-18836873D01*
X9205650Y-18694637D01*
X9225745Y-18542000D01*
X9205650Y-18389363D01*
X9146734Y-18247128D01*
X9053013Y-18124987D01*
X8930873Y-18031266D01*
X8858394Y-18001244D01*
X8788635Y-17972349D01*
X8784518Y-17971807D01*
X8783903Y-17971726D01*
X8718977Y-17943004D01*
X8679886Y-17883739D01*
X8679041Y-17812747D01*
X8716712Y-17752569D01*
X8723641Y-17746847D01*
X8799013Y-17689013D01*
X8892734Y-17566873D01*
X8951650Y-17424637D01*
X8971745Y-17272000D01*
X8951650Y-17119363D01*
X8892734Y-16977128D01*
X8830086Y-16895482D01*
X72921500Y-16895482D01*
X72960692Y-17155506D01*
X72960693Y-17155514D01*
X73038204Y-17406793D01*
X73152299Y-17643712D01*
X73152303Y-17643719D01*
X73267545Y-17812747D01*
X73300430Y-17860980D01*
X73300435Y-17860985D01*
X73479285Y-18053742D01*
X73479289Y-18053745D01*
X73479290Y-18053746D01*
X73684883Y-18217701D01*
X73684886Y-18217703D01*
X73912618Y-18349184D01*
X73912622Y-18349186D01*
X74143899Y-18439954D01*
X74157402Y-18445254D01*
X74413772Y-18503769D01*
X74566150Y-18515188D01*
X74610343Y-18518500D01*
X74610346Y-18518500D01*
X74741657Y-18518500D01*
X74782768Y-18515418D01*
X74938228Y-18503769D01*
X75194598Y-18445254D01*
X75348787Y-18384739D01*
X75439377Y-18349186D01*
X75439381Y-18349184D01*
X75439380Y-18349184D01*
X75439384Y-18349183D01*
X75667117Y-18217701D01*
X75872710Y-18053746D01*
X76051570Y-17860980D01*
X76199702Y-17643710D01*
X76313798Y-17406788D01*
X76391308Y-17155508D01*
X76430500Y-16895482D01*
X76430500Y-16632518D01*
X76391308Y-16372492D01*
X76313798Y-16121212D01*
X76199702Y-15884290D01*
X76199700Y-15884287D01*
X76199696Y-15884280D01*
X76051574Y-15667026D01*
X76051570Y-15667020D01*
X75921796Y-15527156D01*
X75872714Y-15474257D01*
X75807325Y-15422111D01*
X75667117Y-15310299D01*
X75667112Y-15310296D01*
X75667113Y-15310296D01*
X75439381Y-15178815D01*
X75439377Y-15178813D01*
X75194602Y-15082747D01*
X75194599Y-15082746D01*
X74938230Y-15024231D01*
X74741657Y-15009500D01*
X74741654Y-15009500D01*
X74610346Y-15009500D01*
X74610343Y-15009500D01*
X74413769Y-15024231D01*
X74157400Y-15082746D01*
X74157397Y-15082747D01*
X73912622Y-15178813D01*
X73912618Y-15178815D01*
X73684886Y-15310296D01*
X73479285Y-15474257D01*
X73300435Y-15667014D01*
X73300425Y-15667026D01*
X73152303Y-15884280D01*
X73152299Y-15884287D01*
X73038204Y-16121206D01*
X72960693Y-16372485D01*
X72960692Y-16372491D01*
X72960692Y-16372492D01*
X72921500Y-16632518D01*
X72921500Y-16895482D01*
X8830086Y-16895482D01*
X8799013Y-16854987D01*
X8676873Y-16761266D01*
X8604394Y-16731244D01*
X8534635Y-16702349D01*
X8530518Y-16701807D01*
X8529903Y-16701726D01*
X8464977Y-16673004D01*
X8425886Y-16613739D01*
X8425041Y-16542747D01*
X8462712Y-16482569D01*
X8469641Y-16476847D01*
X8545013Y-16419013D01*
X8638734Y-16296873D01*
X8655664Y-16256000D01*
X39542255Y-16256000D01*
X39562349Y-16408635D01*
X39605468Y-16512732D01*
X39621266Y-16550873D01*
X39714987Y-16673013D01*
X39837127Y-16766734D01*
X39979363Y-16825650D01*
X40132000Y-16845745D01*
X40284637Y-16825650D01*
X40426873Y-16766734D01*
X40549013Y-16673013D01*
X40642734Y-16550873D01*
X40701650Y-16408637D01*
X40721745Y-16256000D01*
X40701650Y-16103363D01*
X40642734Y-15961128D01*
X40549013Y-15838987D01*
X40426873Y-15745266D01*
X40326872Y-15703844D01*
X40284635Y-15686349D01*
X40132000Y-15666255D01*
X39979364Y-15686349D01*
X39837129Y-15745265D01*
X39837121Y-15745270D01*
X39714986Y-15838986D01*
X39621270Y-15961121D01*
X39621265Y-15961129D01*
X39562349Y-16103364D01*
X39542255Y-16255999D01*
X39542255Y-16256000D01*
X8655664Y-16256000D01*
X8697650Y-16154637D01*
X8717745Y-16002000D01*
X8697650Y-15849363D01*
X8638734Y-15707128D01*
X8545013Y-15584987D01*
X8422873Y-15491266D01*
X8381803Y-15474254D01*
X8280635Y-15432349D01*
X8276518Y-15431807D01*
X8275903Y-15431726D01*
X8210977Y-15403004D01*
X8171886Y-15343739D01*
X8171041Y-15272747D01*
X8191541Y-15239999D01*
X69536450Y-15239999D01*
X69536451Y-15240000D01*
X70180884Y-15240000D01*
X70152507Y-15284156D01*
X70112000Y-15422111D01*
X70112000Y-15565889D01*
X70152507Y-15703844D01*
X70180884Y-15748000D01*
X69536451Y-15748000D01*
X69578138Y-15894514D01*
X69578140Y-15894519D01*
X69669340Y-16077672D01*
X69792637Y-16240946D01*
X69943838Y-16378784D01*
X70117796Y-16486493D01*
X70117803Y-16486496D01*
X70308582Y-16560405D01*
X70357999Y-16569642D01*
X70358000Y-16569642D01*
X70358000Y-15927674D01*
X70469685Y-15978680D01*
X70576237Y-15994000D01*
X70647763Y-15994000D01*
X70754315Y-15978680D01*
X70866000Y-15927674D01*
X70866000Y-16569642D01*
X70915417Y-16560405D01*
X70915418Y-16560405D01*
X71106196Y-16486496D01*
X71106203Y-16486493D01*
X71280161Y-16378784D01*
X71431362Y-16240946D01*
X71554659Y-16077672D01*
X71645859Y-15894519D01*
X71645861Y-15894514D01*
X71687549Y-15748000D01*
X71043116Y-15748000D01*
X71071493Y-15703844D01*
X71112000Y-15565889D01*
X71112000Y-15422111D01*
X71071493Y-15284156D01*
X71043116Y-15240000D01*
X71687549Y-15240000D01*
X71687549Y-15239999D01*
X71645861Y-15093485D01*
X71645859Y-15093480D01*
X71554659Y-14910327D01*
X71431362Y-14747053D01*
X71280161Y-14609215D01*
X71106203Y-14501506D01*
X71106196Y-14501503D01*
X70915424Y-14427596D01*
X70866000Y-14418357D01*
X70866000Y-15060325D01*
X70754315Y-15009320D01*
X70647763Y-14994000D01*
X70576237Y-14994000D01*
X70469685Y-15009320D01*
X70358000Y-15060325D01*
X70358000Y-14418357D01*
X70308575Y-14427596D01*
X70117803Y-14501503D01*
X70117796Y-14501506D01*
X69943838Y-14609215D01*
X69792637Y-14747053D01*
X69669340Y-14910327D01*
X69578140Y-15093480D01*
X69578138Y-15093485D01*
X69536450Y-15239999D01*
X8191541Y-15239999D01*
X8208712Y-15212569D01*
X8215641Y-15206847D01*
X8291013Y-15149013D01*
X8384734Y-15026873D01*
X8443650Y-14884637D01*
X8463745Y-14732000D01*
X8443650Y-14579363D01*
X8384734Y-14437128D01*
X8291013Y-14314987D01*
X8168873Y-14221266D01*
X8096394Y-14191244D01*
X8026635Y-14162349D01*
X8022518Y-14161807D01*
X8021903Y-14161726D01*
X7956977Y-14133004D01*
X7917886Y-14073739D01*
X7917041Y-14002747D01*
X7954712Y-13942569D01*
X7961641Y-13936847D01*
X8037013Y-13879013D01*
X8130734Y-13756873D01*
X8189650Y-13614637D01*
X8209745Y-13462000D01*
X8189650Y-13309363D01*
X8130734Y-13167128D01*
X8037013Y-13044987D01*
X7914873Y-12951266D01*
X7772637Y-12892350D01*
X7772635Y-12892349D01*
X7620000Y-12872255D01*
X7467364Y-12892349D01*
X7325129Y-12951265D01*
X7325121Y-12951270D01*
X7202986Y-13044986D01*
X7109270Y-13167121D01*
X7109265Y-13167129D01*
X7050349Y-13309364D01*
X7030255Y-13461999D01*
X7030255Y-13462000D01*
X254000Y-13462000D01*
X254000Y-9652000D01*
X39110675Y-9652000D01*
X39129912Y-9822744D01*
X39186664Y-9984930D01*
X39186665Y-9984933D01*
X39278079Y-10130417D01*
X39278080Y-10130419D01*
X39399580Y-10251919D01*
X39399582Y-10251920D01*
X39545066Y-10343334D01*
X39545067Y-10343334D01*
X39545070Y-10343336D01*
X39707254Y-10400087D01*
X39707253Y-10400087D01*
X39724543Y-10402034D01*
X39878000Y-10419325D01*
X40048746Y-10400087D01*
X40210930Y-10343336D01*
X40356419Y-10251919D01*
X40477919Y-10130419D01*
X40569336Y-9984930D01*
X40626087Y-9822746D01*
X40645325Y-9652000D01*
X40626087Y-9481254D01*
X40569336Y-9319070D01*
X40569334Y-9319067D01*
X40569334Y-9319066D01*
X40477920Y-9173582D01*
X40477919Y-9173580D01*
X40356419Y-9052080D01*
X40356417Y-9052079D01*
X40210933Y-8960665D01*
X40210930Y-8960664D01*
X40048746Y-8903913D01*
X40048744Y-8903912D01*
X40048746Y-8903912D01*
X39878000Y-8884675D01*
X39707255Y-8903912D01*
X39545069Y-8960664D01*
X39545066Y-8960665D01*
X39399582Y-9052079D01*
X39399580Y-9052080D01*
X39278080Y-9173580D01*
X39278079Y-9173582D01*
X39186665Y-9319066D01*
X39186664Y-9319069D01*
X39129912Y-9481255D01*
X39110675Y-9652000D01*
X254000Y-9652000D01*
X254000Y-2855590D01*
X6371180Y-2855590D01*
X6400849Y-3099932D01*
X6400849Y-3099933D01*
X6469326Y-3336343D01*
X6469327Y-3336348D01*
X6574847Y-3558727D01*
X6714666Y-3761291D01*
X6714671Y-3761298D01*
X6714673Y-3761300D01*
X6885180Y-3938817D01*
X6885183Y-3938819D01*
X6885187Y-3938823D01*
X6988844Y-4016715D01*
X7081956Y-4086684D01*
X7081958Y-4086685D01*
X7081960Y-4086687D01*
X7299900Y-4201071D01*
X7299903Y-4201072D01*
X7533376Y-4279017D01*
X7584714Y-4287360D01*
X7776317Y-4318498D01*
X7776319Y-4318498D01*
X7776330Y-4318500D01*
X7776334Y-4318500D01*
X7960845Y-4318500D01*
X8042575Y-4311901D01*
X8144743Y-4303654D01*
X8383731Y-4244749D01*
X8610176Y-4148270D01*
X8818211Y-4016716D01*
X9002450Y-3853494D01*
X9158121Y-3662832D01*
X9281191Y-3449668D01*
X9310995Y-3371081D01*
X12079766Y-3371081D01*
X12109968Y-3645565D01*
X12109969Y-3645570D01*
X12179813Y-3912729D01*
X12287812Y-4166871D01*
X12287813Y-4166872D01*
X12431666Y-4402584D01*
X12608305Y-4614839D01*
X12813967Y-4799112D01*
X13044268Y-4951478D01*
X13044277Y-4951482D01*
X13044280Y-4951484D01*
X13294296Y-5068687D01*
X13294298Y-5068687D01*
X13294299Y-5068688D01*
X13558732Y-5148244D01*
X13558735Y-5148244D01*
X13558737Y-5148245D01*
X13831926Y-5188450D01*
X13831930Y-5188450D01*
X14038945Y-5188450D01*
X14107763Y-5183413D01*
X14245404Y-5173339D01*
X14514938Y-5113298D01*
X14772858Y-5014652D01*
X15013666Y-4879504D01*
X15232231Y-4710734D01*
X15423893Y-4511939D01*
X15584568Y-4287357D01*
X15606475Y-4244749D01*
X15710831Y-4041773D01*
X15710832Y-4041771D01*
X15775063Y-3853494D01*
X15799992Y-3780422D01*
X15836737Y-3581486D01*
X15850148Y-3508883D01*
X15850149Y-3508873D01*
X15850198Y-3507540D01*
X15860234Y-3232919D01*
X15830032Y-2958435D01*
X15760187Y-2691273D01*
X15725498Y-2609644D01*
X15652187Y-2437128D01*
X15544453Y-2260600D01*
X32678000Y-2260600D01*
X33350884Y-2260600D01*
X33322507Y-2304756D01*
X33282000Y-2442711D01*
X33282000Y-2586489D01*
X33322507Y-2724444D01*
X33350884Y-2768600D01*
X32678001Y-2768600D01*
X32678001Y-3389622D01*
X32692737Y-3463705D01*
X32692737Y-3463707D01*
X32748875Y-3547724D01*
X32832893Y-3603862D01*
X32832894Y-3603863D01*
X32906980Y-3618599D01*
X33528000Y-3618599D01*
X33528000Y-2948274D01*
X33639685Y-2999280D01*
X33746237Y-3014600D01*
X33817763Y-3014600D01*
X33924315Y-2999280D01*
X34036000Y-2948274D01*
X34036000Y-3618599D01*
X34657014Y-3618599D01*
X34657022Y-3618598D01*
X34731105Y-3603862D01*
X34731107Y-3603862D01*
X34815124Y-3547724D01*
X34871262Y-3463706D01*
X34871263Y-3463705D01*
X34885999Y-3389622D01*
X34886000Y-3389615D01*
X34886000Y-2768600D01*
X34213116Y-2768600D01*
X34241493Y-2724444D01*
X34282000Y-2586489D01*
X34282000Y-2514604D01*
X35212768Y-2514604D01*
X35231654Y-2718419D01*
X35267783Y-2845398D01*
X35287672Y-2915301D01*
X35378912Y-3098535D01*
X35378913Y-3098536D01*
X35502266Y-3261884D01*
X35653536Y-3399785D01*
X35827566Y-3507540D01*
X35827568Y-3507540D01*
X35827573Y-3507544D01*
X36018444Y-3581488D01*
X36219653Y-3619100D01*
X36219655Y-3619100D01*
X36424345Y-3619100D01*
X36424347Y-3619100D01*
X36625556Y-3581488D01*
X36816427Y-3507544D01*
X36990462Y-3399786D01*
X37141732Y-3261885D01*
X37265088Y-3098535D01*
X37356328Y-2915301D01*
X37412345Y-2718421D01*
X37422425Y-2609644D01*
X37431232Y-2514604D01*
X37752768Y-2514604D01*
X37771654Y-2718419D01*
X37807783Y-2845398D01*
X37827672Y-2915301D01*
X37918912Y-3098535D01*
X37918913Y-3098536D01*
X38042266Y-3261884D01*
X38193536Y-3399785D01*
X38367566Y-3507540D01*
X38367568Y-3507540D01*
X38367573Y-3507544D01*
X38558444Y-3581488D01*
X38759653Y-3619100D01*
X38759655Y-3619100D01*
X38964345Y-3619100D01*
X38964347Y-3619100D01*
X39165556Y-3581488D01*
X39356427Y-3507544D01*
X39530462Y-3399786D01*
X39681732Y-3261885D01*
X39805088Y-3098535D01*
X39896328Y-2915301D01*
X39952345Y-2718421D01*
X39962425Y-2609644D01*
X39971232Y-2514604D01*
X40292768Y-2514604D01*
X40311654Y-2718419D01*
X40347783Y-2845398D01*
X40367672Y-2915301D01*
X40458912Y-3098535D01*
X40458913Y-3098536D01*
X40582266Y-3261884D01*
X40733536Y-3399785D01*
X40907566Y-3507540D01*
X40907568Y-3507540D01*
X40907573Y-3507544D01*
X41098444Y-3581488D01*
X41299653Y-3619100D01*
X41299655Y-3619100D01*
X41504345Y-3619100D01*
X41504347Y-3619100D01*
X41705556Y-3581488D01*
X41896427Y-3507544D01*
X42070462Y-3399786D01*
X42221732Y-3261885D01*
X42345088Y-3098535D01*
X42436328Y-2915301D01*
X42492345Y-2718421D01*
X42502425Y-2609644D01*
X42511232Y-2514604D01*
X42832768Y-2514604D01*
X42851654Y-2718419D01*
X42887783Y-2845398D01*
X42907672Y-2915301D01*
X42998912Y-3098535D01*
X42998913Y-3098536D01*
X43122266Y-3261884D01*
X43273536Y-3399785D01*
X43447566Y-3507540D01*
X43447568Y-3507540D01*
X43447573Y-3507544D01*
X43638444Y-3581488D01*
X43839653Y-3619100D01*
X43839655Y-3619100D01*
X44044345Y-3619100D01*
X44044347Y-3619100D01*
X44245556Y-3581488D01*
X44436427Y-3507544D01*
X44610462Y-3399786D01*
X44761732Y-3261885D01*
X44885088Y-3098535D01*
X44976328Y-2915301D01*
X45032345Y-2718421D01*
X45042425Y-2609644D01*
X45051232Y-2514604D01*
X45372768Y-2514604D01*
X45391654Y-2718419D01*
X45427783Y-2845398D01*
X45447672Y-2915301D01*
X45538912Y-3098535D01*
X45538913Y-3098536D01*
X45662266Y-3261884D01*
X45813536Y-3399785D01*
X45987566Y-3507540D01*
X45987568Y-3507540D01*
X45987573Y-3507544D01*
X46178444Y-3581488D01*
X46379653Y-3619100D01*
X46379655Y-3619100D01*
X46584345Y-3619100D01*
X46584347Y-3619100D01*
X46785556Y-3581488D01*
X46976427Y-3507544D01*
X47150462Y-3399786D01*
X47301732Y-3261885D01*
X47425088Y-3098535D01*
X47516328Y-2915301D01*
X47572345Y-2718421D01*
X47582425Y-2609644D01*
X47591232Y-2514604D01*
X47912768Y-2514604D01*
X47931654Y-2718419D01*
X47967783Y-2845398D01*
X47987672Y-2915301D01*
X48078912Y-3098535D01*
X48078913Y-3098536D01*
X48202266Y-3261884D01*
X48353536Y-3399785D01*
X48527566Y-3507540D01*
X48527568Y-3507540D01*
X48527573Y-3507544D01*
X48718444Y-3581488D01*
X48919653Y-3619100D01*
X48919655Y-3619100D01*
X49124345Y-3619100D01*
X49124347Y-3619100D01*
X49325556Y-3581488D01*
X49516427Y-3507544D01*
X49690462Y-3399786D01*
X49721950Y-3371081D01*
X66943766Y-3371081D01*
X66973968Y-3645565D01*
X66973969Y-3645570D01*
X67043813Y-3912729D01*
X67151812Y-4166871D01*
X67151813Y-4166872D01*
X67295666Y-4402584D01*
X67472305Y-4614839D01*
X67677967Y-4799112D01*
X67908268Y-4951478D01*
X67908277Y-4951482D01*
X67908280Y-4951484D01*
X68158296Y-5068687D01*
X68158298Y-5068687D01*
X68158299Y-5068688D01*
X68422732Y-5148244D01*
X68422735Y-5148244D01*
X68422737Y-5148245D01*
X68695926Y-5188450D01*
X68695930Y-5188450D01*
X68902945Y-5188450D01*
X68971763Y-5183413D01*
X69109404Y-5173339D01*
X69378938Y-5113298D01*
X69636858Y-5014652D01*
X69877666Y-4879504D01*
X70096231Y-4710734D01*
X70287893Y-4511939D01*
X70448568Y-4287357D01*
X70470475Y-4244749D01*
X70574831Y-4041773D01*
X70574832Y-4041771D01*
X70639063Y-3853494D01*
X70663992Y-3780422D01*
X70700737Y-3581486D01*
X70714148Y-3508883D01*
X70714149Y-3508873D01*
X70714198Y-3507540D01*
X70724234Y-3232919D01*
X70694032Y-2958435D01*
X70667145Y-2855590D01*
X73376380Y-2855590D01*
X73406049Y-3099932D01*
X73406049Y-3099933D01*
X73474526Y-3336343D01*
X73474527Y-3336348D01*
X73580047Y-3558727D01*
X73719866Y-3761291D01*
X73719871Y-3761298D01*
X73719873Y-3761300D01*
X73890380Y-3938817D01*
X73890383Y-3938819D01*
X73890387Y-3938823D01*
X73994044Y-4016715D01*
X74087156Y-4086684D01*
X74087158Y-4086685D01*
X74087160Y-4086687D01*
X74305100Y-4201071D01*
X74305103Y-4201072D01*
X74538576Y-4279017D01*
X74589914Y-4287360D01*
X74781517Y-4318498D01*
X74781519Y-4318498D01*
X74781530Y-4318500D01*
X74781534Y-4318500D01*
X74966045Y-4318500D01*
X75047775Y-4311901D01*
X75149943Y-4303654D01*
X75388931Y-4244749D01*
X75615376Y-4148270D01*
X75823411Y-4016716D01*
X76007650Y-3853494D01*
X76163321Y-3662832D01*
X76286391Y-3449668D01*
X76373674Y-3219522D01*
X76422909Y-2978356D01*
X76432820Y-2732415D01*
X76403151Y-2488069D01*
X76334673Y-2251656D01*
X76334672Y-2251651D01*
X76310835Y-2201416D01*
X76229151Y-2029270D01*
X76161089Y-1930665D01*
X76089333Y-1826708D01*
X76089325Y-1826698D01*
X76032287Y-1767315D01*
X75918820Y-1649183D01*
X75918815Y-1649179D01*
X75918812Y-1649176D01*
X75722041Y-1501314D01*
X75722039Y-1501312D01*
X75504099Y-1386928D01*
X75504096Y-1386927D01*
X75270621Y-1308982D01*
X75270622Y-1308982D01*
X75027682Y-1269501D01*
X75027672Y-1269500D01*
X75027670Y-1269500D01*
X74843159Y-1269500D01*
X74843155Y-1269500D01*
X74659261Y-1284345D01*
X74420267Y-1343251D01*
X74193825Y-1439729D01*
X73985788Y-1571284D01*
X73801549Y-1734506D01*
X73801546Y-1734510D01*
X73645882Y-1925163D01*
X73645879Y-1925167D01*
X73645879Y-1925168D01*
X73642705Y-1930665D01*
X73522813Y-2138324D01*
X73522810Y-2138329D01*
X73435527Y-2368474D01*
X73435526Y-2368476D01*
X73435526Y-2368478D01*
X73411111Y-2488069D01*
X73386291Y-2609644D01*
X73376380Y-2855583D01*
X73376380Y-2855590D01*
X70667145Y-2855590D01*
X70624187Y-2691273D01*
X70589498Y-2609644D01*
X70516187Y-2437128D01*
X70372334Y-2201416D01*
X70195695Y-1989161D01*
X69990033Y-1804888D01*
X69759732Y-1652522D01*
X69759724Y-1652518D01*
X69759719Y-1652515D01*
X69509703Y-1535312D01*
X69245262Y-1455754D01*
X68972073Y-1415550D01*
X68972070Y-1415550D01*
X68765057Y-1415550D01*
X68765055Y-1415550D01*
X68558599Y-1430660D01*
X68289058Y-1490703D01*
X68289056Y-1490704D01*
X68031141Y-1589348D01*
X67790340Y-1724492D01*
X67790336Y-1724494D01*
X67571767Y-1893267D01*
X67571766Y-1893268D01*
X67380108Y-2092059D01*
X67380103Y-2092065D01*
X67219434Y-2316639D01*
X67219427Y-2316649D01*
X67093168Y-2562226D01*
X67093167Y-2562228D01*
X67004009Y-2823572D01*
X67004006Y-2823585D01*
X66953851Y-3095116D01*
X66953850Y-3095126D01*
X66943766Y-3371081D01*
X49721950Y-3371081D01*
X49841732Y-3261885D01*
X49965088Y-3098535D01*
X50056328Y-2915301D01*
X50112345Y-2718421D01*
X50122425Y-2609644D01*
X50131232Y-2514604D01*
X50131232Y-2514595D01*
X50112345Y-2310780D01*
X50095523Y-2251656D01*
X50056328Y-2113899D01*
X49965088Y-1930665D01*
X49907796Y-1854798D01*
X49841733Y-1767315D01*
X49690463Y-1629414D01*
X49516433Y-1521659D01*
X49516428Y-1521657D01*
X49516427Y-1521656D01*
X49463924Y-1501316D01*
X49325559Y-1447713D01*
X49325560Y-1447713D01*
X49325557Y-1447712D01*
X49325556Y-1447712D01*
X49124347Y-1410100D01*
X48919653Y-1410100D01*
X48718444Y-1447712D01*
X48718439Y-1447713D01*
X48527577Y-1521654D01*
X48527566Y-1521659D01*
X48353536Y-1629414D01*
X48202266Y-1767315D01*
X48078913Y-1930663D01*
X47987671Y-2113901D01*
X47931654Y-2310780D01*
X47912768Y-2514595D01*
X47912768Y-2514604D01*
X47591232Y-2514604D01*
X47591232Y-2514595D01*
X47572345Y-2310780D01*
X47555523Y-2251656D01*
X47516328Y-2113899D01*
X47425088Y-1930665D01*
X47367796Y-1854798D01*
X47301733Y-1767315D01*
X47150463Y-1629414D01*
X46976433Y-1521659D01*
X46976428Y-1521657D01*
X46976427Y-1521656D01*
X46923924Y-1501316D01*
X46785559Y-1447713D01*
X46785560Y-1447713D01*
X46785557Y-1447712D01*
X46785556Y-1447712D01*
X46584347Y-1410100D01*
X46379653Y-1410100D01*
X46178444Y-1447712D01*
X46178439Y-1447713D01*
X45987577Y-1521654D01*
X45987566Y-1521659D01*
X45813536Y-1629414D01*
X45662266Y-1767315D01*
X45538913Y-1930663D01*
X45447671Y-2113901D01*
X45391654Y-2310780D01*
X45372768Y-2514595D01*
X45372768Y-2514604D01*
X45051232Y-2514604D01*
X45051232Y-2514595D01*
X45032345Y-2310780D01*
X45015523Y-2251656D01*
X44976328Y-2113899D01*
X44885088Y-1930665D01*
X44827796Y-1854798D01*
X44761733Y-1767315D01*
X44610463Y-1629414D01*
X44436433Y-1521659D01*
X44436428Y-1521657D01*
X44436427Y-1521656D01*
X44383924Y-1501316D01*
X44245559Y-1447713D01*
X44245560Y-1447713D01*
X44245557Y-1447712D01*
X44245556Y-1447712D01*
X44044347Y-1410100D01*
X43839653Y-1410100D01*
X43638444Y-1447712D01*
X43638439Y-1447713D01*
X43447577Y-1521654D01*
X43447566Y-1521659D01*
X43273536Y-1629414D01*
X43122266Y-1767315D01*
X42998913Y-1930663D01*
X42907671Y-2113901D01*
X42851654Y-2310780D01*
X42832768Y-2514595D01*
X42832768Y-2514604D01*
X42511232Y-2514604D01*
X42511232Y-2514595D01*
X42492345Y-2310780D01*
X42475523Y-2251656D01*
X42436328Y-2113899D01*
X42345088Y-1930665D01*
X42287796Y-1854798D01*
X42221733Y-1767315D01*
X42070463Y-1629414D01*
X41896433Y-1521659D01*
X41896428Y-1521657D01*
X41896427Y-1521656D01*
X41843924Y-1501316D01*
X41705559Y-1447713D01*
X41705560Y-1447713D01*
X41705557Y-1447712D01*
X41705556Y-1447712D01*
X41504347Y-1410100D01*
X41299653Y-1410100D01*
X41098444Y-1447712D01*
X41098439Y-1447713D01*
X40907577Y-1521654D01*
X40907566Y-1521659D01*
X40733536Y-1629414D01*
X40582266Y-1767315D01*
X40458913Y-1930663D01*
X40367671Y-2113901D01*
X40311654Y-2310780D01*
X40292768Y-2514595D01*
X40292768Y-2514604D01*
X39971232Y-2514604D01*
X39971232Y-2514595D01*
X39952345Y-2310780D01*
X39935523Y-2251656D01*
X39896328Y-2113899D01*
X39805088Y-1930665D01*
X39747796Y-1854798D01*
X39681733Y-1767315D01*
X39530463Y-1629414D01*
X39356433Y-1521659D01*
X39356428Y-1521657D01*
X39356427Y-1521656D01*
X39303924Y-1501316D01*
X39165559Y-1447713D01*
X39165560Y-1447713D01*
X39165557Y-1447712D01*
X39165556Y-1447712D01*
X38964347Y-1410100D01*
X38759653Y-1410100D01*
X38558444Y-1447712D01*
X38558439Y-1447713D01*
X38367577Y-1521654D01*
X38367566Y-1521659D01*
X38193536Y-1629414D01*
X38042266Y-1767315D01*
X37918913Y-1930663D01*
X37827671Y-2113901D01*
X37771654Y-2310780D01*
X37752768Y-2514595D01*
X37752768Y-2514604D01*
X37431232Y-2514604D01*
X37431232Y-2514595D01*
X37412345Y-2310780D01*
X37395523Y-2251656D01*
X37356328Y-2113899D01*
X37265088Y-1930665D01*
X37207796Y-1854798D01*
X37141733Y-1767315D01*
X36990463Y-1629414D01*
X36816433Y-1521659D01*
X36816428Y-1521657D01*
X36816427Y-1521656D01*
X36763924Y-1501316D01*
X36625559Y-1447713D01*
X36625560Y-1447713D01*
X36625557Y-1447712D01*
X36625556Y-1447712D01*
X36424347Y-1410100D01*
X36219653Y-1410100D01*
X36018444Y-1447712D01*
X36018439Y-1447713D01*
X35827577Y-1521654D01*
X35827566Y-1521659D01*
X35653536Y-1629414D01*
X35502266Y-1767315D01*
X35378913Y-1930663D01*
X35287671Y-2113901D01*
X35231654Y-2310780D01*
X35212768Y-2514595D01*
X35212768Y-2514604D01*
X34282000Y-2514604D01*
X34282000Y-2442711D01*
X34241493Y-2304756D01*
X34213116Y-2260600D01*
X34885999Y-2260600D01*
X34885999Y-1639586D01*
X34885998Y-1639577D01*
X34871262Y-1565494D01*
X34871262Y-1565492D01*
X34815124Y-1481475D01*
X34731106Y-1425337D01*
X34731105Y-1425336D01*
X34657022Y-1410600D01*
X34036000Y-1410600D01*
X34036000Y-2080925D01*
X33924315Y-2029920D01*
X33817763Y-2014600D01*
X33746237Y-2014600D01*
X33639685Y-2029920D01*
X33528000Y-2080925D01*
X33528000Y-1410600D01*
X32906986Y-1410600D01*
X32906976Y-1410601D01*
X32832894Y-1425337D01*
X32832892Y-1425337D01*
X32748875Y-1481475D01*
X32692737Y-1565493D01*
X32692736Y-1565494D01*
X32678000Y-1639577D01*
X32678000Y-2260600D01*
X15544453Y-2260600D01*
X15508334Y-2201416D01*
X15331695Y-1989161D01*
X15126033Y-1804888D01*
X14895732Y-1652522D01*
X14895724Y-1652518D01*
X14895719Y-1652515D01*
X14645703Y-1535312D01*
X14381262Y-1455754D01*
X14108073Y-1415550D01*
X14108070Y-1415550D01*
X13901057Y-1415550D01*
X13901055Y-1415550D01*
X13694599Y-1430660D01*
X13425058Y-1490703D01*
X13425056Y-1490704D01*
X13167141Y-1589348D01*
X12926340Y-1724492D01*
X12926336Y-1724494D01*
X12707767Y-1893267D01*
X12707766Y-1893268D01*
X12516108Y-2092059D01*
X12516103Y-2092065D01*
X12355434Y-2316639D01*
X12355427Y-2316649D01*
X12229168Y-2562226D01*
X12229167Y-2562228D01*
X12140009Y-2823572D01*
X12140006Y-2823585D01*
X12089851Y-3095116D01*
X12089850Y-3095126D01*
X12079766Y-3371081D01*
X9310995Y-3371081D01*
X9368474Y-3219522D01*
X9417709Y-2978356D01*
X9427620Y-2732415D01*
X9397951Y-2488069D01*
X9329473Y-2251656D01*
X9329472Y-2251651D01*
X9305635Y-2201416D01*
X9223951Y-2029270D01*
X9155889Y-1930665D01*
X9084133Y-1826708D01*
X9084125Y-1826698D01*
X9027087Y-1767315D01*
X8913620Y-1649183D01*
X8913615Y-1649179D01*
X8913612Y-1649176D01*
X8716841Y-1501314D01*
X8716839Y-1501312D01*
X8498899Y-1386928D01*
X8498896Y-1386927D01*
X8265421Y-1308982D01*
X8265422Y-1308982D01*
X8022482Y-1269501D01*
X8022472Y-1269500D01*
X8022470Y-1269500D01*
X7837959Y-1269500D01*
X7837955Y-1269500D01*
X7654061Y-1284345D01*
X7415067Y-1343251D01*
X7188625Y-1439729D01*
X6980588Y-1571284D01*
X6796349Y-1734506D01*
X6796346Y-1734510D01*
X6640682Y-1925163D01*
X6640679Y-1925167D01*
X6640679Y-1925168D01*
X6637505Y-1930665D01*
X6517613Y-2138324D01*
X6517610Y-2138329D01*
X6430327Y-2368474D01*
X6430326Y-2368476D01*
X6430326Y-2368478D01*
X6405911Y-2488069D01*
X6381091Y-2609644D01*
X6371180Y-2855583D01*
X6371180Y-2855590D01*
X254000Y-2855590D01*
X254000Y-520411D01*
X256421Y-495831D01*
X268445Y-435380D01*
X287256Y-389963D01*
X314474Y-349228D01*
X349228Y-314474D01*
X389963Y-287256D01*
X435378Y-268445D01*
X459096Y-263727D01*
X495831Y-256421D01*
X520411Y-254000D01*
X3770287Y-254000D01*
X3838408Y-274002D01*
G37*
G04 #@! TD.AperFunction*
M02*
