G04 #@! TF.GenerationSoftware,KiCad,Pcbnew,7.0.8*
G04 #@! TF.CreationDate,2023-10-08T14:36:17-06:00*
G04 #@! TF.ProjectId,metal detector test,6d657461-6c20-4646-9574-6563746f7220,V2*
G04 #@! TF.SameCoordinates,Original*
G04 #@! TF.FileFunction,Soldermask,Bot*
G04 #@! TF.FilePolarity,Negative*
%FSLAX46Y46*%
G04 Gerber Fmt 4.6, Leading zero omitted, Abs format (unit mm)*
G04 Created by KiCad (PCBNEW 7.0.8) date 2023-10-08 14:36:17*
%MOMM*%
%LPD*%
G01*
G04 APERTURE LIST*
G04 Aperture macros list*
%AMRoundRect*
0 Rectangle with rounded corners*
0 $1 Rounding radius*
0 $2 $3 $4 $5 $6 $7 $8 $9 X,Y pos of 4 corners*
0 Add a 4 corners polygon primitive as box body*
4,1,4,$2,$3,$4,$5,$6,$7,$8,$9,$2,$3,0*
0 Add four circle primitives for the rounded corners*
1,1,$1+$1,$2,$3*
1,1,$1+$1,$4,$5*
1,1,$1+$1,$6,$7*
1,1,$1+$1,$8,$9*
0 Add four rect primitives between the rounded corners*
20,1,$1+$1,$2,$3,$4,$5,0*
20,1,$1+$1,$4,$5,$6,$7,0*
20,1,$1+$1,$6,$7,$8,$9,0*
20,1,$1+$1,$8,$9,$2,$3,0*%
%AMRotRect*
0 Rectangle, with rotation*
0 The origin of the aperture is its center*
0 $1 length*
0 $2 width*
0 $3 Rotation angle, in degrees counterclockwise*
0 Add horizontal line*
21,1,$1,$2,0,0,$3*%
G04 Aperture macros list end*
%ADD10RotRect,1.000000X1.500000X45.000000*%
%ADD11O,1.600000X1.600000*%
%ADD12C,3.000000*%
%ADD13C,3.263900*%
%ADD14C,1.800000*%
%ADD15C,1.700000*%
%ADD16R,2.000000X2.000000*%
%ADD17C,2.000000*%
%ADD18R,1.700000X1.700000*%
%ADD19O,1.700000X1.700000*%
%ADD20R,1.600000X1.600000*%
%ADD21RoundRect,0.250000X0.525000X0.250000X-0.525000X0.250000X-0.525000X-0.250000X0.525000X-0.250000X0*%
%ADD22RoundRect,0.450000X-0.450000X-1.550000X0.450000X-1.550000X0.450000X1.550000X-0.450000X1.550000X0*%
%ADD23C,2.540000*%
G04 APERTURE END LIST*
D10*
X28496381Y-59768619D03*
X29415619Y-58849381D03*
D11*
X4064000Y-1524000D03*
X4064000Y-87376000D03*
D12*
X59436000Y-84582000D03*
D13*
X19558000Y-85598000D03*
D14*
X8382000Y-79502000D03*
X13462000Y-79502000D03*
X13462000Y-84582000D03*
X8382000Y-84582000D03*
D15*
X72378000Y-85309000D03*
X72378000Y-78309000D03*
D16*
X63500000Y-73578323D03*
D17*
X63500000Y-78578323D03*
D12*
X5842000Y-76327000D03*
D13*
X76708000Y-70866000D03*
D18*
X14270000Y-37660500D03*
D19*
X11730000Y-37660500D03*
D18*
X9688000Y-76268500D03*
D19*
X12228000Y-76268500D03*
D12*
X74676000Y-16764000D03*
D16*
X71120000Y-53320077D03*
D17*
X71120000Y-48320077D03*
D18*
X63500000Y-85725000D03*
D19*
X63500000Y-83185000D03*
D13*
X13970000Y-3302000D03*
D20*
X41148000Y-68326000D03*
D11*
X41148000Y-65786000D03*
X41148000Y-63246000D03*
X41148000Y-60706000D03*
X41148000Y-58166000D03*
X41148000Y-55626000D03*
X41148000Y-53086000D03*
X41148000Y-50546000D03*
X41148000Y-48006000D03*
X41148000Y-45466000D03*
X41148000Y-42926000D03*
X41148000Y-40386000D03*
X41148000Y-37846000D03*
X41148000Y-35306000D03*
X41148000Y-32766000D03*
X25908000Y-32766000D03*
X25908000Y-35306000D03*
X25908000Y-37846000D03*
X25908000Y-40386000D03*
X25908000Y-42926000D03*
X25908000Y-45466000D03*
X25908000Y-48006000D03*
X25908000Y-50546000D03*
X25908000Y-53086000D03*
X25908000Y-55626000D03*
X25908000Y-58166000D03*
X25908000Y-60706000D03*
X25908000Y-63246000D03*
X25908000Y-65786000D03*
X25908000Y-68326000D03*
D18*
X70612000Y-18034000D03*
D19*
X70612000Y-15494000D03*
D13*
X68834000Y-3302000D03*
D18*
X78232000Y-47503000D03*
D19*
X78232000Y-44963000D03*
D12*
X78105000Y-52959000D03*
D16*
X55453677Y-58420000D03*
D17*
X50453677Y-58420000D03*
D12*
X12954000Y-34036000D03*
D21*
X27517000Y-74600000D03*
X22267000Y-74600000D03*
X27517000Y-77800000D03*
X22267000Y-77800000D03*
X35772000Y-61900000D03*
X30522000Y-61900000D03*
X35772000Y-65100000D03*
X30522000Y-65100000D03*
X44027000Y-74600000D03*
X38777000Y-74600000D03*
X44027000Y-77800000D03*
X38777000Y-77800000D03*
D22*
X66690000Y-76880000D03*
X78090000Y-76880000D03*
X78090000Y-85580000D03*
X66690000Y-85580000D03*
D23*
X74904600Y-2794000D03*
X7899400Y-2794000D03*
X74904600Y-42265600D03*
X7899400Y-42265600D03*
D18*
X33782000Y-2514600D03*
D19*
X36322000Y-2514600D03*
X38862000Y-2514600D03*
X41402000Y-2514600D03*
X43942000Y-2514600D03*
X46482000Y-2514600D03*
X49022000Y-2514600D03*
D21*
X19262000Y-61900000D03*
X14012000Y-61900000D03*
X19262000Y-65100000D03*
X14012000Y-65100000D03*
X60537000Y-74600000D03*
X55287000Y-74600000D03*
X60537000Y-77800000D03*
X55287000Y-77800000D03*
X68792000Y-49200000D03*
X63542000Y-49200000D03*
X68792000Y-52400000D03*
X63542000Y-52400000D03*
X19262000Y-49200000D03*
X14012000Y-49200000D03*
X19262000Y-52400000D03*
X14012000Y-52400000D03*
X52282000Y-61900000D03*
X47032000Y-61900000D03*
X52282000Y-65100000D03*
X47032000Y-65100000D03*
X68792000Y-61900000D03*
X63542000Y-61900000D03*
X68792000Y-65100000D03*
X63542000Y-65100000D03*
M02*
