%TF.GenerationSoftware,KiCad,Pcbnew,7.0.8*%
%TF.CreationDate,2023-10-08T14:38:24-06:00*%
%TF.ProjectId,metal detector test,6d657461-6c20-4646-9574-6563746f7220,V2*%
%TF.SameCoordinates,Original*%
%TF.FileFunction,Drillmap*%
%TF.FilePolarity,Positive*%
%FSLAX45Y45*%
G04 Gerber Fmt 4.5, Leading zero omitted, Abs format (unit mm)*
G04 Created by KiCad (PCBNEW 7.0.8) date 2023-10-08 14:38:24*
%MOMM*%
%LPD*%
G01*
G04 APERTURE LIST*
%ADD10C,0.100000*%
%ADD11C,0.200000*%
%ADD12C,0.038100*%
%ADD13C,0.050800*%
%ADD14C,0.080000*%
%ADD15C,0.088900*%
G04 APERTURE END LIST*
D10*
X0Y0D02*
X8280400Y0D01*
X8280400Y-8890000D01*
X0Y-8890000D01*
X0Y0D01*
D11*
D12*
X717550Y-1212850D02*
X755650Y-1250950D01*
X755650Y-1212850D02*
X717550Y-1250950D01*
X742950Y-1327150D02*
X781050Y-1365250D01*
X781050Y-1327150D02*
X742950Y-1365250D01*
X768350Y-1454150D02*
X806450Y-1492250D01*
X806450Y-1454150D02*
X768350Y-1492250D01*
X770890Y-5589270D02*
X808990Y-5627370D01*
X808990Y-5589270D02*
X770890Y-5627370D01*
X793750Y-1581150D02*
X831850Y-1619250D01*
X831850Y-1581150D02*
X793750Y-1619250D01*
X819150Y-1708150D02*
X857250Y-1746250D01*
X857250Y-1708150D02*
X819150Y-1746250D01*
X844550Y-1835150D02*
X882650Y-1873250D01*
X882650Y-1835150D02*
X844550Y-1873250D01*
X869950Y-1962150D02*
X908050Y-2000250D01*
X908050Y-1962150D02*
X869950Y-2000250D01*
X869950Y-2393950D02*
X908050Y-2432050D01*
X908050Y-2393950D02*
X869950Y-2432050D01*
X895350Y-2089150D02*
X933450Y-2127250D01*
X933450Y-2089150D02*
X895350Y-2127250D01*
X920750Y-2216150D02*
X958850Y-2254250D01*
X958850Y-2216150D02*
X920750Y-2254250D01*
X946150Y-2343150D02*
X984250Y-2381250D01*
X984250Y-2343150D02*
X946150Y-2381250D01*
X1090930Y-4616450D02*
X1129030Y-4654550D01*
X1129030Y-4616450D02*
X1090930Y-4654550D01*
X1383030Y-5015230D02*
X1421130Y-5053330D01*
X1421130Y-5015230D02*
X1383030Y-5053330D01*
X1581150Y-844550D02*
X1619250Y-882650D01*
X1619250Y-844550D02*
X1581150Y-882650D01*
X1593850Y-5104130D02*
X1631950Y-5142230D01*
X1631950Y-5104130D02*
X1593850Y-5142230D01*
X1723390Y-4121150D02*
X1761490Y-4159250D01*
X1761490Y-4121150D02*
X1723390Y-4159250D01*
X1789430Y-6310630D02*
X1827530Y-6348730D01*
X1827530Y-6310630D02*
X1789430Y-6348730D01*
X1911350Y-2241550D02*
X1949450Y-2279650D01*
X1949450Y-2241550D02*
X1911350Y-2279650D01*
X1921510Y-6950710D02*
X1959610Y-6988810D01*
X1959610Y-6950710D02*
X1921510Y-6988810D01*
X1921510Y-7123430D02*
X1959610Y-7161530D01*
X1959610Y-7123430D02*
X1921510Y-7161530D01*
X1936750Y-4171950D02*
X1974850Y-4210050D01*
X1974850Y-4171950D02*
X1936750Y-4210050D01*
X1987550Y-2190750D02*
X2025650Y-2228850D01*
X2025650Y-2190750D02*
X1987550Y-2228850D01*
X1987550Y-4248150D02*
X2025650Y-4286250D01*
X2025650Y-4248150D02*
X1987550Y-4286250D01*
X2061210Y-6170930D02*
X2099310Y-6209030D01*
X2099310Y-6170930D02*
X2061210Y-6209030D01*
X2063750Y-2292350D02*
X2101850Y-2330450D01*
X2101850Y-2292350D02*
X2063750Y-2330450D01*
X2063750Y-4311650D02*
X2101850Y-4349750D01*
X2101850Y-4311650D02*
X2063750Y-4349750D01*
X2089150Y-4070350D02*
X2127250Y-4108450D01*
X2127250Y-4070350D02*
X2089150Y-4108450D01*
X2119630Y-4979670D02*
X2157730Y-5017770D01*
X2157730Y-4979670D02*
X2119630Y-5017770D01*
X2165350Y-4121150D02*
X2203450Y-4159250D01*
X2203450Y-4121150D02*
X2165350Y-4159250D01*
X2317750Y-5048250D02*
X2355850Y-5086350D01*
X2355850Y-5048250D02*
X2317750Y-5086350D01*
X2317750Y-5162550D02*
X2355850Y-5200650D01*
X2355850Y-5162550D02*
X2317750Y-5200650D01*
X2419350Y-1085850D02*
X2457450Y-1123950D01*
X2457450Y-1085850D02*
X2419350Y-1123950D01*
X2520950Y-2139950D02*
X2559050Y-2178050D01*
X2559050Y-2139950D02*
X2520950Y-2178050D01*
X2520950Y-2228850D02*
X2559050Y-2266950D01*
X2559050Y-2228850D02*
X2520950Y-2266950D01*
X2711450Y-3257550D02*
X2749550Y-3295650D01*
X2749550Y-3257550D02*
X2711450Y-3295650D01*
X2711450Y-4273550D02*
X2749550Y-4311650D01*
X2749550Y-4273550D02*
X2711450Y-4311650D01*
X2711450Y-4527550D02*
X2749550Y-4565650D01*
X2749550Y-4527550D02*
X2711450Y-4565650D01*
X2711450Y-5035550D02*
X2749550Y-5073650D01*
X2749550Y-5035550D02*
X2711450Y-5073650D01*
X2711450Y-5797550D02*
X2749550Y-5835650D01*
X2749550Y-5797550D02*
X2711450Y-5835650D01*
X2825750Y-7931150D02*
X2863850Y-7969250D01*
X2863850Y-7931150D02*
X2825750Y-7969250D01*
X2884170Y-7440930D02*
X2922270Y-7479030D01*
X2922270Y-7440930D02*
X2884170Y-7479030D01*
X3034030Y-6287770D02*
X3072130Y-6325870D01*
X3072130Y-6287770D02*
X3034030Y-6325870D01*
X3130550Y-2571750D02*
X3168650Y-2609850D01*
X3168650Y-2571750D02*
X3130550Y-2609850D01*
X3178810Y-666750D02*
X3216910Y-704850D01*
X3216910Y-666750D02*
X3178810Y-704850D01*
X3206750Y-2520950D02*
X3244850Y-2559050D01*
X3244850Y-2520950D02*
X3206750Y-2559050D01*
X3282950Y-2470150D02*
X3321050Y-2508250D01*
X3321050Y-2470150D02*
X3282950Y-2508250D01*
X3359150Y-2419350D02*
X3397250Y-2457450D01*
X3397250Y-2419350D02*
X3359150Y-2457450D01*
X3435350Y-2368550D02*
X3473450Y-2406650D01*
X3473450Y-2368550D02*
X3435350Y-2406650D01*
X3511550Y-2317750D02*
X3549650Y-2355850D01*
X3549650Y-2317750D02*
X3511550Y-2355850D01*
X3587750Y-2266950D02*
X3625850Y-2305050D01*
X3625850Y-2266950D02*
X3587750Y-2305050D01*
X3707130Y-7440930D02*
X3745230Y-7479030D01*
X3745230Y-7440930D02*
X3707130Y-7479030D01*
X3892550Y-4311650D02*
X3930650Y-4349750D01*
X3930650Y-4311650D02*
X3892550Y-4349750D01*
X3930650Y-1543050D02*
X3968750Y-1581150D01*
X3968750Y-1543050D02*
X3930650Y-1581150D01*
X3956050Y-3511550D02*
X3994150Y-3549650D01*
X3994150Y-3511550D02*
X3956050Y-3549650D01*
X3956050Y-4019550D02*
X3994150Y-4057650D01*
X3994150Y-4019550D02*
X3956050Y-4057650D01*
X3956050Y-6559550D02*
X3994150Y-6597650D01*
X3994150Y-6559550D02*
X3956050Y-6597650D01*
X3956050Y-6813550D02*
X3994150Y-6851650D01*
X3994150Y-6813550D02*
X3956050Y-6851650D01*
X3994150Y-1606550D02*
X4032250Y-1644650D01*
X4032250Y-1606550D02*
X3994150Y-1644650D01*
X4235450Y-3257550D02*
X4273550Y-3295650D01*
X4273550Y-3257550D02*
X4235450Y-3295650D01*
X4235450Y-4781550D02*
X4273550Y-4819650D01*
X4273550Y-4781550D02*
X4235450Y-4819650D01*
X4235450Y-5035550D02*
X4273550Y-5073650D01*
X4273550Y-5035550D02*
X4235450Y-5073650D01*
X4235450Y-5289550D02*
X4273550Y-5327650D01*
X4273550Y-5289550D02*
X4235450Y-5327650D01*
X4235450Y-5543550D02*
X4273550Y-5581650D01*
X4273550Y-5543550D02*
X4235450Y-5581650D01*
X4235450Y-5797550D02*
X4273550Y-5835650D01*
X4273550Y-5797550D02*
X4235450Y-5835650D01*
X4298950Y-6597650D02*
X4337050Y-6635750D01*
X4337050Y-6597650D02*
X4298950Y-6635750D01*
X4298950Y-6686550D02*
X4337050Y-6724650D01*
X4337050Y-6686550D02*
X4298950Y-6724650D01*
X4324350Y-3803650D02*
X4362450Y-3841750D01*
X4362450Y-3803650D02*
X4324350Y-3841750D01*
X4324350Y-3892550D02*
X4362450Y-3930650D01*
X4362450Y-3892550D02*
X4324350Y-3930650D01*
X4375150Y-8411210D02*
X4413250Y-8449310D01*
X4413250Y-8411210D02*
X4375150Y-8449310D01*
X4377690Y-8238490D02*
X4415790Y-8276590D01*
X4415790Y-8238490D02*
X4377690Y-8276590D01*
X4654550Y-3803650D02*
X4692650Y-3841750D01*
X4692650Y-3803650D02*
X4654550Y-3841750D01*
X4654550Y-3892550D02*
X4692650Y-3930650D01*
X4692650Y-3892550D02*
X4654550Y-3930650D01*
X4685030Y-6059170D02*
X4723130Y-6097270D01*
X4723130Y-6059170D02*
X4685030Y-6097270D01*
X4725670Y-7151370D02*
X4763770Y-7189470D01*
X4763770Y-7151370D02*
X4725670Y-7189470D01*
X4832350Y-1479550D02*
X4870450Y-1517650D01*
X4870450Y-1479550D02*
X4832350Y-1517650D01*
X4921250Y-4679950D02*
X4959350Y-4718050D01*
X4959350Y-4679950D02*
X4921250Y-4718050D01*
X4984750Y-4756150D02*
X5022850Y-4794250D01*
X5022850Y-4756150D02*
X4984750Y-4794250D01*
X5022850Y-2724150D02*
X5060950Y-2762250D01*
X5060950Y-2724150D02*
X5022850Y-2762250D01*
X5035550Y-6597650D02*
X5073650Y-6635750D01*
X5073650Y-6597650D02*
X5035550Y-6635750D01*
X5035550Y-6686550D02*
X5073650Y-6724650D01*
X5073650Y-6686550D02*
X5035550Y-6724650D01*
X5086350Y-2647950D02*
X5124450Y-2686050D01*
X5124450Y-2647950D02*
X5086350Y-2686050D01*
X5162550Y-2863850D02*
X5200650Y-2901950D01*
X5200650Y-2863850D02*
X5162550Y-2901950D01*
X5185410Y-4768850D02*
X5223510Y-4806950D01*
X5223510Y-4768850D02*
X5185410Y-4806950D01*
X5238750Y-2800350D02*
X5276850Y-2838450D01*
X5276850Y-2800350D02*
X5238750Y-2838450D01*
X5259070Y-6386830D02*
X5297170Y-6424930D01*
X5297170Y-6386830D02*
X5259070Y-6424930D01*
X5264150Y-2292350D02*
X5302250Y-2330450D01*
X5302250Y-2292350D02*
X5264150Y-2330450D01*
X5322570Y-5187950D02*
X5360670Y-5226050D01*
X5360670Y-5187950D02*
X5322570Y-5226050D01*
X5454650Y-1797050D02*
X5492750Y-1835150D01*
X5492750Y-1797050D02*
X5454650Y-1835150D01*
X5474970Y-4829810D02*
X5513070Y-4867910D01*
X5513070Y-4829810D02*
X5474970Y-4867910D01*
X5510530Y-7326630D02*
X5548630Y-7364730D01*
X5548630Y-7326630D02*
X5510530Y-7364730D01*
X5543550Y-3333750D02*
X5581650Y-3371850D01*
X5581650Y-3333750D02*
X5543550Y-3371850D01*
X5589270Y-7545070D02*
X5627370Y-7583170D01*
X5627370Y-7545070D02*
X5589270Y-7583170D01*
X5645150Y-3333750D02*
X5683250Y-3371850D01*
X5683250Y-3333750D02*
X5645150Y-3371850D01*
X5723890Y-7171690D02*
X5761990Y-7209790D01*
X5761990Y-7171690D02*
X5723890Y-7209790D01*
X5756910Y-4845050D02*
X5795010Y-4883150D01*
X5795010Y-4845050D02*
X5756910Y-4883150D01*
X5772150Y-6239510D02*
X5810250Y-6277610D01*
X5810250Y-6239510D02*
X5772150Y-6277610D01*
X5797550Y-2838450D02*
X5835650Y-2876550D01*
X5835650Y-2838450D02*
X5797550Y-2876550D01*
X5817870Y-4913630D02*
X5855970Y-4951730D01*
X5855970Y-4913630D02*
X5817870Y-4951730D01*
X5883910Y-4502150D02*
X5922010Y-4540250D01*
X5922010Y-4502150D02*
X5883910Y-4540250D01*
X5896610Y-7054850D02*
X5934710Y-7092950D01*
X5934710Y-7054850D02*
X5896610Y-7092950D01*
X5929630Y-4801870D02*
X5967730Y-4839970D01*
X5967730Y-4801870D02*
X5929630Y-4839970D01*
X6013450Y-4870450D02*
X6051550Y-4908550D01*
X6051550Y-4870450D02*
X6013450Y-4908550D01*
X6051550Y-5010150D02*
X6089650Y-5048250D01*
X6089650Y-5010150D02*
X6051550Y-5048250D01*
X6115050Y-4832350D02*
X6153150Y-4870450D01*
X6153150Y-4832350D02*
X6115050Y-4870450D01*
X6115050Y-5073650D02*
X6153150Y-5111750D01*
X6153150Y-5073650D02*
X6115050Y-5111750D01*
X6407150Y-5099050D02*
X6445250Y-5137150D01*
X6445250Y-5099050D02*
X6407150Y-5137150D01*
X6440170Y-6275070D02*
X6478270Y-6313170D01*
X6478270Y-6275070D02*
X6440170Y-6313170D01*
X6532000Y-2036200D02*
X6570100Y-2074300D01*
X6570100Y-2036200D02*
X6532000Y-2074300D01*
X6838950Y-7296150D02*
X6877050Y-7334250D01*
X6877050Y-7296150D02*
X6838950Y-7334250D01*
X6859270Y-5020310D02*
X6897370Y-5058410D01*
X6897370Y-5020310D02*
X6859270Y-5058410D01*
X6877050Y-7397750D02*
X6915150Y-7435850D01*
X6915150Y-7397750D02*
X6877050Y-7435850D01*
X7270750Y-2089150D02*
X7308850Y-2127250D01*
X7308850Y-2089150D02*
X7270750Y-2127250D01*
D13*
X736600Y-7042650D02*
G75*
G03*
X736600Y-7042650I-25400J0D01*
G01*
X762000Y-6229850D02*
G75*
G03*
X762000Y-6229850I-25400J0D01*
G01*
X1386840Y-6314440D02*
G75*
G03*
X1386840Y-6314440I-25400J0D01*
G01*
X1391920Y-6990080D02*
G75*
G03*
X1391920Y-6990080I-25400J0D01*
G01*
X2451100Y-6070600D02*
G75*
G03*
X2451100Y-6070600I-25400J0D01*
G01*
X3228340Y-8382000D02*
G75*
G03*
X3228340Y-8382000I-25400J0D01*
G01*
X3850640Y-8382000D02*
G75*
G03*
X3850640Y-8382000I-25400J0D01*
G01*
X4013200Y-965200D02*
G75*
G03*
X4013200Y-965200I-25400J0D01*
G01*
X4064000Y-1104900D02*
G75*
G03*
X4064000Y-1104900I-25400J0D01*
G01*
X4414520Y-7594600D02*
G75*
G03*
X4414520Y-7594600I-25400J0D01*
G01*
X5039360Y-7528560D02*
G75*
G03*
X5039360Y-7528560I-25400J0D01*
G01*
X5384800Y-3937000D02*
G75*
G03*
X5384800Y-3937000I-25400J0D01*
G01*
X5384800Y-4216400D02*
G75*
G03*
X5384800Y-4216400I-25400J0D01*
G01*
X7414260Y-8694420D02*
G75*
G03*
X7414260Y-8694420I-25400J0D01*
G01*
X7835900Y-7416800D02*
G75*
G03*
X7835900Y-7416800I-25400J0D01*
G01*
D14*
X838200Y-7910200D02*
X838200Y-7990200D01*
X798200Y-7950200D02*
X878200Y-7950200D01*
X838200Y-8418200D02*
X838200Y-8498200D01*
X798200Y-8458200D02*
X878200Y-8458200D01*
X1346200Y-7910200D02*
X1346200Y-7990200D01*
X1306200Y-7950200D02*
X1386200Y-7950200D01*
X1346200Y-8418200D02*
X1346200Y-8498200D01*
X1306200Y-8458200D02*
X1386200Y-8458200D01*
D15*
X6808151Y-6930071D02*
X6808151Y-6867209D01*
X6745289Y-6867209D01*
X6745289Y-6930071D01*
X6808151Y-6930071D01*
D10*
X406400Y-202400D02*
X456400Y-152400D01*
X406400Y-102400D01*
X356400Y-152400D01*
X406400Y-202400D01*
X406400Y-8787600D02*
X456400Y-8737600D01*
X406400Y-8687600D01*
X356400Y-8737600D01*
X406400Y-8787600D01*
X968800Y-7676850D02*
X1018800Y-7626850D01*
X968800Y-7576850D01*
X918800Y-7626850D01*
X968800Y-7676850D01*
X1173000Y-3816050D02*
X1223000Y-3766050D01*
X1173000Y-3716050D01*
X1123000Y-3766050D01*
X1173000Y-3816050D01*
X1222800Y-7676850D02*
X1272800Y-7626850D01*
X1222800Y-7576850D01*
X1172800Y-7626850D01*
X1222800Y-7676850D01*
X1427000Y-3816050D02*
X1477000Y-3766050D01*
X1427000Y-3716050D01*
X1377000Y-3766050D01*
X1427000Y-3816050D01*
X2590800Y-3326600D02*
X2640800Y-3276600D01*
X2590800Y-3226600D01*
X2540800Y-3276600D01*
X2590800Y-3326600D01*
X2590800Y-3580600D02*
X2640800Y-3530600D01*
X2590800Y-3480600D01*
X2540800Y-3530600D01*
X2590800Y-3580600D01*
X2590800Y-3834600D02*
X2640800Y-3784600D01*
X2590800Y-3734600D01*
X2540800Y-3784600D01*
X2590800Y-3834600D01*
X2590800Y-4088600D02*
X2640800Y-4038600D01*
X2590800Y-3988600D01*
X2540800Y-4038600D01*
X2590800Y-4088600D01*
X2590800Y-4342600D02*
X2640800Y-4292600D01*
X2590800Y-4242600D01*
X2540800Y-4292600D01*
X2590800Y-4342600D01*
X2590800Y-4596600D02*
X2640800Y-4546600D01*
X2590800Y-4496600D01*
X2540800Y-4546600D01*
X2590800Y-4596600D01*
X2590800Y-4850600D02*
X2640800Y-4800600D01*
X2590800Y-4750600D01*
X2540800Y-4800600D01*
X2590800Y-4850600D01*
X2590800Y-5104600D02*
X2640800Y-5054600D01*
X2590800Y-5004600D01*
X2540800Y-5054600D01*
X2590800Y-5104600D01*
X2590800Y-5358600D02*
X2640800Y-5308600D01*
X2590800Y-5258600D01*
X2540800Y-5308600D01*
X2590800Y-5358600D01*
X2590800Y-5612600D02*
X2640800Y-5562600D01*
X2590800Y-5512600D01*
X2540800Y-5562600D01*
X2590800Y-5612600D01*
X2590800Y-5866600D02*
X2640800Y-5816600D01*
X2590800Y-5766600D01*
X2540800Y-5816600D01*
X2590800Y-5866600D01*
X2590800Y-6120600D02*
X2640800Y-6070600D01*
X2590800Y-6020600D01*
X2540800Y-6070600D01*
X2590800Y-6120600D01*
X2590800Y-6374600D02*
X2640800Y-6324600D01*
X2590800Y-6274600D01*
X2540800Y-6324600D01*
X2590800Y-6374600D01*
X2590800Y-6628600D02*
X2640800Y-6578600D01*
X2590800Y-6528600D01*
X2540800Y-6578600D01*
X2590800Y-6628600D01*
X2590800Y-6882600D02*
X2640800Y-6832600D01*
X2590800Y-6782600D01*
X2540800Y-6832600D01*
X2590800Y-6882600D01*
X3378200Y-301460D02*
X3428200Y-251460D01*
X3378200Y-201460D01*
X3328200Y-251460D01*
X3378200Y-301460D01*
X3632200Y-301460D02*
X3682200Y-251460D01*
X3632200Y-201460D01*
X3582200Y-251460D01*
X3632200Y-301460D01*
X3886200Y-301460D02*
X3936200Y-251460D01*
X3886200Y-201460D01*
X3836200Y-251460D01*
X3886200Y-301460D01*
X4114800Y-3326600D02*
X4164800Y-3276600D01*
X4114800Y-3226600D01*
X4064800Y-3276600D01*
X4114800Y-3326600D01*
X4114800Y-3580600D02*
X4164800Y-3530600D01*
X4114800Y-3480600D01*
X4064800Y-3530600D01*
X4114800Y-3580600D01*
X4114800Y-3834600D02*
X4164800Y-3784600D01*
X4114800Y-3734600D01*
X4064800Y-3784600D01*
X4114800Y-3834600D01*
X4114800Y-4088600D02*
X4164800Y-4038600D01*
X4114800Y-3988600D01*
X4064800Y-4038600D01*
X4114800Y-4088600D01*
X4114800Y-4342600D02*
X4164800Y-4292600D01*
X4114800Y-4242600D01*
X4064800Y-4292600D01*
X4114800Y-4342600D01*
X4114800Y-4596600D02*
X4164800Y-4546600D01*
X4114800Y-4496600D01*
X4064800Y-4546600D01*
X4114800Y-4596600D01*
X4114800Y-4850600D02*
X4164800Y-4800600D01*
X4114800Y-4750600D01*
X4064800Y-4800600D01*
X4114800Y-4850600D01*
X4114800Y-5104600D02*
X4164800Y-5054600D01*
X4114800Y-5004600D01*
X4064800Y-5054600D01*
X4114800Y-5104600D01*
X4114800Y-5358600D02*
X4164800Y-5308600D01*
X4114800Y-5258600D01*
X4064800Y-5308600D01*
X4114800Y-5358600D01*
X4114800Y-5612600D02*
X4164800Y-5562600D01*
X4114800Y-5512600D01*
X4064800Y-5562600D01*
X4114800Y-5612600D01*
X4114800Y-5866600D02*
X4164800Y-5816600D01*
X4114800Y-5766600D01*
X4064800Y-5816600D01*
X4114800Y-5866600D01*
X4114800Y-6120600D02*
X4164800Y-6070600D01*
X4114800Y-6020600D01*
X4064800Y-6070600D01*
X4114800Y-6120600D01*
X4114800Y-6374600D02*
X4164800Y-6324600D01*
X4114800Y-6274600D01*
X4064800Y-6324600D01*
X4114800Y-6374600D01*
X4114800Y-6628600D02*
X4164800Y-6578600D01*
X4114800Y-6528600D01*
X4064800Y-6578600D01*
X4114800Y-6628600D01*
X4114800Y-6882600D02*
X4164800Y-6832600D01*
X4114800Y-6782600D01*
X4064800Y-6832600D01*
X4114800Y-6882600D01*
X4140200Y-301460D02*
X4190200Y-251460D01*
X4140200Y-201460D01*
X4090200Y-251460D01*
X4140200Y-301460D01*
X4394200Y-301460D02*
X4444200Y-251460D01*
X4394200Y-201460D01*
X4344200Y-251460D01*
X4394200Y-301460D01*
X4648200Y-301460D02*
X4698200Y-251460D01*
X4648200Y-201460D01*
X4598200Y-251460D01*
X4648200Y-301460D01*
X4902200Y-301460D02*
X4952200Y-251460D01*
X4902200Y-201460D01*
X4852200Y-251460D01*
X4902200Y-301460D01*
X5045368Y-5892000D02*
X5095368Y-5842000D01*
X5045368Y-5792000D01*
X4995368Y-5842000D01*
X5045368Y-5892000D01*
X5545368Y-5892000D02*
X5595368Y-5842000D01*
X5545368Y-5792000D01*
X5495368Y-5842000D01*
X5545368Y-5892000D01*
X6350000Y-7407832D02*
X6400000Y-7357832D01*
X6350000Y-7307832D01*
X6300000Y-7357832D01*
X6350000Y-7407832D01*
X6350000Y-7907832D02*
X6400000Y-7857832D01*
X6350000Y-7807832D01*
X6300000Y-7857832D01*
X6350000Y-7907832D01*
X6350000Y-8368500D02*
X6400000Y-8318500D01*
X6350000Y-8268500D01*
X6300000Y-8318500D01*
X6350000Y-8368500D01*
X6350000Y-8622500D02*
X6400000Y-8572500D01*
X6350000Y-8522500D01*
X6300000Y-8572500D01*
X6350000Y-8622500D01*
X7061200Y-1599400D02*
X7111200Y-1549400D01*
X7061200Y-1499400D01*
X7011200Y-1549400D01*
X7061200Y-1599400D01*
X7061200Y-1853400D02*
X7111200Y-1803400D01*
X7061200Y-1753400D01*
X7011200Y-1803400D01*
X7061200Y-1853400D01*
X7112000Y-4882008D02*
X7162000Y-4832008D01*
X7112000Y-4782008D01*
X7062000Y-4832008D01*
X7112000Y-4882008D01*
X7112000Y-5382008D02*
X7162000Y-5332008D01*
X7112000Y-5282008D01*
X7062000Y-5332008D01*
X7112000Y-5382008D01*
X7823200Y-4546300D02*
X7873200Y-4496300D01*
X7823200Y-4446300D01*
X7773200Y-4496300D01*
X7823200Y-4546300D01*
X7823200Y-4800300D02*
X7873200Y-4750300D01*
X7823200Y-4700300D01*
X7773200Y-4750300D01*
X7823200Y-4800300D01*
D11*
X255777Y-9206484D02*
X255777Y-9006484D01*
X255777Y-9006484D02*
X303396Y-9006484D01*
X303396Y-9006484D02*
X331967Y-9016008D01*
X331967Y-9016008D02*
X351015Y-9035055D01*
X351015Y-9035055D02*
X360539Y-9054103D01*
X360539Y-9054103D02*
X370062Y-9092198D01*
X370062Y-9092198D02*
X370062Y-9120770D01*
X370062Y-9120770D02*
X360539Y-9158865D01*
X360539Y-9158865D02*
X351015Y-9177912D01*
X351015Y-9177912D02*
X331967Y-9196960D01*
X331967Y-9196960D02*
X303396Y-9206484D01*
X303396Y-9206484D02*
X255777Y-9206484D01*
X455777Y-9206484D02*
X455777Y-9073150D01*
X455777Y-9111246D02*
X465301Y-9092198D01*
X465301Y-9092198D02*
X474824Y-9082674D01*
X474824Y-9082674D02*
X493872Y-9073150D01*
X493872Y-9073150D02*
X512920Y-9073150D01*
X579586Y-9206484D02*
X579586Y-9073150D01*
X579586Y-9006484D02*
X570063Y-9016008D01*
X570063Y-9016008D02*
X579586Y-9025531D01*
X579586Y-9025531D02*
X589110Y-9016008D01*
X589110Y-9016008D02*
X579586Y-9006484D01*
X579586Y-9006484D02*
X579586Y-9025531D01*
X703396Y-9206484D02*
X684348Y-9196960D01*
X684348Y-9196960D02*
X674824Y-9177912D01*
X674824Y-9177912D02*
X674824Y-9006484D01*
X808158Y-9206484D02*
X789110Y-9196960D01*
X789110Y-9196960D02*
X779586Y-9177912D01*
X779586Y-9177912D02*
X779586Y-9006484D01*
X1036729Y-9206484D02*
X1036729Y-9006484D01*
X1036729Y-9006484D02*
X1103396Y-9149341D01*
X1103396Y-9149341D02*
X1170063Y-9006484D01*
X1170063Y-9006484D02*
X1170063Y-9206484D01*
X1351015Y-9206484D02*
X1351015Y-9101722D01*
X1351015Y-9101722D02*
X1341491Y-9082674D01*
X1341491Y-9082674D02*
X1322444Y-9073150D01*
X1322444Y-9073150D02*
X1284348Y-9073150D01*
X1284348Y-9073150D02*
X1265301Y-9082674D01*
X1351015Y-9196960D02*
X1331967Y-9206484D01*
X1331967Y-9206484D02*
X1284348Y-9206484D01*
X1284348Y-9206484D02*
X1265301Y-9196960D01*
X1265301Y-9196960D02*
X1255777Y-9177912D01*
X1255777Y-9177912D02*
X1255777Y-9158865D01*
X1255777Y-9158865D02*
X1265301Y-9139817D01*
X1265301Y-9139817D02*
X1284348Y-9130293D01*
X1284348Y-9130293D02*
X1331967Y-9130293D01*
X1331967Y-9130293D02*
X1351015Y-9120770D01*
X1446253Y-9073150D02*
X1446253Y-9273150D01*
X1446253Y-9082674D02*
X1465301Y-9073150D01*
X1465301Y-9073150D02*
X1503396Y-9073150D01*
X1503396Y-9073150D02*
X1522443Y-9082674D01*
X1522443Y-9082674D02*
X1531967Y-9092198D01*
X1531967Y-9092198D02*
X1541491Y-9111246D01*
X1541491Y-9111246D02*
X1541491Y-9168389D01*
X1541491Y-9168389D02*
X1531967Y-9187436D01*
X1531967Y-9187436D02*
X1522443Y-9196960D01*
X1522443Y-9196960D02*
X1503396Y-9206484D01*
X1503396Y-9206484D02*
X1465301Y-9206484D01*
X1465301Y-9206484D02*
X1446253Y-9196960D01*
X1627205Y-9187436D02*
X1636729Y-9196960D01*
X1636729Y-9196960D02*
X1627205Y-9206484D01*
X1627205Y-9206484D02*
X1617682Y-9196960D01*
X1617682Y-9196960D02*
X1627205Y-9187436D01*
X1627205Y-9187436D02*
X1627205Y-9206484D01*
X1627205Y-9082674D02*
X1636729Y-9092198D01*
X1636729Y-9092198D02*
X1627205Y-9101722D01*
X1627205Y-9101722D02*
X1617682Y-9092198D01*
X1617682Y-9092198D02*
X1627205Y-9082674D01*
X1627205Y-9082674D02*
X1627205Y-9101722D01*
D12*
X-43100Y-9515950D02*
X-5000Y-9554050D01*
X-5000Y-9515950D02*
X-43100Y-9554050D01*
D11*
X293872Y-9426484D02*
X312920Y-9426484D01*
X312920Y-9426484D02*
X331967Y-9436008D01*
X331967Y-9436008D02*
X341491Y-9445531D01*
X341491Y-9445531D02*
X351015Y-9464579D01*
X351015Y-9464579D02*
X360539Y-9502674D01*
X360539Y-9502674D02*
X360539Y-9550293D01*
X360539Y-9550293D02*
X351015Y-9588389D01*
X351015Y-9588389D02*
X341491Y-9607436D01*
X341491Y-9607436D02*
X331967Y-9616960D01*
X331967Y-9616960D02*
X312920Y-9626484D01*
X312920Y-9626484D02*
X293872Y-9626484D01*
X293872Y-9626484D02*
X274824Y-9616960D01*
X274824Y-9616960D02*
X265301Y-9607436D01*
X265301Y-9607436D02*
X255777Y-9588389D01*
X255777Y-9588389D02*
X246253Y-9550293D01*
X246253Y-9550293D02*
X246253Y-9502674D01*
X246253Y-9502674D02*
X255777Y-9464579D01*
X255777Y-9464579D02*
X265301Y-9445531D01*
X265301Y-9445531D02*
X274824Y-9436008D01*
X274824Y-9436008D02*
X293872Y-9426484D01*
X446253Y-9607436D02*
X455777Y-9616960D01*
X455777Y-9616960D02*
X446253Y-9626484D01*
X446253Y-9626484D02*
X436729Y-9616960D01*
X436729Y-9616960D02*
X446253Y-9607436D01*
X446253Y-9607436D02*
X446253Y-9626484D01*
X522443Y-9426484D02*
X646253Y-9426484D01*
X646253Y-9426484D02*
X579586Y-9502674D01*
X579586Y-9502674D02*
X608158Y-9502674D01*
X608158Y-9502674D02*
X627205Y-9512198D01*
X627205Y-9512198D02*
X636729Y-9521722D01*
X636729Y-9521722D02*
X646253Y-9540770D01*
X646253Y-9540770D02*
X646253Y-9588389D01*
X646253Y-9588389D02*
X636729Y-9607436D01*
X636729Y-9607436D02*
X627205Y-9616960D01*
X627205Y-9616960D02*
X608158Y-9626484D01*
X608158Y-9626484D02*
X551015Y-9626484D01*
X551015Y-9626484D02*
X531967Y-9616960D01*
X531967Y-9616960D02*
X522443Y-9607436D01*
X760539Y-9512198D02*
X741491Y-9502674D01*
X741491Y-9502674D02*
X731967Y-9493150D01*
X731967Y-9493150D02*
X722443Y-9474103D01*
X722443Y-9474103D02*
X722443Y-9464579D01*
X722443Y-9464579D02*
X731967Y-9445531D01*
X731967Y-9445531D02*
X741491Y-9436008D01*
X741491Y-9436008D02*
X760539Y-9426484D01*
X760539Y-9426484D02*
X798634Y-9426484D01*
X798634Y-9426484D02*
X817682Y-9436008D01*
X817682Y-9436008D02*
X827205Y-9445531D01*
X827205Y-9445531D02*
X836729Y-9464579D01*
X836729Y-9464579D02*
X836729Y-9474103D01*
X836729Y-9474103D02*
X827205Y-9493150D01*
X827205Y-9493150D02*
X817682Y-9502674D01*
X817682Y-9502674D02*
X798634Y-9512198D01*
X798634Y-9512198D02*
X760539Y-9512198D01*
X760539Y-9512198D02*
X741491Y-9521722D01*
X741491Y-9521722D02*
X731967Y-9531246D01*
X731967Y-9531246D02*
X722443Y-9550293D01*
X722443Y-9550293D02*
X722443Y-9588389D01*
X722443Y-9588389D02*
X731967Y-9607436D01*
X731967Y-9607436D02*
X741491Y-9616960D01*
X741491Y-9616960D02*
X760539Y-9626484D01*
X760539Y-9626484D02*
X798634Y-9626484D01*
X798634Y-9626484D02*
X817682Y-9616960D01*
X817682Y-9616960D02*
X827205Y-9607436D01*
X827205Y-9607436D02*
X836729Y-9588389D01*
X836729Y-9588389D02*
X836729Y-9550293D01*
X836729Y-9550293D02*
X827205Y-9531246D01*
X827205Y-9531246D02*
X817682Y-9521722D01*
X817682Y-9521722D02*
X798634Y-9512198D01*
X1027205Y-9626484D02*
X912920Y-9626484D01*
X970062Y-9626484D02*
X970062Y-9426484D01*
X970062Y-9426484D02*
X951015Y-9455055D01*
X951015Y-9455055D02*
X931967Y-9474103D01*
X931967Y-9474103D02*
X912920Y-9483627D01*
X1112920Y-9626484D02*
X1112920Y-9493150D01*
X1112920Y-9512198D02*
X1122444Y-9502674D01*
X1122444Y-9502674D02*
X1141491Y-9493150D01*
X1141491Y-9493150D02*
X1170063Y-9493150D01*
X1170063Y-9493150D02*
X1189110Y-9502674D01*
X1189110Y-9502674D02*
X1198634Y-9521722D01*
X1198634Y-9521722D02*
X1198634Y-9626484D01*
X1198634Y-9521722D02*
X1208158Y-9502674D01*
X1208158Y-9502674D02*
X1227205Y-9493150D01*
X1227205Y-9493150D02*
X1255777Y-9493150D01*
X1255777Y-9493150D02*
X1274825Y-9502674D01*
X1274825Y-9502674D02*
X1284348Y-9521722D01*
X1284348Y-9521722D02*
X1284348Y-9626484D01*
X1379586Y-9626484D02*
X1379586Y-9493150D01*
X1379586Y-9512198D02*
X1389110Y-9502674D01*
X1389110Y-9502674D02*
X1408158Y-9493150D01*
X1408158Y-9493150D02*
X1436729Y-9493150D01*
X1436729Y-9493150D02*
X1455777Y-9502674D01*
X1455777Y-9502674D02*
X1465301Y-9521722D01*
X1465301Y-9521722D02*
X1465301Y-9626484D01*
X1465301Y-9521722D02*
X1474824Y-9502674D01*
X1474824Y-9502674D02*
X1493872Y-9493150D01*
X1493872Y-9493150D02*
X1522443Y-9493150D01*
X1522443Y-9493150D02*
X1541491Y-9502674D01*
X1541491Y-9502674D02*
X1551015Y-9521722D01*
X1551015Y-9521722D02*
X1551015Y-9626484D01*
X1941491Y-9416960D02*
X1770063Y-9674103D01*
X2198634Y-9426484D02*
X2217682Y-9426484D01*
X2217682Y-9426484D02*
X2236729Y-9436008D01*
X2236729Y-9436008D02*
X2246253Y-9445531D01*
X2246253Y-9445531D02*
X2255777Y-9464579D01*
X2255777Y-9464579D02*
X2265301Y-9502674D01*
X2265301Y-9502674D02*
X2265301Y-9550293D01*
X2265301Y-9550293D02*
X2255777Y-9588389D01*
X2255777Y-9588389D02*
X2246253Y-9607436D01*
X2246253Y-9607436D02*
X2236729Y-9616960D01*
X2236729Y-9616960D02*
X2217682Y-9626484D01*
X2217682Y-9626484D02*
X2198634Y-9626484D01*
X2198634Y-9626484D02*
X2179587Y-9616960D01*
X2179587Y-9616960D02*
X2170063Y-9607436D01*
X2170063Y-9607436D02*
X2160539Y-9588389D01*
X2160539Y-9588389D02*
X2151015Y-9550293D01*
X2151015Y-9550293D02*
X2151015Y-9502674D01*
X2151015Y-9502674D02*
X2160539Y-9464579D01*
X2160539Y-9464579D02*
X2170063Y-9445531D01*
X2170063Y-9445531D02*
X2179587Y-9436008D01*
X2179587Y-9436008D02*
X2198634Y-9426484D01*
X2351015Y-9607436D02*
X2360539Y-9616960D01*
X2360539Y-9616960D02*
X2351015Y-9626484D01*
X2351015Y-9626484D02*
X2341491Y-9616960D01*
X2341491Y-9616960D02*
X2351015Y-9607436D01*
X2351015Y-9607436D02*
X2351015Y-9626484D01*
X2484348Y-9426484D02*
X2503396Y-9426484D01*
X2503396Y-9426484D02*
X2522444Y-9436008D01*
X2522444Y-9436008D02*
X2531968Y-9445531D01*
X2531968Y-9445531D02*
X2541491Y-9464579D01*
X2541491Y-9464579D02*
X2551015Y-9502674D01*
X2551015Y-9502674D02*
X2551015Y-9550293D01*
X2551015Y-9550293D02*
X2541491Y-9588389D01*
X2541491Y-9588389D02*
X2531968Y-9607436D01*
X2531968Y-9607436D02*
X2522444Y-9616960D01*
X2522444Y-9616960D02*
X2503396Y-9626484D01*
X2503396Y-9626484D02*
X2484348Y-9626484D01*
X2484348Y-9626484D02*
X2465301Y-9616960D01*
X2465301Y-9616960D02*
X2455777Y-9607436D01*
X2455777Y-9607436D02*
X2446253Y-9588389D01*
X2446253Y-9588389D02*
X2436729Y-9550293D01*
X2436729Y-9550293D02*
X2436729Y-9502674D01*
X2436729Y-9502674D02*
X2446253Y-9464579D01*
X2446253Y-9464579D02*
X2455777Y-9445531D01*
X2455777Y-9445531D02*
X2465301Y-9436008D01*
X2465301Y-9436008D02*
X2484348Y-9426484D01*
X2741491Y-9626484D02*
X2627206Y-9626484D01*
X2684348Y-9626484D02*
X2684348Y-9426484D01*
X2684348Y-9426484D02*
X2665301Y-9455055D01*
X2665301Y-9455055D02*
X2646253Y-9474103D01*
X2646253Y-9474103D02*
X2627206Y-9483627D01*
X2922444Y-9426484D02*
X2827206Y-9426484D01*
X2827206Y-9426484D02*
X2817682Y-9521722D01*
X2817682Y-9521722D02*
X2827206Y-9512198D01*
X2827206Y-9512198D02*
X2846253Y-9502674D01*
X2846253Y-9502674D02*
X2893872Y-9502674D01*
X2893872Y-9502674D02*
X2912920Y-9512198D01*
X2912920Y-9512198D02*
X2922444Y-9521722D01*
X2922444Y-9521722D02*
X2931967Y-9540770D01*
X2931967Y-9540770D02*
X2931967Y-9588389D01*
X2931967Y-9588389D02*
X2922444Y-9607436D01*
X2922444Y-9607436D02*
X2912920Y-9616960D01*
X2912920Y-9616960D02*
X2893872Y-9626484D01*
X2893872Y-9626484D02*
X2846253Y-9626484D01*
X2846253Y-9626484D02*
X2827206Y-9616960D01*
X2827206Y-9616960D02*
X2817682Y-9607436D01*
X3055777Y-9426484D02*
X3074825Y-9426484D01*
X3074825Y-9426484D02*
X3093872Y-9436008D01*
X3093872Y-9436008D02*
X3103396Y-9445531D01*
X3103396Y-9445531D02*
X3112920Y-9464579D01*
X3112920Y-9464579D02*
X3122444Y-9502674D01*
X3122444Y-9502674D02*
X3122444Y-9550293D01*
X3122444Y-9550293D02*
X3112920Y-9588389D01*
X3112920Y-9588389D02*
X3103396Y-9607436D01*
X3103396Y-9607436D02*
X3093872Y-9616960D01*
X3093872Y-9616960D02*
X3074825Y-9626484D01*
X3074825Y-9626484D02*
X3055777Y-9626484D01*
X3055777Y-9626484D02*
X3036729Y-9616960D01*
X3036729Y-9616960D02*
X3027206Y-9607436D01*
X3027206Y-9607436D02*
X3017682Y-9588389D01*
X3017682Y-9588389D02*
X3008158Y-9550293D01*
X3008158Y-9550293D02*
X3008158Y-9502674D01*
X3008158Y-9502674D02*
X3017682Y-9464579D01*
X3017682Y-9464579D02*
X3027206Y-9445531D01*
X3027206Y-9445531D02*
X3036729Y-9436008D01*
X3036729Y-9436008D02*
X3055777Y-9426484D01*
X3198634Y-9426484D02*
X3198634Y-9464579D01*
X3274825Y-9426484D02*
X3274825Y-9464579D01*
X3570063Y-9702674D02*
X3560539Y-9693150D01*
X3560539Y-9693150D02*
X3541491Y-9664579D01*
X3541491Y-9664579D02*
X3531968Y-9645531D01*
X3531968Y-9645531D02*
X3522444Y-9616960D01*
X3522444Y-9616960D02*
X3512920Y-9569341D01*
X3512920Y-9569341D02*
X3512920Y-9531246D01*
X3512920Y-9531246D02*
X3522444Y-9483627D01*
X3522444Y-9483627D02*
X3531968Y-9455055D01*
X3531968Y-9455055D02*
X3541491Y-9436008D01*
X3541491Y-9436008D02*
X3560539Y-9407436D01*
X3560539Y-9407436D02*
X3570063Y-9397912D01*
X3751015Y-9626484D02*
X3636729Y-9626484D01*
X3693872Y-9626484D02*
X3693872Y-9426484D01*
X3693872Y-9426484D02*
X3674825Y-9455055D01*
X3674825Y-9455055D02*
X3655777Y-9474103D01*
X3655777Y-9474103D02*
X3636729Y-9483627D01*
X3941491Y-9626484D02*
X3827206Y-9626484D01*
X3884348Y-9626484D02*
X3884348Y-9426484D01*
X3884348Y-9426484D02*
X3865301Y-9455055D01*
X3865301Y-9455055D02*
X3846253Y-9474103D01*
X3846253Y-9474103D02*
X3827206Y-9483627D01*
X4008158Y-9426484D02*
X4131968Y-9426484D01*
X4131968Y-9426484D02*
X4065301Y-9502674D01*
X4065301Y-9502674D02*
X4093872Y-9502674D01*
X4093872Y-9502674D02*
X4112920Y-9512198D01*
X4112920Y-9512198D02*
X4122444Y-9521722D01*
X4122444Y-9521722D02*
X4131968Y-9540770D01*
X4131968Y-9540770D02*
X4131968Y-9588389D01*
X4131968Y-9588389D02*
X4122444Y-9607436D01*
X4122444Y-9607436D02*
X4112920Y-9616960D01*
X4112920Y-9616960D02*
X4093872Y-9626484D01*
X4093872Y-9626484D02*
X4036729Y-9626484D01*
X4036729Y-9626484D02*
X4017682Y-9616960D01*
X4017682Y-9616960D02*
X4008158Y-9607436D01*
X4370063Y-9626484D02*
X4370063Y-9426484D01*
X4455777Y-9626484D02*
X4455777Y-9521722D01*
X4455777Y-9521722D02*
X4446253Y-9502674D01*
X4446253Y-9502674D02*
X4427206Y-9493150D01*
X4427206Y-9493150D02*
X4398634Y-9493150D01*
X4398634Y-9493150D02*
X4379587Y-9502674D01*
X4379587Y-9502674D02*
X4370063Y-9512198D01*
X4579587Y-9626484D02*
X4560539Y-9616960D01*
X4560539Y-9616960D02*
X4551015Y-9607436D01*
X4551015Y-9607436D02*
X4541492Y-9588389D01*
X4541492Y-9588389D02*
X4541492Y-9531246D01*
X4541492Y-9531246D02*
X4551015Y-9512198D01*
X4551015Y-9512198D02*
X4560539Y-9502674D01*
X4560539Y-9502674D02*
X4579587Y-9493150D01*
X4579587Y-9493150D02*
X4608158Y-9493150D01*
X4608158Y-9493150D02*
X4627206Y-9502674D01*
X4627206Y-9502674D02*
X4636730Y-9512198D01*
X4636730Y-9512198D02*
X4646253Y-9531246D01*
X4646253Y-9531246D02*
X4646253Y-9588389D01*
X4646253Y-9588389D02*
X4636730Y-9607436D01*
X4636730Y-9607436D02*
X4627206Y-9616960D01*
X4627206Y-9616960D02*
X4608158Y-9626484D01*
X4608158Y-9626484D02*
X4579587Y-9626484D01*
X4760539Y-9626484D02*
X4741492Y-9616960D01*
X4741492Y-9616960D02*
X4731968Y-9597912D01*
X4731968Y-9597912D02*
X4731968Y-9426484D01*
X4912920Y-9616960D02*
X4893873Y-9626484D01*
X4893873Y-9626484D02*
X4855777Y-9626484D01*
X4855777Y-9626484D02*
X4836730Y-9616960D01*
X4836730Y-9616960D02*
X4827206Y-9597912D01*
X4827206Y-9597912D02*
X4827206Y-9521722D01*
X4827206Y-9521722D02*
X4836730Y-9502674D01*
X4836730Y-9502674D02*
X4855777Y-9493150D01*
X4855777Y-9493150D02*
X4893873Y-9493150D01*
X4893873Y-9493150D02*
X4912920Y-9502674D01*
X4912920Y-9502674D02*
X4922444Y-9521722D01*
X4922444Y-9521722D02*
X4922444Y-9540770D01*
X4922444Y-9540770D02*
X4827206Y-9559817D01*
X4998634Y-9616960D02*
X5017682Y-9626484D01*
X5017682Y-9626484D02*
X5055777Y-9626484D01*
X5055777Y-9626484D02*
X5074825Y-9616960D01*
X5074825Y-9616960D02*
X5084349Y-9597912D01*
X5084349Y-9597912D02*
X5084349Y-9588389D01*
X5084349Y-9588389D02*
X5074825Y-9569341D01*
X5074825Y-9569341D02*
X5055777Y-9559817D01*
X5055777Y-9559817D02*
X5027206Y-9559817D01*
X5027206Y-9559817D02*
X5008158Y-9550293D01*
X5008158Y-9550293D02*
X4998634Y-9531246D01*
X4998634Y-9531246D02*
X4998634Y-9521722D01*
X4998634Y-9521722D02*
X5008158Y-9502674D01*
X5008158Y-9502674D02*
X5027206Y-9493150D01*
X5027206Y-9493150D02*
X5055777Y-9493150D01*
X5055777Y-9493150D02*
X5074825Y-9502674D01*
X5151015Y-9702674D02*
X5160539Y-9693150D01*
X5160539Y-9693150D02*
X5179587Y-9664579D01*
X5179587Y-9664579D02*
X5189111Y-9645531D01*
X5189111Y-9645531D02*
X5198634Y-9616960D01*
X5198634Y-9616960D02*
X5208158Y-9569341D01*
X5208158Y-9569341D02*
X5208158Y-9531246D01*
X5208158Y-9531246D02*
X5198634Y-9483627D01*
X5198634Y-9483627D02*
X5189111Y-9455055D01*
X5189111Y-9455055D02*
X5179587Y-9436008D01*
X5179587Y-9436008D02*
X5160539Y-9407436D01*
X5160539Y-9407436D02*
X5151015Y-9397912D01*
D13*
X-5000Y-9799000D02*
G75*
G03*
X-5000Y-9799000I-25400J0D01*
G01*
D11*
X293872Y-9690484D02*
X312920Y-9690484D01*
X312920Y-9690484D02*
X331967Y-9700008D01*
X331967Y-9700008D02*
X341491Y-9709531D01*
X341491Y-9709531D02*
X351015Y-9728579D01*
X351015Y-9728579D02*
X360539Y-9766674D01*
X360539Y-9766674D02*
X360539Y-9814293D01*
X360539Y-9814293D02*
X351015Y-9852389D01*
X351015Y-9852389D02*
X341491Y-9871436D01*
X341491Y-9871436D02*
X331967Y-9880960D01*
X331967Y-9880960D02*
X312920Y-9890484D01*
X312920Y-9890484D02*
X293872Y-9890484D01*
X293872Y-9890484D02*
X274824Y-9880960D01*
X274824Y-9880960D02*
X265301Y-9871436D01*
X265301Y-9871436D02*
X255777Y-9852389D01*
X255777Y-9852389D02*
X246253Y-9814293D01*
X246253Y-9814293D02*
X246253Y-9766674D01*
X246253Y-9766674D02*
X255777Y-9728579D01*
X255777Y-9728579D02*
X265301Y-9709531D01*
X265301Y-9709531D02*
X274824Y-9700008D01*
X274824Y-9700008D02*
X293872Y-9690484D01*
X446253Y-9871436D02*
X455777Y-9880960D01*
X455777Y-9880960D02*
X446253Y-9890484D01*
X446253Y-9890484D02*
X436729Y-9880960D01*
X436729Y-9880960D02*
X446253Y-9871436D01*
X446253Y-9871436D02*
X446253Y-9890484D01*
X636729Y-9690484D02*
X541491Y-9690484D01*
X541491Y-9690484D02*
X531967Y-9785722D01*
X531967Y-9785722D02*
X541491Y-9776198D01*
X541491Y-9776198D02*
X560539Y-9766674D01*
X560539Y-9766674D02*
X608158Y-9766674D01*
X608158Y-9766674D02*
X627205Y-9776198D01*
X627205Y-9776198D02*
X636729Y-9785722D01*
X636729Y-9785722D02*
X646253Y-9804770D01*
X646253Y-9804770D02*
X646253Y-9852389D01*
X646253Y-9852389D02*
X636729Y-9871436D01*
X636729Y-9871436D02*
X627205Y-9880960D01*
X627205Y-9880960D02*
X608158Y-9890484D01*
X608158Y-9890484D02*
X560539Y-9890484D01*
X560539Y-9890484D02*
X541491Y-9880960D01*
X541491Y-9880960D02*
X531967Y-9871436D01*
X770062Y-9690484D02*
X789110Y-9690484D01*
X789110Y-9690484D02*
X808158Y-9700008D01*
X808158Y-9700008D02*
X817682Y-9709531D01*
X817682Y-9709531D02*
X827205Y-9728579D01*
X827205Y-9728579D02*
X836729Y-9766674D01*
X836729Y-9766674D02*
X836729Y-9814293D01*
X836729Y-9814293D02*
X827205Y-9852389D01*
X827205Y-9852389D02*
X817682Y-9871436D01*
X817682Y-9871436D02*
X808158Y-9880960D01*
X808158Y-9880960D02*
X789110Y-9890484D01*
X789110Y-9890484D02*
X770062Y-9890484D01*
X770062Y-9890484D02*
X751015Y-9880960D01*
X751015Y-9880960D02*
X741491Y-9871436D01*
X741491Y-9871436D02*
X731967Y-9852389D01*
X731967Y-9852389D02*
X722443Y-9814293D01*
X722443Y-9814293D02*
X722443Y-9766674D01*
X722443Y-9766674D02*
X731967Y-9728579D01*
X731967Y-9728579D02*
X741491Y-9709531D01*
X741491Y-9709531D02*
X751015Y-9700008D01*
X751015Y-9700008D02*
X770062Y-9690484D01*
X951015Y-9776198D02*
X931967Y-9766674D01*
X931967Y-9766674D02*
X922443Y-9757150D01*
X922443Y-9757150D02*
X912920Y-9738103D01*
X912920Y-9738103D02*
X912920Y-9728579D01*
X912920Y-9728579D02*
X922443Y-9709531D01*
X922443Y-9709531D02*
X931967Y-9700008D01*
X931967Y-9700008D02*
X951015Y-9690484D01*
X951015Y-9690484D02*
X989110Y-9690484D01*
X989110Y-9690484D02*
X1008158Y-9700008D01*
X1008158Y-9700008D02*
X1017682Y-9709531D01*
X1017682Y-9709531D02*
X1027205Y-9728579D01*
X1027205Y-9728579D02*
X1027205Y-9738103D01*
X1027205Y-9738103D02*
X1017682Y-9757150D01*
X1017682Y-9757150D02*
X1008158Y-9766674D01*
X1008158Y-9766674D02*
X989110Y-9776198D01*
X989110Y-9776198D02*
X951015Y-9776198D01*
X951015Y-9776198D02*
X931967Y-9785722D01*
X931967Y-9785722D02*
X922443Y-9795246D01*
X922443Y-9795246D02*
X912920Y-9814293D01*
X912920Y-9814293D02*
X912920Y-9852389D01*
X912920Y-9852389D02*
X922443Y-9871436D01*
X922443Y-9871436D02*
X931967Y-9880960D01*
X931967Y-9880960D02*
X951015Y-9890484D01*
X951015Y-9890484D02*
X989110Y-9890484D01*
X989110Y-9890484D02*
X1008158Y-9880960D01*
X1008158Y-9880960D02*
X1017682Y-9871436D01*
X1017682Y-9871436D02*
X1027205Y-9852389D01*
X1027205Y-9852389D02*
X1027205Y-9814293D01*
X1027205Y-9814293D02*
X1017682Y-9795246D01*
X1017682Y-9795246D02*
X1008158Y-9785722D01*
X1008158Y-9785722D02*
X989110Y-9776198D01*
X1112920Y-9890484D02*
X1112920Y-9757150D01*
X1112920Y-9776198D02*
X1122444Y-9766674D01*
X1122444Y-9766674D02*
X1141491Y-9757150D01*
X1141491Y-9757150D02*
X1170063Y-9757150D01*
X1170063Y-9757150D02*
X1189110Y-9766674D01*
X1189110Y-9766674D02*
X1198634Y-9785722D01*
X1198634Y-9785722D02*
X1198634Y-9890484D01*
X1198634Y-9785722D02*
X1208158Y-9766674D01*
X1208158Y-9766674D02*
X1227205Y-9757150D01*
X1227205Y-9757150D02*
X1255777Y-9757150D01*
X1255777Y-9757150D02*
X1274825Y-9766674D01*
X1274825Y-9766674D02*
X1284348Y-9785722D01*
X1284348Y-9785722D02*
X1284348Y-9890484D01*
X1379586Y-9890484D02*
X1379586Y-9757150D01*
X1379586Y-9776198D02*
X1389110Y-9766674D01*
X1389110Y-9766674D02*
X1408158Y-9757150D01*
X1408158Y-9757150D02*
X1436729Y-9757150D01*
X1436729Y-9757150D02*
X1455777Y-9766674D01*
X1455777Y-9766674D02*
X1465301Y-9785722D01*
X1465301Y-9785722D02*
X1465301Y-9890484D01*
X1465301Y-9785722D02*
X1474824Y-9766674D01*
X1474824Y-9766674D02*
X1493872Y-9757150D01*
X1493872Y-9757150D02*
X1522443Y-9757150D01*
X1522443Y-9757150D02*
X1541491Y-9766674D01*
X1541491Y-9766674D02*
X1551015Y-9785722D01*
X1551015Y-9785722D02*
X1551015Y-9890484D01*
X1941491Y-9680960D02*
X1770063Y-9938103D01*
X2198634Y-9690484D02*
X2217682Y-9690484D01*
X2217682Y-9690484D02*
X2236729Y-9700008D01*
X2236729Y-9700008D02*
X2246253Y-9709531D01*
X2246253Y-9709531D02*
X2255777Y-9728579D01*
X2255777Y-9728579D02*
X2265301Y-9766674D01*
X2265301Y-9766674D02*
X2265301Y-9814293D01*
X2265301Y-9814293D02*
X2255777Y-9852389D01*
X2255777Y-9852389D02*
X2246253Y-9871436D01*
X2246253Y-9871436D02*
X2236729Y-9880960D01*
X2236729Y-9880960D02*
X2217682Y-9890484D01*
X2217682Y-9890484D02*
X2198634Y-9890484D01*
X2198634Y-9890484D02*
X2179587Y-9880960D01*
X2179587Y-9880960D02*
X2170063Y-9871436D01*
X2170063Y-9871436D02*
X2160539Y-9852389D01*
X2160539Y-9852389D02*
X2151015Y-9814293D01*
X2151015Y-9814293D02*
X2151015Y-9766674D01*
X2151015Y-9766674D02*
X2160539Y-9728579D01*
X2160539Y-9728579D02*
X2170063Y-9709531D01*
X2170063Y-9709531D02*
X2179587Y-9700008D01*
X2179587Y-9700008D02*
X2198634Y-9690484D01*
X2351015Y-9871436D02*
X2360539Y-9880960D01*
X2360539Y-9880960D02*
X2351015Y-9890484D01*
X2351015Y-9890484D02*
X2341491Y-9880960D01*
X2341491Y-9880960D02*
X2351015Y-9871436D01*
X2351015Y-9871436D02*
X2351015Y-9890484D01*
X2484348Y-9690484D02*
X2503396Y-9690484D01*
X2503396Y-9690484D02*
X2522444Y-9700008D01*
X2522444Y-9700008D02*
X2531968Y-9709531D01*
X2531968Y-9709531D02*
X2541491Y-9728579D01*
X2541491Y-9728579D02*
X2551015Y-9766674D01*
X2551015Y-9766674D02*
X2551015Y-9814293D01*
X2551015Y-9814293D02*
X2541491Y-9852389D01*
X2541491Y-9852389D02*
X2531968Y-9871436D01*
X2531968Y-9871436D02*
X2522444Y-9880960D01*
X2522444Y-9880960D02*
X2503396Y-9890484D01*
X2503396Y-9890484D02*
X2484348Y-9890484D01*
X2484348Y-9890484D02*
X2465301Y-9880960D01*
X2465301Y-9880960D02*
X2455777Y-9871436D01*
X2455777Y-9871436D02*
X2446253Y-9852389D01*
X2446253Y-9852389D02*
X2436729Y-9814293D01*
X2436729Y-9814293D02*
X2436729Y-9766674D01*
X2436729Y-9766674D02*
X2446253Y-9728579D01*
X2446253Y-9728579D02*
X2455777Y-9709531D01*
X2455777Y-9709531D02*
X2465301Y-9700008D01*
X2465301Y-9700008D02*
X2484348Y-9690484D01*
X2627206Y-9709531D02*
X2636729Y-9700008D01*
X2636729Y-9700008D02*
X2655777Y-9690484D01*
X2655777Y-9690484D02*
X2703396Y-9690484D01*
X2703396Y-9690484D02*
X2722444Y-9700008D01*
X2722444Y-9700008D02*
X2731968Y-9709531D01*
X2731968Y-9709531D02*
X2741491Y-9728579D01*
X2741491Y-9728579D02*
X2741491Y-9747627D01*
X2741491Y-9747627D02*
X2731968Y-9776198D01*
X2731968Y-9776198D02*
X2617682Y-9890484D01*
X2617682Y-9890484D02*
X2741491Y-9890484D01*
X2865301Y-9690484D02*
X2884348Y-9690484D01*
X2884348Y-9690484D02*
X2903396Y-9700008D01*
X2903396Y-9700008D02*
X2912920Y-9709531D01*
X2912920Y-9709531D02*
X2922444Y-9728579D01*
X2922444Y-9728579D02*
X2931967Y-9766674D01*
X2931967Y-9766674D02*
X2931967Y-9814293D01*
X2931967Y-9814293D02*
X2922444Y-9852389D01*
X2922444Y-9852389D02*
X2912920Y-9871436D01*
X2912920Y-9871436D02*
X2903396Y-9880960D01*
X2903396Y-9880960D02*
X2884348Y-9890484D01*
X2884348Y-9890484D02*
X2865301Y-9890484D01*
X2865301Y-9890484D02*
X2846253Y-9880960D01*
X2846253Y-9880960D02*
X2836729Y-9871436D01*
X2836729Y-9871436D02*
X2827206Y-9852389D01*
X2827206Y-9852389D02*
X2817682Y-9814293D01*
X2817682Y-9814293D02*
X2817682Y-9766674D01*
X2817682Y-9766674D02*
X2827206Y-9728579D01*
X2827206Y-9728579D02*
X2836729Y-9709531D01*
X2836729Y-9709531D02*
X2846253Y-9700008D01*
X2846253Y-9700008D02*
X2865301Y-9690484D01*
X3055777Y-9690484D02*
X3074825Y-9690484D01*
X3074825Y-9690484D02*
X3093872Y-9700008D01*
X3093872Y-9700008D02*
X3103396Y-9709531D01*
X3103396Y-9709531D02*
X3112920Y-9728579D01*
X3112920Y-9728579D02*
X3122444Y-9766674D01*
X3122444Y-9766674D02*
X3122444Y-9814293D01*
X3122444Y-9814293D02*
X3112920Y-9852389D01*
X3112920Y-9852389D02*
X3103396Y-9871436D01*
X3103396Y-9871436D02*
X3093872Y-9880960D01*
X3093872Y-9880960D02*
X3074825Y-9890484D01*
X3074825Y-9890484D02*
X3055777Y-9890484D01*
X3055777Y-9890484D02*
X3036729Y-9880960D01*
X3036729Y-9880960D02*
X3027206Y-9871436D01*
X3027206Y-9871436D02*
X3017682Y-9852389D01*
X3017682Y-9852389D02*
X3008158Y-9814293D01*
X3008158Y-9814293D02*
X3008158Y-9766674D01*
X3008158Y-9766674D02*
X3017682Y-9728579D01*
X3017682Y-9728579D02*
X3027206Y-9709531D01*
X3027206Y-9709531D02*
X3036729Y-9700008D01*
X3036729Y-9700008D02*
X3055777Y-9690484D01*
X3198634Y-9690484D02*
X3198634Y-9728579D01*
X3274825Y-9690484D02*
X3274825Y-9728579D01*
X3570063Y-9966674D02*
X3560539Y-9957150D01*
X3560539Y-9957150D02*
X3541491Y-9928579D01*
X3541491Y-9928579D02*
X3531968Y-9909531D01*
X3531968Y-9909531D02*
X3522444Y-9880960D01*
X3522444Y-9880960D02*
X3512920Y-9833341D01*
X3512920Y-9833341D02*
X3512920Y-9795246D01*
X3512920Y-9795246D02*
X3522444Y-9747627D01*
X3522444Y-9747627D02*
X3531968Y-9719055D01*
X3531968Y-9719055D02*
X3541491Y-9700008D01*
X3541491Y-9700008D02*
X3560539Y-9671436D01*
X3560539Y-9671436D02*
X3570063Y-9661912D01*
X3751015Y-9890484D02*
X3636729Y-9890484D01*
X3693872Y-9890484D02*
X3693872Y-9690484D01*
X3693872Y-9690484D02*
X3674825Y-9719055D01*
X3674825Y-9719055D02*
X3655777Y-9738103D01*
X3655777Y-9738103D02*
X3636729Y-9747627D01*
X3931968Y-9690484D02*
X3836729Y-9690484D01*
X3836729Y-9690484D02*
X3827206Y-9785722D01*
X3827206Y-9785722D02*
X3836729Y-9776198D01*
X3836729Y-9776198D02*
X3855777Y-9766674D01*
X3855777Y-9766674D02*
X3903396Y-9766674D01*
X3903396Y-9766674D02*
X3922444Y-9776198D01*
X3922444Y-9776198D02*
X3931968Y-9785722D01*
X3931968Y-9785722D02*
X3941491Y-9804770D01*
X3941491Y-9804770D02*
X3941491Y-9852389D01*
X3941491Y-9852389D02*
X3931968Y-9871436D01*
X3931968Y-9871436D02*
X3922444Y-9880960D01*
X3922444Y-9880960D02*
X3903396Y-9890484D01*
X3903396Y-9890484D02*
X3855777Y-9890484D01*
X3855777Y-9890484D02*
X3836729Y-9880960D01*
X3836729Y-9880960D02*
X3827206Y-9871436D01*
X4179587Y-9890484D02*
X4179587Y-9690484D01*
X4265301Y-9890484D02*
X4265301Y-9785722D01*
X4265301Y-9785722D02*
X4255777Y-9766674D01*
X4255777Y-9766674D02*
X4236730Y-9757150D01*
X4236730Y-9757150D02*
X4208158Y-9757150D01*
X4208158Y-9757150D02*
X4189110Y-9766674D01*
X4189110Y-9766674D02*
X4179587Y-9776198D01*
X4389111Y-9890484D02*
X4370063Y-9880960D01*
X4370063Y-9880960D02*
X4360539Y-9871436D01*
X4360539Y-9871436D02*
X4351015Y-9852389D01*
X4351015Y-9852389D02*
X4351015Y-9795246D01*
X4351015Y-9795246D02*
X4360539Y-9776198D01*
X4360539Y-9776198D02*
X4370063Y-9766674D01*
X4370063Y-9766674D02*
X4389111Y-9757150D01*
X4389111Y-9757150D02*
X4417682Y-9757150D01*
X4417682Y-9757150D02*
X4436730Y-9766674D01*
X4436730Y-9766674D02*
X4446253Y-9776198D01*
X4446253Y-9776198D02*
X4455777Y-9795246D01*
X4455777Y-9795246D02*
X4455777Y-9852389D01*
X4455777Y-9852389D02*
X4446253Y-9871436D01*
X4446253Y-9871436D02*
X4436730Y-9880960D01*
X4436730Y-9880960D02*
X4417682Y-9890484D01*
X4417682Y-9890484D02*
X4389111Y-9890484D01*
X4570063Y-9890484D02*
X4551015Y-9880960D01*
X4551015Y-9880960D02*
X4541492Y-9861912D01*
X4541492Y-9861912D02*
X4541492Y-9690484D01*
X4722444Y-9880960D02*
X4703396Y-9890484D01*
X4703396Y-9890484D02*
X4665301Y-9890484D01*
X4665301Y-9890484D02*
X4646253Y-9880960D01*
X4646253Y-9880960D02*
X4636730Y-9861912D01*
X4636730Y-9861912D02*
X4636730Y-9785722D01*
X4636730Y-9785722D02*
X4646253Y-9766674D01*
X4646253Y-9766674D02*
X4665301Y-9757150D01*
X4665301Y-9757150D02*
X4703396Y-9757150D01*
X4703396Y-9757150D02*
X4722444Y-9766674D01*
X4722444Y-9766674D02*
X4731968Y-9785722D01*
X4731968Y-9785722D02*
X4731968Y-9804770D01*
X4731968Y-9804770D02*
X4636730Y-9823817D01*
X4808158Y-9880960D02*
X4827206Y-9890484D01*
X4827206Y-9890484D02*
X4865301Y-9890484D01*
X4865301Y-9890484D02*
X4884349Y-9880960D01*
X4884349Y-9880960D02*
X4893873Y-9861912D01*
X4893873Y-9861912D02*
X4893873Y-9852389D01*
X4893873Y-9852389D02*
X4884349Y-9833341D01*
X4884349Y-9833341D02*
X4865301Y-9823817D01*
X4865301Y-9823817D02*
X4836730Y-9823817D01*
X4836730Y-9823817D02*
X4817682Y-9814293D01*
X4817682Y-9814293D02*
X4808158Y-9795246D01*
X4808158Y-9795246D02*
X4808158Y-9785722D01*
X4808158Y-9785722D02*
X4817682Y-9766674D01*
X4817682Y-9766674D02*
X4836730Y-9757150D01*
X4836730Y-9757150D02*
X4865301Y-9757150D01*
X4865301Y-9757150D02*
X4884349Y-9766674D01*
X4960539Y-9966674D02*
X4970063Y-9957150D01*
X4970063Y-9957150D02*
X4989111Y-9928579D01*
X4989111Y-9928579D02*
X4998634Y-9909531D01*
X4998634Y-9909531D02*
X5008158Y-9880960D01*
X5008158Y-9880960D02*
X5017682Y-9833341D01*
X5017682Y-9833341D02*
X5017682Y-9795246D01*
X5017682Y-9795246D02*
X5008158Y-9747627D01*
X5008158Y-9747627D02*
X4998634Y-9719055D01*
X4998634Y-9719055D02*
X4989111Y-9700008D01*
X4989111Y-9700008D02*
X4970063Y-9671436D01*
X4970063Y-9671436D02*
X4960539Y-9661912D01*
D14*
X-45000Y-10023000D02*
X-45000Y-10103000D01*
X-85000Y-10063000D02*
X-5000Y-10063000D01*
D11*
X293872Y-9954484D02*
X312920Y-9954484D01*
X312920Y-9954484D02*
X331967Y-9964008D01*
X331967Y-9964008D02*
X341491Y-9973531D01*
X341491Y-9973531D02*
X351015Y-9992579D01*
X351015Y-9992579D02*
X360539Y-10030674D01*
X360539Y-10030674D02*
X360539Y-10078293D01*
X360539Y-10078293D02*
X351015Y-10116389D01*
X351015Y-10116389D02*
X341491Y-10135436D01*
X341491Y-10135436D02*
X331967Y-10144960D01*
X331967Y-10144960D02*
X312920Y-10154484D01*
X312920Y-10154484D02*
X293872Y-10154484D01*
X293872Y-10154484D02*
X274824Y-10144960D01*
X274824Y-10144960D02*
X265301Y-10135436D01*
X265301Y-10135436D02*
X255777Y-10116389D01*
X255777Y-10116389D02*
X246253Y-10078293D01*
X246253Y-10078293D02*
X246253Y-10030674D01*
X246253Y-10030674D02*
X255777Y-9992579D01*
X255777Y-9992579D02*
X265301Y-9973531D01*
X265301Y-9973531D02*
X274824Y-9964008D01*
X274824Y-9964008D02*
X293872Y-9954484D01*
X446253Y-10135436D02*
X455777Y-10144960D01*
X455777Y-10144960D02*
X446253Y-10154484D01*
X446253Y-10154484D02*
X436729Y-10144960D01*
X436729Y-10144960D02*
X446253Y-10135436D01*
X446253Y-10135436D02*
X446253Y-10154484D01*
X570063Y-10040198D02*
X551015Y-10030674D01*
X551015Y-10030674D02*
X541491Y-10021150D01*
X541491Y-10021150D02*
X531967Y-10002103D01*
X531967Y-10002103D02*
X531967Y-9992579D01*
X531967Y-9992579D02*
X541491Y-9973531D01*
X541491Y-9973531D02*
X551015Y-9964008D01*
X551015Y-9964008D02*
X570063Y-9954484D01*
X570063Y-9954484D02*
X608158Y-9954484D01*
X608158Y-9954484D02*
X627205Y-9964008D01*
X627205Y-9964008D02*
X636729Y-9973531D01*
X636729Y-9973531D02*
X646253Y-9992579D01*
X646253Y-9992579D02*
X646253Y-10002103D01*
X646253Y-10002103D02*
X636729Y-10021150D01*
X636729Y-10021150D02*
X627205Y-10030674D01*
X627205Y-10030674D02*
X608158Y-10040198D01*
X608158Y-10040198D02*
X570063Y-10040198D01*
X570063Y-10040198D02*
X551015Y-10049722D01*
X551015Y-10049722D02*
X541491Y-10059246D01*
X541491Y-10059246D02*
X531967Y-10078293D01*
X531967Y-10078293D02*
X531967Y-10116389D01*
X531967Y-10116389D02*
X541491Y-10135436D01*
X541491Y-10135436D02*
X551015Y-10144960D01*
X551015Y-10144960D02*
X570063Y-10154484D01*
X570063Y-10154484D02*
X608158Y-10154484D01*
X608158Y-10154484D02*
X627205Y-10144960D01*
X627205Y-10144960D02*
X636729Y-10135436D01*
X636729Y-10135436D02*
X646253Y-10116389D01*
X646253Y-10116389D02*
X646253Y-10078293D01*
X646253Y-10078293D02*
X636729Y-10059246D01*
X636729Y-10059246D02*
X627205Y-10049722D01*
X627205Y-10049722D02*
X608158Y-10040198D01*
X770062Y-9954484D02*
X789110Y-9954484D01*
X789110Y-9954484D02*
X808158Y-9964008D01*
X808158Y-9964008D02*
X817682Y-9973531D01*
X817682Y-9973531D02*
X827205Y-9992579D01*
X827205Y-9992579D02*
X836729Y-10030674D01*
X836729Y-10030674D02*
X836729Y-10078293D01*
X836729Y-10078293D02*
X827205Y-10116389D01*
X827205Y-10116389D02*
X817682Y-10135436D01*
X817682Y-10135436D02*
X808158Y-10144960D01*
X808158Y-10144960D02*
X789110Y-10154484D01*
X789110Y-10154484D02*
X770062Y-10154484D01*
X770062Y-10154484D02*
X751015Y-10144960D01*
X751015Y-10144960D02*
X741491Y-10135436D01*
X741491Y-10135436D02*
X731967Y-10116389D01*
X731967Y-10116389D02*
X722443Y-10078293D01*
X722443Y-10078293D02*
X722443Y-10030674D01*
X722443Y-10030674D02*
X731967Y-9992579D01*
X731967Y-9992579D02*
X741491Y-9973531D01*
X741491Y-9973531D02*
X751015Y-9964008D01*
X751015Y-9964008D02*
X770062Y-9954484D01*
X960539Y-9954484D02*
X979586Y-9954484D01*
X979586Y-9954484D02*
X998634Y-9964008D01*
X998634Y-9964008D02*
X1008158Y-9973531D01*
X1008158Y-9973531D02*
X1017682Y-9992579D01*
X1017682Y-9992579D02*
X1027205Y-10030674D01*
X1027205Y-10030674D02*
X1027205Y-10078293D01*
X1027205Y-10078293D02*
X1017682Y-10116389D01*
X1017682Y-10116389D02*
X1008158Y-10135436D01*
X1008158Y-10135436D02*
X998634Y-10144960D01*
X998634Y-10144960D02*
X979586Y-10154484D01*
X979586Y-10154484D02*
X960539Y-10154484D01*
X960539Y-10154484D02*
X941491Y-10144960D01*
X941491Y-10144960D02*
X931967Y-10135436D01*
X931967Y-10135436D02*
X922443Y-10116389D01*
X922443Y-10116389D02*
X912920Y-10078293D01*
X912920Y-10078293D02*
X912920Y-10030674D01*
X912920Y-10030674D02*
X922443Y-9992579D01*
X922443Y-9992579D02*
X931967Y-9973531D01*
X931967Y-9973531D02*
X941491Y-9964008D01*
X941491Y-9964008D02*
X960539Y-9954484D01*
X1112920Y-10154484D02*
X1112920Y-10021150D01*
X1112920Y-10040198D02*
X1122444Y-10030674D01*
X1122444Y-10030674D02*
X1141491Y-10021150D01*
X1141491Y-10021150D02*
X1170063Y-10021150D01*
X1170063Y-10021150D02*
X1189110Y-10030674D01*
X1189110Y-10030674D02*
X1198634Y-10049722D01*
X1198634Y-10049722D02*
X1198634Y-10154484D01*
X1198634Y-10049722D02*
X1208158Y-10030674D01*
X1208158Y-10030674D02*
X1227205Y-10021150D01*
X1227205Y-10021150D02*
X1255777Y-10021150D01*
X1255777Y-10021150D02*
X1274825Y-10030674D01*
X1274825Y-10030674D02*
X1284348Y-10049722D01*
X1284348Y-10049722D02*
X1284348Y-10154484D01*
X1379586Y-10154484D02*
X1379586Y-10021150D01*
X1379586Y-10040198D02*
X1389110Y-10030674D01*
X1389110Y-10030674D02*
X1408158Y-10021150D01*
X1408158Y-10021150D02*
X1436729Y-10021150D01*
X1436729Y-10021150D02*
X1455777Y-10030674D01*
X1455777Y-10030674D02*
X1465301Y-10049722D01*
X1465301Y-10049722D02*
X1465301Y-10154484D01*
X1465301Y-10049722D02*
X1474824Y-10030674D01*
X1474824Y-10030674D02*
X1493872Y-10021150D01*
X1493872Y-10021150D02*
X1522443Y-10021150D01*
X1522443Y-10021150D02*
X1541491Y-10030674D01*
X1541491Y-10030674D02*
X1551015Y-10049722D01*
X1551015Y-10049722D02*
X1551015Y-10154484D01*
X1941491Y-9944960D02*
X1770063Y-10202103D01*
X2198634Y-9954484D02*
X2217682Y-9954484D01*
X2217682Y-9954484D02*
X2236729Y-9964008D01*
X2236729Y-9964008D02*
X2246253Y-9973531D01*
X2246253Y-9973531D02*
X2255777Y-9992579D01*
X2255777Y-9992579D02*
X2265301Y-10030674D01*
X2265301Y-10030674D02*
X2265301Y-10078293D01*
X2265301Y-10078293D02*
X2255777Y-10116389D01*
X2255777Y-10116389D02*
X2246253Y-10135436D01*
X2246253Y-10135436D02*
X2236729Y-10144960D01*
X2236729Y-10144960D02*
X2217682Y-10154484D01*
X2217682Y-10154484D02*
X2198634Y-10154484D01*
X2198634Y-10154484D02*
X2179587Y-10144960D01*
X2179587Y-10144960D02*
X2170063Y-10135436D01*
X2170063Y-10135436D02*
X2160539Y-10116389D01*
X2160539Y-10116389D02*
X2151015Y-10078293D01*
X2151015Y-10078293D02*
X2151015Y-10030674D01*
X2151015Y-10030674D02*
X2160539Y-9992579D01*
X2160539Y-9992579D02*
X2170063Y-9973531D01*
X2170063Y-9973531D02*
X2179587Y-9964008D01*
X2179587Y-9964008D02*
X2198634Y-9954484D01*
X2351015Y-10135436D02*
X2360539Y-10144960D01*
X2360539Y-10144960D02*
X2351015Y-10154484D01*
X2351015Y-10154484D02*
X2341491Y-10144960D01*
X2341491Y-10144960D02*
X2351015Y-10135436D01*
X2351015Y-10135436D02*
X2351015Y-10154484D01*
X2484348Y-9954484D02*
X2503396Y-9954484D01*
X2503396Y-9954484D02*
X2522444Y-9964008D01*
X2522444Y-9964008D02*
X2531968Y-9973531D01*
X2531968Y-9973531D02*
X2541491Y-9992579D01*
X2541491Y-9992579D02*
X2551015Y-10030674D01*
X2551015Y-10030674D02*
X2551015Y-10078293D01*
X2551015Y-10078293D02*
X2541491Y-10116389D01*
X2541491Y-10116389D02*
X2531968Y-10135436D01*
X2531968Y-10135436D02*
X2522444Y-10144960D01*
X2522444Y-10144960D02*
X2503396Y-10154484D01*
X2503396Y-10154484D02*
X2484348Y-10154484D01*
X2484348Y-10154484D02*
X2465301Y-10144960D01*
X2465301Y-10144960D02*
X2455777Y-10135436D01*
X2455777Y-10135436D02*
X2446253Y-10116389D01*
X2446253Y-10116389D02*
X2436729Y-10078293D01*
X2436729Y-10078293D02*
X2436729Y-10030674D01*
X2436729Y-10030674D02*
X2446253Y-9992579D01*
X2446253Y-9992579D02*
X2455777Y-9973531D01*
X2455777Y-9973531D02*
X2465301Y-9964008D01*
X2465301Y-9964008D02*
X2484348Y-9954484D01*
X2617682Y-9954484D02*
X2741491Y-9954484D01*
X2741491Y-9954484D02*
X2674825Y-10030674D01*
X2674825Y-10030674D02*
X2703396Y-10030674D01*
X2703396Y-10030674D02*
X2722444Y-10040198D01*
X2722444Y-10040198D02*
X2731968Y-10049722D01*
X2731968Y-10049722D02*
X2741491Y-10068770D01*
X2741491Y-10068770D02*
X2741491Y-10116389D01*
X2741491Y-10116389D02*
X2731968Y-10135436D01*
X2731968Y-10135436D02*
X2722444Y-10144960D01*
X2722444Y-10144960D02*
X2703396Y-10154484D01*
X2703396Y-10154484D02*
X2646253Y-10154484D01*
X2646253Y-10154484D02*
X2627206Y-10144960D01*
X2627206Y-10144960D02*
X2617682Y-10135436D01*
X2931967Y-10154484D02*
X2817682Y-10154484D01*
X2874825Y-10154484D02*
X2874825Y-9954484D01*
X2874825Y-9954484D02*
X2855777Y-9983055D01*
X2855777Y-9983055D02*
X2836729Y-10002103D01*
X2836729Y-10002103D02*
X2817682Y-10011627D01*
X3112920Y-9954484D02*
X3017682Y-9954484D01*
X3017682Y-9954484D02*
X3008158Y-10049722D01*
X3008158Y-10049722D02*
X3017682Y-10040198D01*
X3017682Y-10040198D02*
X3036729Y-10030674D01*
X3036729Y-10030674D02*
X3084348Y-10030674D01*
X3084348Y-10030674D02*
X3103396Y-10040198D01*
X3103396Y-10040198D02*
X3112920Y-10049722D01*
X3112920Y-10049722D02*
X3122444Y-10068770D01*
X3122444Y-10068770D02*
X3122444Y-10116389D01*
X3122444Y-10116389D02*
X3112920Y-10135436D01*
X3112920Y-10135436D02*
X3103396Y-10144960D01*
X3103396Y-10144960D02*
X3084348Y-10154484D01*
X3084348Y-10154484D02*
X3036729Y-10154484D01*
X3036729Y-10154484D02*
X3017682Y-10144960D01*
X3017682Y-10144960D02*
X3008158Y-10135436D01*
X3198634Y-9954484D02*
X3198634Y-9992579D01*
X3274825Y-9954484D02*
X3274825Y-9992579D01*
X3570063Y-10230674D02*
X3560539Y-10221150D01*
X3560539Y-10221150D02*
X3541491Y-10192579D01*
X3541491Y-10192579D02*
X3531968Y-10173531D01*
X3531968Y-10173531D02*
X3522444Y-10144960D01*
X3522444Y-10144960D02*
X3512920Y-10097341D01*
X3512920Y-10097341D02*
X3512920Y-10059246D01*
X3512920Y-10059246D02*
X3522444Y-10011627D01*
X3522444Y-10011627D02*
X3531968Y-9983055D01*
X3531968Y-9983055D02*
X3541491Y-9964008D01*
X3541491Y-9964008D02*
X3560539Y-9935436D01*
X3560539Y-9935436D02*
X3570063Y-9925912D01*
X3731968Y-10021150D02*
X3731968Y-10154484D01*
X3684348Y-9944960D02*
X3636729Y-10087817D01*
X3636729Y-10087817D02*
X3760539Y-10087817D01*
X3989110Y-10154484D02*
X3989110Y-9954484D01*
X4074825Y-10154484D02*
X4074825Y-10049722D01*
X4074825Y-10049722D02*
X4065301Y-10030674D01*
X4065301Y-10030674D02*
X4046253Y-10021150D01*
X4046253Y-10021150D02*
X4017682Y-10021150D01*
X4017682Y-10021150D02*
X3998634Y-10030674D01*
X3998634Y-10030674D02*
X3989110Y-10040198D01*
X4198634Y-10154484D02*
X4179587Y-10144960D01*
X4179587Y-10144960D02*
X4170063Y-10135436D01*
X4170063Y-10135436D02*
X4160539Y-10116389D01*
X4160539Y-10116389D02*
X4160539Y-10059246D01*
X4160539Y-10059246D02*
X4170063Y-10040198D01*
X4170063Y-10040198D02*
X4179587Y-10030674D01*
X4179587Y-10030674D02*
X4198634Y-10021150D01*
X4198634Y-10021150D02*
X4227206Y-10021150D01*
X4227206Y-10021150D02*
X4246253Y-10030674D01*
X4246253Y-10030674D02*
X4255777Y-10040198D01*
X4255777Y-10040198D02*
X4265301Y-10059246D01*
X4265301Y-10059246D02*
X4265301Y-10116389D01*
X4265301Y-10116389D02*
X4255777Y-10135436D01*
X4255777Y-10135436D02*
X4246253Y-10144960D01*
X4246253Y-10144960D02*
X4227206Y-10154484D01*
X4227206Y-10154484D02*
X4198634Y-10154484D01*
X4379587Y-10154484D02*
X4360539Y-10144960D01*
X4360539Y-10144960D02*
X4351015Y-10125912D01*
X4351015Y-10125912D02*
X4351015Y-9954484D01*
X4531968Y-10144960D02*
X4512920Y-10154484D01*
X4512920Y-10154484D02*
X4474825Y-10154484D01*
X4474825Y-10154484D02*
X4455777Y-10144960D01*
X4455777Y-10144960D02*
X4446253Y-10125912D01*
X4446253Y-10125912D02*
X4446253Y-10049722D01*
X4446253Y-10049722D02*
X4455777Y-10030674D01*
X4455777Y-10030674D02*
X4474825Y-10021150D01*
X4474825Y-10021150D02*
X4512920Y-10021150D01*
X4512920Y-10021150D02*
X4531968Y-10030674D01*
X4531968Y-10030674D02*
X4541492Y-10049722D01*
X4541492Y-10049722D02*
X4541492Y-10068770D01*
X4541492Y-10068770D02*
X4446253Y-10087817D01*
X4617682Y-10144960D02*
X4636730Y-10154484D01*
X4636730Y-10154484D02*
X4674825Y-10154484D01*
X4674825Y-10154484D02*
X4693873Y-10144960D01*
X4693873Y-10144960D02*
X4703396Y-10125912D01*
X4703396Y-10125912D02*
X4703396Y-10116389D01*
X4703396Y-10116389D02*
X4693873Y-10097341D01*
X4693873Y-10097341D02*
X4674825Y-10087817D01*
X4674825Y-10087817D02*
X4646253Y-10087817D01*
X4646253Y-10087817D02*
X4627206Y-10078293D01*
X4627206Y-10078293D02*
X4617682Y-10059246D01*
X4617682Y-10059246D02*
X4617682Y-10049722D01*
X4617682Y-10049722D02*
X4627206Y-10030674D01*
X4627206Y-10030674D02*
X4646253Y-10021150D01*
X4646253Y-10021150D02*
X4674825Y-10021150D01*
X4674825Y-10021150D02*
X4693873Y-10030674D01*
X4770063Y-10230674D02*
X4779587Y-10221150D01*
X4779587Y-10221150D02*
X4798634Y-10192579D01*
X4798634Y-10192579D02*
X4808158Y-10173531D01*
X4808158Y-10173531D02*
X4817682Y-10144960D01*
X4817682Y-10144960D02*
X4827206Y-10097341D01*
X4827206Y-10097341D02*
X4827206Y-10059246D01*
X4827206Y-10059246D02*
X4817682Y-10011627D01*
X4817682Y-10011627D02*
X4808158Y-9983055D01*
X4808158Y-9983055D02*
X4798634Y-9964008D01*
X4798634Y-9964008D02*
X4779587Y-9935436D01*
X4779587Y-9935436D02*
X4770063Y-9925912D01*
D15*
X-18019Y-10358431D02*
X-18019Y-10295569D01*
X-80881Y-10295569D01*
X-80881Y-10358431D01*
X-18019Y-10358431D01*
D11*
X293872Y-10218484D02*
X312920Y-10218484D01*
X312920Y-10218484D02*
X331967Y-10228008D01*
X331967Y-10228008D02*
X341491Y-10237531D01*
X341491Y-10237531D02*
X351015Y-10256579D01*
X351015Y-10256579D02*
X360539Y-10294674D01*
X360539Y-10294674D02*
X360539Y-10342293D01*
X360539Y-10342293D02*
X351015Y-10380389D01*
X351015Y-10380389D02*
X341491Y-10399436D01*
X341491Y-10399436D02*
X331967Y-10408960D01*
X331967Y-10408960D02*
X312920Y-10418484D01*
X312920Y-10418484D02*
X293872Y-10418484D01*
X293872Y-10418484D02*
X274824Y-10408960D01*
X274824Y-10408960D02*
X265301Y-10399436D01*
X265301Y-10399436D02*
X255777Y-10380389D01*
X255777Y-10380389D02*
X246253Y-10342293D01*
X246253Y-10342293D02*
X246253Y-10294674D01*
X246253Y-10294674D02*
X255777Y-10256579D01*
X255777Y-10256579D02*
X265301Y-10237531D01*
X265301Y-10237531D02*
X274824Y-10228008D01*
X274824Y-10228008D02*
X293872Y-10218484D01*
X446253Y-10399436D02*
X455777Y-10408960D01*
X455777Y-10408960D02*
X446253Y-10418484D01*
X446253Y-10418484D02*
X436729Y-10408960D01*
X436729Y-10408960D02*
X446253Y-10399436D01*
X446253Y-10399436D02*
X446253Y-10418484D01*
X570063Y-10304198D02*
X551015Y-10294674D01*
X551015Y-10294674D02*
X541491Y-10285150D01*
X541491Y-10285150D02*
X531967Y-10266103D01*
X531967Y-10266103D02*
X531967Y-10256579D01*
X531967Y-10256579D02*
X541491Y-10237531D01*
X541491Y-10237531D02*
X551015Y-10228008D01*
X551015Y-10228008D02*
X570063Y-10218484D01*
X570063Y-10218484D02*
X608158Y-10218484D01*
X608158Y-10218484D02*
X627205Y-10228008D01*
X627205Y-10228008D02*
X636729Y-10237531D01*
X636729Y-10237531D02*
X646253Y-10256579D01*
X646253Y-10256579D02*
X646253Y-10266103D01*
X646253Y-10266103D02*
X636729Y-10285150D01*
X636729Y-10285150D02*
X627205Y-10294674D01*
X627205Y-10294674D02*
X608158Y-10304198D01*
X608158Y-10304198D02*
X570063Y-10304198D01*
X570063Y-10304198D02*
X551015Y-10313722D01*
X551015Y-10313722D02*
X541491Y-10323246D01*
X541491Y-10323246D02*
X531967Y-10342293D01*
X531967Y-10342293D02*
X531967Y-10380389D01*
X531967Y-10380389D02*
X541491Y-10399436D01*
X541491Y-10399436D02*
X551015Y-10408960D01*
X551015Y-10408960D02*
X570063Y-10418484D01*
X570063Y-10418484D02*
X608158Y-10418484D01*
X608158Y-10418484D02*
X627205Y-10408960D01*
X627205Y-10408960D02*
X636729Y-10399436D01*
X636729Y-10399436D02*
X646253Y-10380389D01*
X646253Y-10380389D02*
X646253Y-10342293D01*
X646253Y-10342293D02*
X636729Y-10323246D01*
X636729Y-10323246D02*
X627205Y-10313722D01*
X627205Y-10313722D02*
X608158Y-10304198D01*
X760539Y-10304198D02*
X741491Y-10294674D01*
X741491Y-10294674D02*
X731967Y-10285150D01*
X731967Y-10285150D02*
X722443Y-10266103D01*
X722443Y-10266103D02*
X722443Y-10256579D01*
X722443Y-10256579D02*
X731967Y-10237531D01*
X731967Y-10237531D02*
X741491Y-10228008D01*
X741491Y-10228008D02*
X760539Y-10218484D01*
X760539Y-10218484D02*
X798634Y-10218484D01*
X798634Y-10218484D02*
X817682Y-10228008D01*
X817682Y-10228008D02*
X827205Y-10237531D01*
X827205Y-10237531D02*
X836729Y-10256579D01*
X836729Y-10256579D02*
X836729Y-10266103D01*
X836729Y-10266103D02*
X827205Y-10285150D01*
X827205Y-10285150D02*
X817682Y-10294674D01*
X817682Y-10294674D02*
X798634Y-10304198D01*
X798634Y-10304198D02*
X760539Y-10304198D01*
X760539Y-10304198D02*
X741491Y-10313722D01*
X741491Y-10313722D02*
X731967Y-10323246D01*
X731967Y-10323246D02*
X722443Y-10342293D01*
X722443Y-10342293D02*
X722443Y-10380389D01*
X722443Y-10380389D02*
X731967Y-10399436D01*
X731967Y-10399436D02*
X741491Y-10408960D01*
X741491Y-10408960D02*
X760539Y-10418484D01*
X760539Y-10418484D02*
X798634Y-10418484D01*
X798634Y-10418484D02*
X817682Y-10408960D01*
X817682Y-10408960D02*
X827205Y-10399436D01*
X827205Y-10399436D02*
X836729Y-10380389D01*
X836729Y-10380389D02*
X836729Y-10342293D01*
X836729Y-10342293D02*
X827205Y-10323246D01*
X827205Y-10323246D02*
X817682Y-10313722D01*
X817682Y-10313722D02*
X798634Y-10304198D01*
X931967Y-10418484D02*
X970062Y-10418484D01*
X970062Y-10418484D02*
X989110Y-10408960D01*
X989110Y-10408960D02*
X998634Y-10399436D01*
X998634Y-10399436D02*
X1017682Y-10370865D01*
X1017682Y-10370865D02*
X1027205Y-10332770D01*
X1027205Y-10332770D02*
X1027205Y-10256579D01*
X1027205Y-10256579D02*
X1017682Y-10237531D01*
X1017682Y-10237531D02*
X1008158Y-10228008D01*
X1008158Y-10228008D02*
X989110Y-10218484D01*
X989110Y-10218484D02*
X951015Y-10218484D01*
X951015Y-10218484D02*
X931967Y-10228008D01*
X931967Y-10228008D02*
X922443Y-10237531D01*
X922443Y-10237531D02*
X912920Y-10256579D01*
X912920Y-10256579D02*
X912920Y-10304198D01*
X912920Y-10304198D02*
X922443Y-10323246D01*
X922443Y-10323246D02*
X931967Y-10332770D01*
X931967Y-10332770D02*
X951015Y-10342293D01*
X951015Y-10342293D02*
X989110Y-10342293D01*
X989110Y-10342293D02*
X1008158Y-10332770D01*
X1008158Y-10332770D02*
X1017682Y-10323246D01*
X1017682Y-10323246D02*
X1027205Y-10304198D01*
X1112920Y-10418484D02*
X1112920Y-10285150D01*
X1112920Y-10304198D02*
X1122444Y-10294674D01*
X1122444Y-10294674D02*
X1141491Y-10285150D01*
X1141491Y-10285150D02*
X1170063Y-10285150D01*
X1170063Y-10285150D02*
X1189110Y-10294674D01*
X1189110Y-10294674D02*
X1198634Y-10313722D01*
X1198634Y-10313722D02*
X1198634Y-10418484D01*
X1198634Y-10313722D02*
X1208158Y-10294674D01*
X1208158Y-10294674D02*
X1227205Y-10285150D01*
X1227205Y-10285150D02*
X1255777Y-10285150D01*
X1255777Y-10285150D02*
X1274825Y-10294674D01*
X1274825Y-10294674D02*
X1284348Y-10313722D01*
X1284348Y-10313722D02*
X1284348Y-10418484D01*
X1379586Y-10418484D02*
X1379586Y-10285150D01*
X1379586Y-10304198D02*
X1389110Y-10294674D01*
X1389110Y-10294674D02*
X1408158Y-10285150D01*
X1408158Y-10285150D02*
X1436729Y-10285150D01*
X1436729Y-10285150D02*
X1455777Y-10294674D01*
X1455777Y-10294674D02*
X1465301Y-10313722D01*
X1465301Y-10313722D02*
X1465301Y-10418484D01*
X1465301Y-10313722D02*
X1474824Y-10294674D01*
X1474824Y-10294674D02*
X1493872Y-10285150D01*
X1493872Y-10285150D02*
X1522443Y-10285150D01*
X1522443Y-10285150D02*
X1541491Y-10294674D01*
X1541491Y-10294674D02*
X1551015Y-10313722D01*
X1551015Y-10313722D02*
X1551015Y-10418484D01*
X1941491Y-10208960D02*
X1770063Y-10466103D01*
X2198634Y-10218484D02*
X2217682Y-10218484D01*
X2217682Y-10218484D02*
X2236729Y-10228008D01*
X2236729Y-10228008D02*
X2246253Y-10237531D01*
X2246253Y-10237531D02*
X2255777Y-10256579D01*
X2255777Y-10256579D02*
X2265301Y-10294674D01*
X2265301Y-10294674D02*
X2265301Y-10342293D01*
X2265301Y-10342293D02*
X2255777Y-10380389D01*
X2255777Y-10380389D02*
X2246253Y-10399436D01*
X2246253Y-10399436D02*
X2236729Y-10408960D01*
X2236729Y-10408960D02*
X2217682Y-10418484D01*
X2217682Y-10418484D02*
X2198634Y-10418484D01*
X2198634Y-10418484D02*
X2179587Y-10408960D01*
X2179587Y-10408960D02*
X2170063Y-10399436D01*
X2170063Y-10399436D02*
X2160539Y-10380389D01*
X2160539Y-10380389D02*
X2151015Y-10342293D01*
X2151015Y-10342293D02*
X2151015Y-10294674D01*
X2151015Y-10294674D02*
X2160539Y-10256579D01*
X2160539Y-10256579D02*
X2170063Y-10237531D01*
X2170063Y-10237531D02*
X2179587Y-10228008D01*
X2179587Y-10228008D02*
X2198634Y-10218484D01*
X2351015Y-10399436D02*
X2360539Y-10408960D01*
X2360539Y-10408960D02*
X2351015Y-10418484D01*
X2351015Y-10418484D02*
X2341491Y-10408960D01*
X2341491Y-10408960D02*
X2351015Y-10399436D01*
X2351015Y-10399436D02*
X2351015Y-10418484D01*
X2484348Y-10218484D02*
X2503396Y-10218484D01*
X2503396Y-10218484D02*
X2522444Y-10228008D01*
X2522444Y-10228008D02*
X2531968Y-10237531D01*
X2531968Y-10237531D02*
X2541491Y-10256579D01*
X2541491Y-10256579D02*
X2551015Y-10294674D01*
X2551015Y-10294674D02*
X2551015Y-10342293D01*
X2551015Y-10342293D02*
X2541491Y-10380389D01*
X2541491Y-10380389D02*
X2531968Y-10399436D01*
X2531968Y-10399436D02*
X2522444Y-10408960D01*
X2522444Y-10408960D02*
X2503396Y-10418484D01*
X2503396Y-10418484D02*
X2484348Y-10418484D01*
X2484348Y-10418484D02*
X2465301Y-10408960D01*
X2465301Y-10408960D02*
X2455777Y-10399436D01*
X2455777Y-10399436D02*
X2446253Y-10380389D01*
X2446253Y-10380389D02*
X2436729Y-10342293D01*
X2436729Y-10342293D02*
X2436729Y-10294674D01*
X2436729Y-10294674D02*
X2446253Y-10256579D01*
X2446253Y-10256579D02*
X2455777Y-10237531D01*
X2455777Y-10237531D02*
X2465301Y-10228008D01*
X2465301Y-10228008D02*
X2484348Y-10218484D01*
X2617682Y-10218484D02*
X2741491Y-10218484D01*
X2741491Y-10218484D02*
X2674825Y-10294674D01*
X2674825Y-10294674D02*
X2703396Y-10294674D01*
X2703396Y-10294674D02*
X2722444Y-10304198D01*
X2722444Y-10304198D02*
X2731968Y-10313722D01*
X2731968Y-10313722D02*
X2741491Y-10332770D01*
X2741491Y-10332770D02*
X2741491Y-10380389D01*
X2741491Y-10380389D02*
X2731968Y-10399436D01*
X2731968Y-10399436D02*
X2722444Y-10408960D01*
X2722444Y-10408960D02*
X2703396Y-10418484D01*
X2703396Y-10418484D02*
X2646253Y-10418484D01*
X2646253Y-10418484D02*
X2627206Y-10408960D01*
X2627206Y-10408960D02*
X2617682Y-10399436D01*
X2922444Y-10218484D02*
X2827206Y-10218484D01*
X2827206Y-10218484D02*
X2817682Y-10313722D01*
X2817682Y-10313722D02*
X2827206Y-10304198D01*
X2827206Y-10304198D02*
X2846253Y-10294674D01*
X2846253Y-10294674D02*
X2893872Y-10294674D01*
X2893872Y-10294674D02*
X2912920Y-10304198D01*
X2912920Y-10304198D02*
X2922444Y-10313722D01*
X2922444Y-10313722D02*
X2931967Y-10332770D01*
X2931967Y-10332770D02*
X2931967Y-10380389D01*
X2931967Y-10380389D02*
X2922444Y-10399436D01*
X2922444Y-10399436D02*
X2912920Y-10408960D01*
X2912920Y-10408960D02*
X2893872Y-10418484D01*
X2893872Y-10418484D02*
X2846253Y-10418484D01*
X2846253Y-10418484D02*
X2827206Y-10408960D01*
X2827206Y-10408960D02*
X2817682Y-10399436D01*
X3055777Y-10218484D02*
X3074825Y-10218484D01*
X3074825Y-10218484D02*
X3093872Y-10228008D01*
X3093872Y-10228008D02*
X3103396Y-10237531D01*
X3103396Y-10237531D02*
X3112920Y-10256579D01*
X3112920Y-10256579D02*
X3122444Y-10294674D01*
X3122444Y-10294674D02*
X3122444Y-10342293D01*
X3122444Y-10342293D02*
X3112920Y-10380389D01*
X3112920Y-10380389D02*
X3103396Y-10399436D01*
X3103396Y-10399436D02*
X3093872Y-10408960D01*
X3093872Y-10408960D02*
X3074825Y-10418484D01*
X3074825Y-10418484D02*
X3055777Y-10418484D01*
X3055777Y-10418484D02*
X3036729Y-10408960D01*
X3036729Y-10408960D02*
X3027206Y-10399436D01*
X3027206Y-10399436D02*
X3017682Y-10380389D01*
X3017682Y-10380389D02*
X3008158Y-10342293D01*
X3008158Y-10342293D02*
X3008158Y-10294674D01*
X3008158Y-10294674D02*
X3017682Y-10256579D01*
X3017682Y-10256579D02*
X3027206Y-10237531D01*
X3027206Y-10237531D02*
X3036729Y-10228008D01*
X3036729Y-10228008D02*
X3055777Y-10218484D01*
X3198634Y-10218484D02*
X3198634Y-10256579D01*
X3274825Y-10218484D02*
X3274825Y-10256579D01*
X3570063Y-10494674D02*
X3560539Y-10485150D01*
X3560539Y-10485150D02*
X3541491Y-10456579D01*
X3541491Y-10456579D02*
X3531968Y-10437531D01*
X3531968Y-10437531D02*
X3522444Y-10408960D01*
X3522444Y-10408960D02*
X3512920Y-10361341D01*
X3512920Y-10361341D02*
X3512920Y-10323246D01*
X3512920Y-10323246D02*
X3522444Y-10275627D01*
X3522444Y-10275627D02*
X3531968Y-10247055D01*
X3531968Y-10247055D02*
X3541491Y-10228008D01*
X3541491Y-10228008D02*
X3560539Y-10199436D01*
X3560539Y-10199436D02*
X3570063Y-10189912D01*
X3751015Y-10418484D02*
X3636729Y-10418484D01*
X3693872Y-10418484D02*
X3693872Y-10218484D01*
X3693872Y-10218484D02*
X3674825Y-10247055D01*
X3674825Y-10247055D02*
X3655777Y-10266103D01*
X3655777Y-10266103D02*
X3636729Y-10275627D01*
X3989110Y-10418484D02*
X3989110Y-10218484D01*
X4074825Y-10418484D02*
X4074825Y-10313722D01*
X4074825Y-10313722D02*
X4065301Y-10294674D01*
X4065301Y-10294674D02*
X4046253Y-10285150D01*
X4046253Y-10285150D02*
X4017682Y-10285150D01*
X4017682Y-10285150D02*
X3998634Y-10294674D01*
X3998634Y-10294674D02*
X3989110Y-10304198D01*
X4198634Y-10418484D02*
X4179587Y-10408960D01*
X4179587Y-10408960D02*
X4170063Y-10399436D01*
X4170063Y-10399436D02*
X4160539Y-10380389D01*
X4160539Y-10380389D02*
X4160539Y-10323246D01*
X4160539Y-10323246D02*
X4170063Y-10304198D01*
X4170063Y-10304198D02*
X4179587Y-10294674D01*
X4179587Y-10294674D02*
X4198634Y-10285150D01*
X4198634Y-10285150D02*
X4227206Y-10285150D01*
X4227206Y-10285150D02*
X4246253Y-10294674D01*
X4246253Y-10294674D02*
X4255777Y-10304198D01*
X4255777Y-10304198D02*
X4265301Y-10323246D01*
X4265301Y-10323246D02*
X4265301Y-10380389D01*
X4265301Y-10380389D02*
X4255777Y-10399436D01*
X4255777Y-10399436D02*
X4246253Y-10408960D01*
X4246253Y-10408960D02*
X4227206Y-10418484D01*
X4227206Y-10418484D02*
X4198634Y-10418484D01*
X4379587Y-10418484D02*
X4360539Y-10408960D01*
X4360539Y-10408960D02*
X4351015Y-10389912D01*
X4351015Y-10389912D02*
X4351015Y-10218484D01*
X4531968Y-10408960D02*
X4512920Y-10418484D01*
X4512920Y-10418484D02*
X4474825Y-10418484D01*
X4474825Y-10418484D02*
X4455777Y-10408960D01*
X4455777Y-10408960D02*
X4446253Y-10389912D01*
X4446253Y-10389912D02*
X4446253Y-10313722D01*
X4446253Y-10313722D02*
X4455777Y-10294674D01*
X4455777Y-10294674D02*
X4474825Y-10285150D01*
X4474825Y-10285150D02*
X4512920Y-10285150D01*
X4512920Y-10285150D02*
X4531968Y-10294674D01*
X4531968Y-10294674D02*
X4541492Y-10313722D01*
X4541492Y-10313722D02*
X4541492Y-10332770D01*
X4541492Y-10332770D02*
X4446253Y-10351817D01*
X4608158Y-10494674D02*
X4617682Y-10485150D01*
X4617682Y-10485150D02*
X4636730Y-10456579D01*
X4636730Y-10456579D02*
X4646253Y-10437531D01*
X4646253Y-10437531D02*
X4655777Y-10408960D01*
X4655777Y-10408960D02*
X4665301Y-10361341D01*
X4665301Y-10361341D02*
X4665301Y-10323246D01*
X4665301Y-10323246D02*
X4655777Y-10275627D01*
X4655777Y-10275627D02*
X4646253Y-10247055D01*
X4646253Y-10247055D02*
X4636730Y-10228008D01*
X4636730Y-10228008D02*
X4617682Y-10199436D01*
X4617682Y-10199436D02*
X4608158Y-10189912D01*
D10*
X-55000Y-10641000D02*
X-5000Y-10591000D01*
X-55000Y-10541000D01*
X-105000Y-10591000D01*
X-55000Y-10641000D01*
D11*
X360539Y-10682484D02*
X246253Y-10682484D01*
X303396Y-10682484D02*
X303396Y-10482484D01*
X303396Y-10482484D02*
X284348Y-10511055D01*
X284348Y-10511055D02*
X265301Y-10530103D01*
X265301Y-10530103D02*
X246253Y-10539627D01*
X446253Y-10663436D02*
X455777Y-10672960D01*
X455777Y-10672960D02*
X446253Y-10682484D01*
X446253Y-10682484D02*
X436729Y-10672960D01*
X436729Y-10672960D02*
X446253Y-10663436D01*
X446253Y-10663436D02*
X446253Y-10682484D01*
X579586Y-10482484D02*
X598634Y-10482484D01*
X598634Y-10482484D02*
X617682Y-10492008D01*
X617682Y-10492008D02*
X627205Y-10501531D01*
X627205Y-10501531D02*
X636729Y-10520579D01*
X636729Y-10520579D02*
X646253Y-10558674D01*
X646253Y-10558674D02*
X646253Y-10606293D01*
X646253Y-10606293D02*
X636729Y-10644389D01*
X636729Y-10644389D02*
X627205Y-10663436D01*
X627205Y-10663436D02*
X617682Y-10672960D01*
X617682Y-10672960D02*
X598634Y-10682484D01*
X598634Y-10682484D02*
X579586Y-10682484D01*
X579586Y-10682484D02*
X560539Y-10672960D01*
X560539Y-10672960D02*
X551015Y-10663436D01*
X551015Y-10663436D02*
X541491Y-10644389D01*
X541491Y-10644389D02*
X531967Y-10606293D01*
X531967Y-10606293D02*
X531967Y-10558674D01*
X531967Y-10558674D02*
X541491Y-10520579D01*
X541491Y-10520579D02*
X551015Y-10501531D01*
X551015Y-10501531D02*
X560539Y-10492008D01*
X560539Y-10492008D02*
X579586Y-10482484D01*
X770062Y-10482484D02*
X789110Y-10482484D01*
X789110Y-10482484D02*
X808158Y-10492008D01*
X808158Y-10492008D02*
X817682Y-10501531D01*
X817682Y-10501531D02*
X827205Y-10520579D01*
X827205Y-10520579D02*
X836729Y-10558674D01*
X836729Y-10558674D02*
X836729Y-10606293D01*
X836729Y-10606293D02*
X827205Y-10644389D01*
X827205Y-10644389D02*
X817682Y-10663436D01*
X817682Y-10663436D02*
X808158Y-10672960D01*
X808158Y-10672960D02*
X789110Y-10682484D01*
X789110Y-10682484D02*
X770062Y-10682484D01*
X770062Y-10682484D02*
X751015Y-10672960D01*
X751015Y-10672960D02*
X741491Y-10663436D01*
X741491Y-10663436D02*
X731967Y-10644389D01*
X731967Y-10644389D02*
X722443Y-10606293D01*
X722443Y-10606293D02*
X722443Y-10558674D01*
X722443Y-10558674D02*
X731967Y-10520579D01*
X731967Y-10520579D02*
X741491Y-10501531D01*
X741491Y-10501531D02*
X751015Y-10492008D01*
X751015Y-10492008D02*
X770062Y-10482484D01*
X960539Y-10482484D02*
X979586Y-10482484D01*
X979586Y-10482484D02*
X998634Y-10492008D01*
X998634Y-10492008D02*
X1008158Y-10501531D01*
X1008158Y-10501531D02*
X1017682Y-10520579D01*
X1017682Y-10520579D02*
X1027205Y-10558674D01*
X1027205Y-10558674D02*
X1027205Y-10606293D01*
X1027205Y-10606293D02*
X1017682Y-10644389D01*
X1017682Y-10644389D02*
X1008158Y-10663436D01*
X1008158Y-10663436D02*
X998634Y-10672960D01*
X998634Y-10672960D02*
X979586Y-10682484D01*
X979586Y-10682484D02*
X960539Y-10682484D01*
X960539Y-10682484D02*
X941491Y-10672960D01*
X941491Y-10672960D02*
X931967Y-10663436D01*
X931967Y-10663436D02*
X922443Y-10644389D01*
X922443Y-10644389D02*
X912920Y-10606293D01*
X912920Y-10606293D02*
X912920Y-10558674D01*
X912920Y-10558674D02*
X922443Y-10520579D01*
X922443Y-10520579D02*
X931967Y-10501531D01*
X931967Y-10501531D02*
X941491Y-10492008D01*
X941491Y-10492008D02*
X960539Y-10482484D01*
X1112920Y-10682484D02*
X1112920Y-10549150D01*
X1112920Y-10568198D02*
X1122444Y-10558674D01*
X1122444Y-10558674D02*
X1141491Y-10549150D01*
X1141491Y-10549150D02*
X1170063Y-10549150D01*
X1170063Y-10549150D02*
X1189110Y-10558674D01*
X1189110Y-10558674D02*
X1198634Y-10577722D01*
X1198634Y-10577722D02*
X1198634Y-10682484D01*
X1198634Y-10577722D02*
X1208158Y-10558674D01*
X1208158Y-10558674D02*
X1227205Y-10549150D01*
X1227205Y-10549150D02*
X1255777Y-10549150D01*
X1255777Y-10549150D02*
X1274825Y-10558674D01*
X1274825Y-10558674D02*
X1284348Y-10577722D01*
X1284348Y-10577722D02*
X1284348Y-10682484D01*
X1379586Y-10682484D02*
X1379586Y-10549150D01*
X1379586Y-10568198D02*
X1389110Y-10558674D01*
X1389110Y-10558674D02*
X1408158Y-10549150D01*
X1408158Y-10549150D02*
X1436729Y-10549150D01*
X1436729Y-10549150D02*
X1455777Y-10558674D01*
X1455777Y-10558674D02*
X1465301Y-10577722D01*
X1465301Y-10577722D02*
X1465301Y-10682484D01*
X1465301Y-10577722D02*
X1474824Y-10558674D01*
X1474824Y-10558674D02*
X1493872Y-10549150D01*
X1493872Y-10549150D02*
X1522443Y-10549150D01*
X1522443Y-10549150D02*
X1541491Y-10558674D01*
X1541491Y-10558674D02*
X1551015Y-10577722D01*
X1551015Y-10577722D02*
X1551015Y-10682484D01*
X1941491Y-10472960D02*
X1770063Y-10730103D01*
X2198634Y-10482484D02*
X2217682Y-10482484D01*
X2217682Y-10482484D02*
X2236729Y-10492008D01*
X2236729Y-10492008D02*
X2246253Y-10501531D01*
X2246253Y-10501531D02*
X2255777Y-10520579D01*
X2255777Y-10520579D02*
X2265301Y-10558674D01*
X2265301Y-10558674D02*
X2265301Y-10606293D01*
X2265301Y-10606293D02*
X2255777Y-10644389D01*
X2255777Y-10644389D02*
X2246253Y-10663436D01*
X2246253Y-10663436D02*
X2236729Y-10672960D01*
X2236729Y-10672960D02*
X2217682Y-10682484D01*
X2217682Y-10682484D02*
X2198634Y-10682484D01*
X2198634Y-10682484D02*
X2179587Y-10672960D01*
X2179587Y-10672960D02*
X2170063Y-10663436D01*
X2170063Y-10663436D02*
X2160539Y-10644389D01*
X2160539Y-10644389D02*
X2151015Y-10606293D01*
X2151015Y-10606293D02*
X2151015Y-10558674D01*
X2151015Y-10558674D02*
X2160539Y-10520579D01*
X2160539Y-10520579D02*
X2170063Y-10501531D01*
X2170063Y-10501531D02*
X2179587Y-10492008D01*
X2179587Y-10492008D02*
X2198634Y-10482484D01*
X2351015Y-10663436D02*
X2360539Y-10672960D01*
X2360539Y-10672960D02*
X2351015Y-10682484D01*
X2351015Y-10682484D02*
X2341491Y-10672960D01*
X2341491Y-10672960D02*
X2351015Y-10663436D01*
X2351015Y-10663436D02*
X2351015Y-10682484D01*
X2484348Y-10482484D02*
X2503396Y-10482484D01*
X2503396Y-10482484D02*
X2522444Y-10492008D01*
X2522444Y-10492008D02*
X2531968Y-10501531D01*
X2531968Y-10501531D02*
X2541491Y-10520579D01*
X2541491Y-10520579D02*
X2551015Y-10558674D01*
X2551015Y-10558674D02*
X2551015Y-10606293D01*
X2551015Y-10606293D02*
X2541491Y-10644389D01*
X2541491Y-10644389D02*
X2531968Y-10663436D01*
X2531968Y-10663436D02*
X2522444Y-10672960D01*
X2522444Y-10672960D02*
X2503396Y-10682484D01*
X2503396Y-10682484D02*
X2484348Y-10682484D01*
X2484348Y-10682484D02*
X2465301Y-10672960D01*
X2465301Y-10672960D02*
X2455777Y-10663436D01*
X2455777Y-10663436D02*
X2446253Y-10644389D01*
X2446253Y-10644389D02*
X2436729Y-10606293D01*
X2436729Y-10606293D02*
X2436729Y-10558674D01*
X2436729Y-10558674D02*
X2446253Y-10520579D01*
X2446253Y-10520579D02*
X2455777Y-10501531D01*
X2455777Y-10501531D02*
X2465301Y-10492008D01*
X2465301Y-10492008D02*
X2484348Y-10482484D01*
X2617682Y-10482484D02*
X2741491Y-10482484D01*
X2741491Y-10482484D02*
X2674825Y-10558674D01*
X2674825Y-10558674D02*
X2703396Y-10558674D01*
X2703396Y-10558674D02*
X2722444Y-10568198D01*
X2722444Y-10568198D02*
X2731968Y-10577722D01*
X2731968Y-10577722D02*
X2741491Y-10596770D01*
X2741491Y-10596770D02*
X2741491Y-10644389D01*
X2741491Y-10644389D02*
X2731968Y-10663436D01*
X2731968Y-10663436D02*
X2722444Y-10672960D01*
X2722444Y-10672960D02*
X2703396Y-10682484D01*
X2703396Y-10682484D02*
X2646253Y-10682484D01*
X2646253Y-10682484D02*
X2627206Y-10672960D01*
X2627206Y-10672960D02*
X2617682Y-10663436D01*
X2836729Y-10682484D02*
X2874825Y-10682484D01*
X2874825Y-10682484D02*
X2893872Y-10672960D01*
X2893872Y-10672960D02*
X2903396Y-10663436D01*
X2903396Y-10663436D02*
X2922444Y-10634865D01*
X2922444Y-10634865D02*
X2931967Y-10596770D01*
X2931967Y-10596770D02*
X2931967Y-10520579D01*
X2931967Y-10520579D02*
X2922444Y-10501531D01*
X2922444Y-10501531D02*
X2912920Y-10492008D01*
X2912920Y-10492008D02*
X2893872Y-10482484D01*
X2893872Y-10482484D02*
X2855777Y-10482484D01*
X2855777Y-10482484D02*
X2836729Y-10492008D01*
X2836729Y-10492008D02*
X2827206Y-10501531D01*
X2827206Y-10501531D02*
X2817682Y-10520579D01*
X2817682Y-10520579D02*
X2817682Y-10568198D01*
X2817682Y-10568198D02*
X2827206Y-10587246D01*
X2827206Y-10587246D02*
X2836729Y-10596770D01*
X2836729Y-10596770D02*
X2855777Y-10606293D01*
X2855777Y-10606293D02*
X2893872Y-10606293D01*
X2893872Y-10606293D02*
X2912920Y-10596770D01*
X2912920Y-10596770D02*
X2922444Y-10587246D01*
X2922444Y-10587246D02*
X2931967Y-10568198D01*
X3103396Y-10549150D02*
X3103396Y-10682484D01*
X3055777Y-10472960D02*
X3008158Y-10615817D01*
X3008158Y-10615817D02*
X3131967Y-10615817D01*
X3198634Y-10482484D02*
X3198634Y-10520579D01*
X3274825Y-10482484D02*
X3274825Y-10520579D01*
X3570063Y-10758674D02*
X3560539Y-10749150D01*
X3560539Y-10749150D02*
X3541491Y-10720579D01*
X3541491Y-10720579D02*
X3531968Y-10701531D01*
X3531968Y-10701531D02*
X3522444Y-10672960D01*
X3522444Y-10672960D02*
X3512920Y-10625341D01*
X3512920Y-10625341D02*
X3512920Y-10587246D01*
X3512920Y-10587246D02*
X3522444Y-10539627D01*
X3522444Y-10539627D02*
X3531968Y-10511055D01*
X3531968Y-10511055D02*
X3541491Y-10492008D01*
X3541491Y-10492008D02*
X3560539Y-10463436D01*
X3560539Y-10463436D02*
X3570063Y-10453912D01*
X3741491Y-10482484D02*
X3646253Y-10482484D01*
X3646253Y-10482484D02*
X3636729Y-10577722D01*
X3636729Y-10577722D02*
X3646253Y-10568198D01*
X3646253Y-10568198D02*
X3665301Y-10558674D01*
X3665301Y-10558674D02*
X3712920Y-10558674D01*
X3712920Y-10558674D02*
X3731968Y-10568198D01*
X3731968Y-10568198D02*
X3741491Y-10577722D01*
X3741491Y-10577722D02*
X3751015Y-10596770D01*
X3751015Y-10596770D02*
X3751015Y-10644389D01*
X3751015Y-10644389D02*
X3741491Y-10663436D01*
X3741491Y-10663436D02*
X3731968Y-10672960D01*
X3731968Y-10672960D02*
X3712920Y-10682484D01*
X3712920Y-10682484D02*
X3665301Y-10682484D01*
X3665301Y-10682484D02*
X3646253Y-10672960D01*
X3646253Y-10672960D02*
X3636729Y-10663436D01*
X3931968Y-10482484D02*
X3836729Y-10482484D01*
X3836729Y-10482484D02*
X3827206Y-10577722D01*
X3827206Y-10577722D02*
X3836729Y-10568198D01*
X3836729Y-10568198D02*
X3855777Y-10558674D01*
X3855777Y-10558674D02*
X3903396Y-10558674D01*
X3903396Y-10558674D02*
X3922444Y-10568198D01*
X3922444Y-10568198D02*
X3931968Y-10577722D01*
X3931968Y-10577722D02*
X3941491Y-10596770D01*
X3941491Y-10596770D02*
X3941491Y-10644389D01*
X3941491Y-10644389D02*
X3931968Y-10663436D01*
X3931968Y-10663436D02*
X3922444Y-10672960D01*
X3922444Y-10672960D02*
X3903396Y-10682484D01*
X3903396Y-10682484D02*
X3855777Y-10682484D01*
X3855777Y-10682484D02*
X3836729Y-10672960D01*
X3836729Y-10672960D02*
X3827206Y-10663436D01*
X4179587Y-10682484D02*
X4179587Y-10482484D01*
X4265301Y-10682484D02*
X4265301Y-10577722D01*
X4265301Y-10577722D02*
X4255777Y-10558674D01*
X4255777Y-10558674D02*
X4236730Y-10549150D01*
X4236730Y-10549150D02*
X4208158Y-10549150D01*
X4208158Y-10549150D02*
X4189110Y-10558674D01*
X4189110Y-10558674D02*
X4179587Y-10568198D01*
X4389111Y-10682484D02*
X4370063Y-10672960D01*
X4370063Y-10672960D02*
X4360539Y-10663436D01*
X4360539Y-10663436D02*
X4351015Y-10644389D01*
X4351015Y-10644389D02*
X4351015Y-10587246D01*
X4351015Y-10587246D02*
X4360539Y-10568198D01*
X4360539Y-10568198D02*
X4370063Y-10558674D01*
X4370063Y-10558674D02*
X4389111Y-10549150D01*
X4389111Y-10549150D02*
X4417682Y-10549150D01*
X4417682Y-10549150D02*
X4436730Y-10558674D01*
X4436730Y-10558674D02*
X4446253Y-10568198D01*
X4446253Y-10568198D02*
X4455777Y-10587246D01*
X4455777Y-10587246D02*
X4455777Y-10644389D01*
X4455777Y-10644389D02*
X4446253Y-10663436D01*
X4446253Y-10663436D02*
X4436730Y-10672960D01*
X4436730Y-10672960D02*
X4417682Y-10682484D01*
X4417682Y-10682484D02*
X4389111Y-10682484D01*
X4570063Y-10682484D02*
X4551015Y-10672960D01*
X4551015Y-10672960D02*
X4541492Y-10653912D01*
X4541492Y-10653912D02*
X4541492Y-10482484D01*
X4722444Y-10672960D02*
X4703396Y-10682484D01*
X4703396Y-10682484D02*
X4665301Y-10682484D01*
X4665301Y-10682484D02*
X4646253Y-10672960D01*
X4646253Y-10672960D02*
X4636730Y-10653912D01*
X4636730Y-10653912D02*
X4636730Y-10577722D01*
X4636730Y-10577722D02*
X4646253Y-10558674D01*
X4646253Y-10558674D02*
X4665301Y-10549150D01*
X4665301Y-10549150D02*
X4703396Y-10549150D01*
X4703396Y-10549150D02*
X4722444Y-10558674D01*
X4722444Y-10558674D02*
X4731968Y-10577722D01*
X4731968Y-10577722D02*
X4731968Y-10596770D01*
X4731968Y-10596770D02*
X4636730Y-10615817D01*
X4808158Y-10672960D02*
X4827206Y-10682484D01*
X4827206Y-10682484D02*
X4865301Y-10682484D01*
X4865301Y-10682484D02*
X4884349Y-10672960D01*
X4884349Y-10672960D02*
X4893873Y-10653912D01*
X4893873Y-10653912D02*
X4893873Y-10644389D01*
X4893873Y-10644389D02*
X4884349Y-10625341D01*
X4884349Y-10625341D02*
X4865301Y-10615817D01*
X4865301Y-10615817D02*
X4836730Y-10615817D01*
X4836730Y-10615817D02*
X4817682Y-10606293D01*
X4817682Y-10606293D02*
X4808158Y-10587246D01*
X4808158Y-10587246D02*
X4808158Y-10577722D01*
X4808158Y-10577722D02*
X4817682Y-10558674D01*
X4817682Y-10558674D02*
X4836730Y-10549150D01*
X4836730Y-10549150D02*
X4865301Y-10549150D01*
X4865301Y-10549150D02*
X4884349Y-10558674D01*
X4960539Y-10758674D02*
X4970063Y-10749150D01*
X4970063Y-10749150D02*
X4989111Y-10720579D01*
X4989111Y-10720579D02*
X4998634Y-10701531D01*
X4998634Y-10701531D02*
X5008158Y-10672960D01*
X5008158Y-10672960D02*
X5017682Y-10625341D01*
X5017682Y-10625341D02*
X5017682Y-10587246D01*
X5017682Y-10587246D02*
X5008158Y-10539627D01*
X5008158Y-10539627D02*
X4998634Y-10511055D01*
X4998634Y-10511055D02*
X4989111Y-10492008D01*
X4989111Y-10492008D02*
X4970063Y-10463436D01*
X4970063Y-10463436D02*
X4960539Y-10453912D01*
M02*
